# MagicaVoxel @ Ephtracy

# group
o 

# material
mtllib Bin.mtl
usemtl palette

# normals
vn -1 0 0
vn 1 0 0
vn 0 0 1
vn 0 0 -1
vn 0 -1 0
vn 0 1 0

# texcoords
vt 0.306641 0.5
vt 0.955078 0.5
vt 0.986328 0.5
vt 0.994141 0.5

# verts
v -1.1 3.2 1
v -1.1 3.2 -1.1
v -1.1 3.6 1
v -1.1 3.6 -1.1
v -0.9 1 0.8
v -0.9 1 -0.9
v -0.9 3.2 0.8
v -0.9 3.2 -0.9
v 0.7 2 0.6
v 0.7 2 -0.7
v 0.7 2.6 0.6
v 0.7 2.6 -0.7
v 0.7 3.1 0.6
v 0.7 3.1 -0.7
v 0.7 3.3 0.6
v 0.7 3.3 -0.7
v 0.7 3.6 0.6
v 0.7 3.6 -0.7
v -0.7 2 0.6
v -0.7 2 -0.7
v -0.7 2.6 0.6
v -0.7 2.6 -0.7
v -0.7 3.1 0.6
v -0.7 3.1 -0.7
v -0.7 3.3 0.6
v -0.7 3.3 -0.7
v -0.7 3.6 0.6
v -0.7 3.6 -0.7
v 0.9 1 0.8
v 0.9 1 -0.9
v 0.9 3.2 0.8
v 0.9 3.2 -0.9
v 1.1 3.2 1
v 1.1 3.2 -1.1
v 1.1 3.6 1
v 1.1 3.6 -1.1
v -1.1 3.2 1
v -1.1 3.6 1
v 1.1 3.2 1
v 1.1 3.6 1
v -0.9 1 0.8
v -0.9 3.2 0.8
v 0.9 1 0.8
v 0.9 3.2 0.8
v -0.7 2 -0.7
v -0.7 2.6 -0.7
v -0.7 3.1 -0.7
v -0.7 3.3 -0.7
v -0.7 3.6 -0.7
v 0.7 2 -0.7
v 0.7 2.6 -0.7
v 0.7 3.1 -0.7
v 0.7 3.3 -0.7
v 0.7 3.6 -0.7
v -0.7 2 0.6
v -0.7 2.6 0.6
v -0.7 3.1 0.6
v -0.7 3.3 0.6
v -0.7 3.6 0.6
v 0.7 2 0.6
v 0.7 2.6 0.6
v 0.7 3.1 0.6
v 0.7 3.3 0.6
v 0.7 3.6 0.6
v -0.9 1 -0.9
v -0.9 3.2 -0.9
v 0.9 1 -0.9
v 0.9 3.2 -0.9
v -1.1 3.2 -1.1
v -1.1 3.6 -1.1
v 1.1 3.2 -1.1
v 1.1 3.6 -1.1
v -0.9 1 0.8
v 0.9 1 0.8
v -0.9 1 -0.9
v 0.9 1 -0.9
v -0.7 2.6 0.6
v 0.7 2.6 0.6
v -0.7 2.6 -0.7
v 0.7 2.6 -0.7
v -1.1 3.2 1
v 1.1 3.2 1
v -0.9 3.2 0.8
v 0.9 3.2 0.8
v -0.9 3.2 -0.9
v 0.9 3.2 -0.9
v -1.1 3.2 -1.1
v 1.1 3.2 -1.1
v -0.7 2 0.6
v 0.7 2 0.6
v -0.7 2 -0.7
v 0.7 2 -0.7
v -0.7 3.1 0.6
v 0.7 3.1 0.6
v -0.7 3.1 -0.7
v 0.7 3.1 -0.7
v -1.1 3.6 1
v 1.1 3.6 1
v -0.7 3.6 0.6
v 0.7 3.6 0.6
v -0.7 3.6 -0.7
v 0.7 3.6 -0.7
v -1.1 3.6 -1.1
v 1.1 3.6 -1.1

# faces
f 3/4/1 2/4/1 1/4/1
f 4/4/1 2/4/1 3/4/1
f 7/3/1 6/3/1 5/3/1
f 8/3/1 6/3/1 7/3/1
f 11/3/1 10/3/1 9/3/1
f 12/3/1 10/3/1 11/3/1
f 15/2/1 14/2/1 13/2/1
f 16/2/1 14/2/1 15/2/1
f 17/4/1 16/4/1 15/4/1
f 18/4/1 16/4/1 17/4/1
f 19/3/2 20/3/2 21/3/2
f 21/3/2 20/3/2 22/3/2
f 23/2/2 24/2/2 25/2/2
f 25/2/2 24/2/2 26/2/2
f 25/4/2 26/4/2 27/4/2
f 27/4/2 26/4/2 28/4/2
f 29/3/2 30/3/2 31/3/2
f 31/3/2 30/3/2 32/3/2
f 33/4/2 34/4/2 35/4/2
f 35/4/2 34/4/2 36/4/2
f 39/4/3 38/4/3 37/4/3
f 40/4/3 38/4/3 39/4/3
f 43/3/3 42/3/3 41/3/3
f 44/3/3 42/3/3 43/3/3
f 50/3/3 46/3/3 45/3/3
f 51/3/3 46/3/3 50/3/3
f 52/2/3 48/2/3 47/2/3
f 53/4/3 49/4/3 48/4/3
f 53/2/3 48/2/3 52/2/3
f 54/4/3 49/4/3 53/4/3
f 55/3/4 56/3/4 60/3/4
f 60/3/4 56/3/4 61/3/4
f 57/2/4 58/2/4 62/2/4
f 58/4/4 59/4/4 63/4/4
f 62/2/4 58/2/4 63/2/4
f 63/4/4 59/4/4 64/4/4
f 65/3/4 66/3/4 67/3/4
f 67/3/4 66/3/4 68/3/4
f 69/4/4 70/4/4 71/4/4
f 71/4/4 70/4/4 72/4/4
f 75/3/5 74/3/5 73/3/5
f 76/3/5 74/3/5 75/3/5
f 79/1/5 78/1/5 77/1/5
f 80/1/5 78/1/5 79/1/5
f 83/4/5 82/4/5 81/4/5
f 84/4/5 82/4/5 83/4/5
f 85/4/5 83/4/5 81/4/5
f 86/4/5 82/4/5 84/4/5
f 87/4/5 85/4/5 81/4/5
f 87/4/5 86/4/5 85/4/5
f 88/4/5 82/4/5 86/4/5
f 88/4/5 86/4/5 87/4/5
f 89/1/6 90/1/6 91/1/6
f 91/1/6 90/1/6 92/1/6
f 93/2/6 94/2/6 95/2/6
f 95/2/6 94/2/6 96/2/6
f 97/4/6 98/4/6 99/4/6
f 99/4/6 98/4/6 100/4/6
f 97/4/6 99/4/6 101/4/6
f 100/4/6 98/4/6 102/4/6
f 97/4/6 101/4/6 103/4/6
f 101/4/6 102/4/6 103/4/6
f 102/4/6 98/4/6 104/4/6
f 103/4/6 102/4/6 104/4/6
