# MagicaVoxel @ Ephtracy

# group
o 

# material
mtllib Book1.mtl
usemtl palette

# normals
vn -1 0 0
vn 1 0 0
vn 0 0 1
vn 0 0 -1
vn 0 -1 0
vn 0 1 0

# texcoords
vt 0.919922 0.5
vt 0.927734 0.5
vt 0.935547 0.5
vt 0.962891 0.5

# verts
v -2 -1.1 3
v -2 -1.1 -3
v -2 0.2 3
v -2 0.2 -3
v -1.8 -0.9 3
v -1.8 -0.9 2.9
v -1.8 -0.9 -2.9
v -1.8 -0.9 -3
v -1.8 0 3
v -1.8 0 2.9
v -1.8 0 -2.9
v -1.8 0 -3
v 1.9 -0.9 2.9
v 1.9 -0.9 -2.9
v 1.9 0 2.9
v 1.9 0 -2.9
v 2 -1.1 3
v 2 -1.1 -3
v 2 -0.9 3
v 2 -0.9 -3
v 2 0 3
v 2 0 -3
v 2 0.2 3
v 2 0.2 -3
v -2 -1.1 3
v -2 0.2 3
v -1.8 -0.9 3
v -1.8 0 3
v 2 -1.1 3
v 2 -0.9 3
v 2 0 3
v 2 0.2 3
v -1.8 -0.9 2.9
v -1.8 0 2.9
v 1.9 -0.9 2.9
v 1.9 0 2.9
v -1.8 -0.9 -2.9
v -1.8 0 -2.9
v 1.9 -0.9 -2.9
v 1.9 0 -2.9
v -2 -1.1 -3
v -2 0.2 -3
v -1.8 -0.9 -3
v -1.8 0 -3
v 2 -1.1 -3
v 2 -0.9 -3
v 2 0 -3
v 2 0.2 -3
v -2 -1.1 3
v 2 -1.1 3
v -2 -1.1 -3
v 2 -1.1 -3
v -1.8 0 3
v 2 0 3
v -1.8 0 2.9
v 1.9 0 2.9
v -1.8 0 -2.9
v 1.9 0 -2.9
v -1.8 0 -3
v 2 0 -3
v -1.8 -0.9 3
v 2 -0.9 3
v -1.8 -0.9 2.9
v 1.9 -0.9 2.9
v -1.8 -0.9 -2.9
v 1.9 -0.9 -2.9
v -1.8 -0.9 -3
v 2 -0.9 -3
v -2 0.2 3
v 2 0.2 3
v -1.3 0.2 2.5
v 1.2 0.2 2.5
v -1.3 0.2 2.4
v 1.2 0.2 2.4
v -1 0.2 2.3
v 0.9 0.2 2.3
v -1 0.2 2.2
v 0.9 0.2 2.2
v -0.3 0.2 2.1
v 0.2 0.2 2.1
v -0.3 0.2 2
v 0.2 0.2 2
v -1.8 0.2 0.5
v -0.4 0.2 0.5
v 0.3 0.2 0.5
v 1.7 0.2 0.5
v -1.8 0.2 0.0999999
v -0.4 0.2 0.0999999
v 0.3 0.2 0.0999999
v 1.7 0.2 0.0999999
v -1.5 0.2 -2.38419e-07
v -0.7 0.2 -2.38419e-07
v 0.6 0.2 -2.38419e-07
v 1.4 0.2 -2.38419e-07
v -1.5 0.2 -0.3
v -0.7 0.2 -0.3
v 0.6 0.2 -0.3
v 1.4 0.2 -0.3
v -0.8 0.2 -1.3
v 0.7 0.2 -1.3
v -0.8 0.2 -1.7
v 0.7 0.2 -1.7
v -1.5 0.2 -1.9
v 1.5 0.2 -1.9
v -1.4 0.2 -2
v 1.4 0.2 -2
v -1.4 0.2 -2.3
v 1.4 0.2 -2.3
v -1.5 0.2 -2.4
v 1.5 0.2 -2.4
v -2 0.2 -3
v 2 0.2 -3

# faces
f 3/2/1 2/2/1 1/2/1
f 4/2/1 2/2/1 3/2/1
f 5/2/2 6/2/2 9/2/2
f 9/2/2 6/2/2 10/2/2
f 7/2/2 8/2/2 11/2/2
f 11/2/2 8/2/2 12/2/2
f 13/4/2 14/4/2 15/4/2
f 15/4/2 14/4/2 16/4/2
f 17/2/2 18/2/2 19/2/2
f 19/2/2 18/2/2 20/2/2
f 21/2/2 22/2/2 23/2/2
f 23/2/2 22/2/2 24/2/2
f 27/2/3 26/2/3 25/2/3
f 28/2/3 26/2/3 27/2/3
f 29/2/3 27/2/3 25/2/3
f 30/2/3 27/2/3 29/2/3
f 31/2/3 26/2/3 28/2/3
f 32/2/3 26/2/3 31/2/3
f 35/4/3 34/4/3 33/4/3
f 36/4/3 34/4/3 35/4/3
f 37/4/4 38/4/4 39/4/4
f 39/4/4 38/4/4 40/4/4
f 41/2/4 42/2/4 43/2/4
f 43/2/4 42/2/4 44/2/4
f 41/2/4 43/2/4 45/2/4
f 45/2/4 43/2/4 46/2/4
f 44/2/4 42/2/4 47/2/4
f 47/2/4 42/2/4 48/2/4
f 51/2/5 50/2/5 49/2/5
f 52/2/5 50/2/5 51/2/5
f 55/2/5 54/2/5 53/2/5
f 56/2/5 54/2/5 55/2/5
f 58/2/5 54/2/5 56/2/5
f 59/2/5 58/2/5 57/2/5
f 60/2/5 54/2/5 58/2/5
f 60/2/5 58/2/5 59/2/5
f 61/2/6 62/2/6 63/2/6
f 63/2/6 62/2/6 64/2/6
f 64/2/6 62/2/6 66/2/6
f 65/2/6 66/2/6 67/2/6
f 66/2/6 62/2/6 68/2/6
f 67/2/6 66/2/6 68/2/6
f 69/2/6 70/2/6 71/2/6
f 71/2/6 70/2/6 72/2/6
f 69/2/6 71/2/6 73/2/6
f 71/1/6 72/1/6 73/1/6
f 72/2/6 70/2/6 74/2/6
f 73/1/6 72/1/6 74/1/6
f 73/2/6 74/2/6 75/2/6
f 75/2/6 74/2/6 76/2/6
f 73/2/6 75/2/6 77/2/6
f 75/1/6 76/1/6 77/1/6
f 76/2/6 74/2/6 78/2/6
f 77/1/6 76/1/6 78/1/6
f 77/2/6 78/2/6 79/2/6
f 79/2/6 78/2/6 80/2/6
f 77/2/6 79/2/6 81/2/6
f 79/1/6 80/1/6 81/1/6
f 80/2/6 78/2/6 82/2/6
f 81/1/6 80/1/6 82/1/6
f 69/2/6 73/2/6 83/2/6
f 73/2/6 77/2/6 83/2/6
f 81/2/6 82/2/6 83/2/6
f 77/2/6 81/2/6 83/2/6
f 83/2/6 82/2/6 84/2/6
f 82/2/6 78/2/6 85/2/6
f 84/2/6 82/2/6 85/2/6
f 74/2/6 70/2/6 86/2/6
f 85/2/6 78/2/6 86/2/6
f 78/2/6 74/2/6 86/2/6
f 83/1/6 84/1/6 87/1/6
f 69/2/6 83/2/6 87/2/6
f 84/2/6 85/2/6 88/2/6
f 87/1/6 84/1/6 88/1/6
f 85/1/6 86/1/6 89/1/6
f 88/2/6 85/2/6 89/2/6
f 86/2/6 70/2/6 90/2/6
f 89/1/6 86/1/6 90/1/6
f 88/2/6 89/2/6 91/2/6
f 87/2/6 88/2/6 91/2/6
f 89/2/6 90/2/6 91/2/6
f 91/2/6 90/2/6 92/2/6
f 92/2/6 90/2/6 93/2/6
f 93/2/6 90/2/6 94/2/6
f 87/2/6 91/2/6 95/2/6
f 91/1/6 92/1/6 95/1/6
f 92/2/6 93/2/6 96/2/6
f 95/1/6 92/1/6 96/1/6
f 93/1/6 94/1/6 97/1/6
f 96/2/6 93/2/6 97/2/6
f 94/2/6 90/2/6 98/2/6
f 97/1/6 94/1/6 98/1/6
f 96/2/6 97/2/6 99/2/6
f 95/2/6 96/2/6 99/2/6
f 97/2/6 98/2/6 99/2/6
f 99/2/6 98/2/6 100/2/6
f 95/2/6 99/2/6 101/2/6
f 99/1/6 100/1/6 101/1/6
f 100/2/6 98/2/6 102/2/6
f 101/1/6 100/1/6 102/1/6
f 87/2/6 95/2/6 103/2/6
f 95/2/6 101/2/6 103/2/6
f 101/2/6 102/2/6 103/2/6
f 98/2/6 90/2/6 104/2/6
f 103/2/6 102/2/6 104/2/6
f 102/2/6 98/2/6 104/2/6
f 103/1/6 104/1/6 105/1/6
f 105/1/6 104/1/6 106/1/6
f 103/1/6 105/1/6 107/1/6
f 105/3/6 106/3/6 107/3/6
f 106/1/6 104/1/6 108/1/6
f 107/3/6 106/3/6 108/3/6
f 87/2/6 103/2/6 109/2/6
f 103/1/6 107/1/6 109/1/6
f 107/1/6 108/1/6 109/1/6
f 108/1/6 104/1/6 110/1/6
f 109/1/6 108/1/6 110/1/6
f 104/2/6 90/2/6 110/2/6
f 69/2/6 87/2/6 111/2/6
f 87/2/6 109/2/6 111/2/6
f 109/2/6 110/2/6 111/2/6
f 90/2/6 70/2/6 112/2/6
f 111/2/6 110/2/6 112/2/6
f 110/2/6 90/2/6 112/2/6
