# MagicaVoxel @ Ephtracy

# group
o 

# material
mtllib breadtoaster.mtl
usemtl palette

# normals
vn -1 0 0
vn 1 0 0
vn 0 0 1
vn 0 0 -1
vn 0 -1 0
vn 0 1 0

# texcoords
vt 0.373047 0.5
vt 0.962891 0.5
vt 0.966797 0.5
vt 0.978516 0.5
vt 0.982422 0.5
vt 0.994141 0.5

# verts
v -0.8 -0.3 0.8
v -0.8 -0.3 -0.8
v -0.8 -0.1 0.8
v -0.8 -0.1 -0.8
v -0.8 0.1 0.8
v -0.8 0.1 -0.8
v -0.8 0.3 0.8
v -0.8 0.3 -0.8
v -0.8 1 0.8
v -0.8 1 -0.8
v -0.8 1.2 0.8
v -0.8 1.2 -0.8
v -0.7 -0.1 0.7
v -0.7 -0.1 -0.7
v -0.7 0.1 0.7
v -0.7 0.1 -0.7
v -0.7 0.3 0.7
v -0.7 0.3 -0.7
v -0.7 1 0.7
v -0.7 1 -0.7
v -0.6 -0.5 0.6
v -0.6 -0.5 0.4
v -0.6 -0.5 -0.4
v -0.6 -0.5 -0.6
v -0.6 -0.3 0.6
v -0.6 -0.3 0.4
v -0.6 -0.3 -0.4
v -0.6 -0.3 -0.6
v -0.6 0.4 -0.7
v -0.6 0.4 -0.8
v -0.6 0.8 -0.7
v -0.6 0.8 -0.8
v -0.2 0.9 0.5
v -0.2 0.9 -0.5
v -0.2 1.1 0.5
v -0.2 1.1 -0.5
v -0.2 1.2 0.5
v -0.2 1.2 -0.5
v 5.96046e-08 0.4 -0.7
v 5.96046e-08 0.4 -0.8
v 5.96046e-08 0.5 -0.7
v 5.96046e-08 0.5 -0.8
v 5.96046e-08 0.6 -0.7
v 5.96046e-08 0.6 -0.8
v 5.96046e-08 0.7 -0.7
v 5.96046e-08 0.7 -0.8
v 5.96046e-08 0.8 -0.7
v 5.96046e-08 0.8 -0.8
v 5.96046e-08 0.9 -0.7
v 5.96046e-08 0.9 -0.8
v 0.2 -0.5 0.6
v 0.2 -0.5 0.4
v 0.2 -0.5 -0.4
v 0.2 -0.5 -0.6
v 0.2 -0.3 0.6
v 0.2 -0.3 0.4
v 0.2 -0.3 -0.4
v 0.2 -0.3 -0.6
v 0.2 0.4 -0.7
v 0.2 0.4 -0.8
v 0.2 0.5 -0.7
v 0.2 0.5 -0.8
v 0.2 0.6 -0.7
v 0.2 0.6 -0.8
v 0.2 0.7 -0.7
v 0.2 0.7 -0.8
v 0.2 0.8 -0.7
v 0.2 0.8 -0.8
v 0.2 0.9 -0.7
v 0.2 0.9 -0.8
v 0.3 0.9 0.5
v 0.3 0.9 -0.5
v 0.3 1.1 0.5
v 0.3 1.1 -0.5
v 0.3 1.2 0.5
v 0.3 1.2 -0.5
v -0.5 0.9 0.5
v -0.5 0.9 -0.5
v -0.5 1.1 0.5
v -0.5 1.1 -0.5
v -0.5 1.2 0.5
v -0.5 1.2 -0.5
v -0.4 -0.5 0.6
v -0.4 -0.5 0.4
v -0.4 -0.5 -0.4
v -0.4 -0.5 -0.6
v -0.4 -0.3 0.6
v -0.4 -0.3 0.4
v -0.4 -0.3 -0.4
v -0.4 -0.3 -0.6
v -0.2 0.4 -0.7
v -0.2 0.4 -0.8
v -0.2 0.8 -0.7
v -0.2 0.8 -0.8
v 5.96046e-08 0.9 0.5
v 5.96046e-08 0.9 -0.5
v 5.96046e-08 1.1 0.5
v 5.96046e-08 1.1 -0.5
v 5.96046e-08 1.2 0.5
v 5.96046e-08 1.2 -0.5
v 0.1 0.4 -0.7
v 0.1 0.4 -0.8
v 0.1 0.5 -0.7
v 0.1 0.5 -0.8
v 0.1 0.6 -0.7
v 0.1 0.6 -0.8
v 0.1 0.7 -0.7
v 0.1 0.7 -0.8
v 0.1 0.8 -0.7
v 0.1 0.8 -0.8
v 0.1 0.9 -0.7
v 0.1 0.9 -0.8
v 0.3 0.4 -0.7
v 0.3 0.4 -0.8
v 0.3 0.5 -0.7
v 0.3 0.5 -0.8
v 0.3 0.6 -0.7
v 0.3 0.6 -0.8
v 0.3 0.7 -0.7
v 0.3 0.7 -0.8
v 0.3 0.8 -0.7
v 0.3 0.8 -0.8
v 0.3 0.9 -0.7
v 0.3 0.9 -0.8
v 0.4 -0.5 0.6
v 0.4 -0.5 0.4
v 0.4 -0.5 -0.4
v 0.4 -0.5 -0.6
v 0.4 -0.3 0.6
v 0.4 -0.3 0.4
v 0.4 -0.3 -0.4
v 0.4 -0.3 -0.6
v 0.5 -0.1 0.7
v 0.5 -0.1 -0.7
v 0.5 0.1 0.7
v 0.5 0.1 -0.7
v 0.5 0.3 0.7
v 0.5 0.3 -0.7
v 0.5 1 0.7
v 0.5 1 -0.7
v 0.6 -0.3 0.8
v 0.6 -0.3 -0.8
v 0.6 -0.1 0.8
v 0.6 -0.1 -0.8
v 0.6 0.1 0.8
v 0.6 0.1 -0.8
v 0.6 0.3 0.8
v 0.6 0.3 -0.8
v 0.6 1 0.8
v 0.6 1 -0.8
v 0.6 1.2 0.8
v 0.6 1.2 -0.8
v -0.8 -0.3 0.8
v -0.8 -0.1 0.8
v -0.8 0.1 0.8
v -0.8 0.3 0.8
v -0.8 1 0.8
v -0.8 1.2 0.8
v 0.6 -0.3 0.8
v 0.6 -0.1 0.8
v 0.6 0.1 0.8
v 0.6 0.3 0.8
v 0.6 1 0.8
v 0.6 1.2 0.8
v -0.7 -0.1 0.7
v -0.7 0.1 0.7
v -0.7 0.3 0.7
v -0.7 1 0.7
v 0.5 -0.1 0.7
v 0.5 0.1 0.7
v 0.5 0.3 0.7
v 0.5 1 0.7
v -0.6 -0.5 0.6
v -0.6 -0.3 0.6
v -0.4 -0.5 0.6
v -0.4 -0.3 0.6
v 0.2 -0.5 0.6
v 0.2 -0.3 0.6
v 0.4 -0.5 0.6
v 0.4 -0.3 0.6
v -0.6 -0.5 -0.4
v -0.6 -0.3 -0.4
v -0.4 -0.5 -0.4
v -0.4 -0.3 -0.4
v 0.2 -0.5 -0.4
v 0.2 -0.3 -0.4
v 0.4 -0.5 -0.4
v 0.4 -0.3 -0.4
v -0.5 0.9 -0.5
v -0.5 1.1 -0.5
v -0.5 1.2 -0.5
v -0.2 0.9 -0.5
v -0.2 1.1 -0.5
v -0.2 1.2 -0.5
v 5.96046e-08 0.9 -0.5
v 5.96046e-08 1.1 -0.5
v 5.96046e-08 1.2 -0.5
v 0.3 0.9 -0.5
v 0.3 1.1 -0.5
v 0.3 1.2 -0.5
v -0.5 0.9 0.5
v -0.5 1.1 0.5
v -0.5 1.2 0.5
v -0.2 0.9 0.5
v -0.2 1.1 0.5
v -0.2 1.2 0.5
v 5.96046e-08 0.9 0.5
v 5.96046e-08 1.1 0.5
v 5.96046e-08 1.2 0.5
v 0.3 0.9 0.5
v 0.3 1.1 0.5
v 0.3 1.2 0.5
v -0.6 -0.5 0.4
v -0.6 -0.3 0.4
v -0.4 -0.5 0.4
v -0.4 -0.3 0.4
v 0.2 -0.5 0.4
v 0.2 -0.3 0.4
v 0.4 -0.5 0.4
v 0.4 -0.3 0.4
v -0.6 -0.5 -0.6
v -0.6 -0.3 -0.6
v -0.4 -0.5 -0.6
v -0.4 -0.3 -0.6
v 0.2 -0.5 -0.6
v 0.2 -0.3 -0.6
v 0.4 -0.5 -0.6
v 0.4 -0.3 -0.6
v -0.7 -0.1 -0.7
v -0.7 0.1 -0.7
v -0.7 0.3 -0.7
v -0.7 1 -0.7
v -0.6 0.4 -0.7
v -0.6 0.8 -0.7
v -0.2 0.4 -0.7
v -0.2 0.8 -0.7
v 5.96046e-08 0.4 -0.7
v 5.96046e-08 0.5 -0.7
v 5.96046e-08 0.6 -0.7
v 5.96046e-08 0.7 -0.7
v 5.96046e-08 0.8 -0.7
v 5.96046e-08 0.9 -0.7
v 0.1 0.4 -0.7
v 0.1 0.5 -0.7
v 0.1 0.6 -0.7
v 0.1 0.7 -0.7
v 0.1 0.8 -0.7
v 0.1 0.9 -0.7
v 0.2 0.4 -0.7
v 0.2 0.5 -0.7
v 0.2 0.6 -0.7
v 0.2 0.7 -0.7
v 0.2 0.8 -0.7
v 0.2 0.9 -0.7
v 0.3 0.4 -0.7
v 0.3 0.5 -0.7
v 0.3 0.6 -0.7
v 0.3 0.7 -0.7
v 0.3 0.8 -0.7
v 0.3 0.9 -0.7
v 0.5 -0.1 -0.7
v 0.5 0.1 -0.7
v 0.5 0.3 -0.7
v 0.5 1 -0.7
v -0.8 -0.3 -0.8
v -0.8 -0.1 -0.8
v -0.8 0.1 -0.8
v -0.8 0.3 -0.8
v -0.8 1 -0.8
v -0.8 1.2 -0.8
v -0.6 0.4 -0.8
v -0.6 0.8 -0.8
v -0.2 0.4 -0.8
v -0.2 0.8 -0.8
v 5.96046e-08 0.4 -0.8
v 5.96046e-08 0.5 -0.8
v 5.96046e-08 0.6 -0.8
v 5.96046e-08 0.7 -0.8
v 5.96046e-08 0.8 -0.8
v 5.96046e-08 0.9 -0.8
v 0.1 0.4 -0.8
v 0.1 0.5 -0.8
v 0.1 0.6 -0.8
v 0.1 0.7 -0.8
v 0.1 0.8 -0.8
v 0.1 0.9 -0.8
v 0.2 0.4 -0.8
v 0.2 0.5 -0.8
v 0.2 0.6 -0.8
v 0.2 0.7 -0.8
v 0.2 0.8 -0.8
v 0.2 0.9 -0.8
v 0.3 0.4 -0.8
v 0.3 0.5 -0.8
v 0.3 0.6 -0.8
v 0.3 0.7 -0.8
v 0.3 0.8 -0.8
v 0.3 0.9 -0.8
v 0.6 -0.3 -0.8
v 0.6 -0.1 -0.8
v 0.6 0.1 -0.8
v 0.6 0.3 -0.8
v 0.6 1 -0.8
v 0.6 1.2 -0.8
v -0.6 -0.5 0.6
v -0.4 -0.5 0.6
v 0.2 -0.5 0.6
v 0.4 -0.5 0.6
v -0.6 -0.5 0.4
v -0.4 -0.5 0.4
v 0.2 -0.5 0.4
v 0.4 -0.5 0.4
v -0.6 -0.5 -0.4
v -0.4 -0.5 -0.4
v 0.2 -0.5 -0.4
v 0.4 -0.5 -0.4
v -0.6 -0.5 -0.6
v -0.4 -0.5 -0.6
v 0.2 -0.5 -0.6
v 0.4 -0.5 -0.6
v -0.8 -0.3 0.8
v 0.6 -0.3 0.8
v -0.6 -0.3 0.6
v -0.4 -0.3 0.6
v 0.2 -0.3 0.6
v 0.4 -0.3 0.6
v -0.6 -0.3 0.4
v -0.4 -0.3 0.4
v 0.2 -0.3 0.4
v 0.4 -0.3 0.4
v -0.6 -0.3 -0.4
v -0.4 -0.3 -0.4
v 0.2 -0.3 -0.4
v 0.4 -0.3 -0.4
v -0.6 -0.3 -0.6
v -0.4 -0.3 -0.6
v 0.2 -0.3 -0.6
v 0.4 -0.3 -0.6
v -0.8 -0.3 -0.8
v 0.6 -0.3 -0.8
v -0.8 0.1 0.8
v 0.6 0.1 0.8
v -0.7 0.1 0.7
v 0.5 0.1 0.7
v -0.7 0.1 -0.7
v 0.5 0.1 -0.7
v -0.8 0.1 -0.8
v 0.6 0.1 -0.8
v -0.6 0.4 -0.7
v -0.2 0.4 -0.7
v 5.96046e-08 0.4 -0.7
v 0.1 0.4 -0.7
v 0.2 0.4 -0.7
v 0.3 0.4 -0.7
v -0.6 0.4 -0.8
v -0.2 0.4 -0.8
v 5.96046e-08 0.4 -0.8
v 0.1 0.4 -0.8
v 0.2 0.4 -0.8
v 0.3 0.4 -0.8
v 5.96046e-08 0.6 -0.7
v 0.1 0.6 -0.7
v 0.2 0.6 -0.7
v 0.3 0.6 -0.7
v 5.96046e-08 0.6 -0.8
v 0.1 0.6 -0.8
v 0.2 0.6 -0.8
v 0.3 0.6 -0.8
v 5.96046e-08 0.8 -0.7
v 0.1 0.8 -0.7
v 0.2 0.8 -0.7
v 0.3 0.8 -0.7
v 5.96046e-08 0.8 -0.8
v 0.1 0.8 -0.8
v 0.2 0.8 -0.8
v 0.3 0.8 -0.8
v -0.8 1 0.8
v 0.6 1 0.8
v -0.7 1 0.7
v 0.5 1 0.7
v -0.7 1 -0.7
v 0.5 1 -0.7
v -0.8 1 -0.8
v 0.6 1 -0.8
v -0.8 -0.1 0.8
v 0.6 -0.1 0.8
v -0.7 -0.1 0.7
v 0.5 -0.1 0.7
v -0.7 -0.1 -0.7
v 0.5 -0.1 -0.7
v -0.8 -0.1 -0.8
v 0.6 -0.1 -0.8
v -0.8 0.3 0.8
v 0.6 0.3 0.8
v -0.7 0.3 0.7
v 0.5 0.3 0.7
v -0.7 0.3 -0.7
v 0.5 0.3 -0.7
v -0.8 0.3 -0.8
v 0.6 0.3 -0.8
v 5.96046e-08 0.5 -0.7
v 0.1 0.5 -0.7
v 0.2 0.5 -0.7
v 0.3 0.5 -0.7
v 5.96046e-08 0.5 -0.8
v 0.1 0.5 -0.8
v 0.2 0.5 -0.8
v 0.3 0.5 -0.8
v 5.96046e-08 0.7 -0.7
v 0.1 0.7 -0.7
v 0.2 0.7 -0.7
v 0.3 0.7 -0.7
v 5.96046e-08 0.7 -0.8
v 0.1 0.7 -0.8
v 0.2 0.7 -0.8
v 0.3 0.7 -0.8
v -0.6 0.8 -0.7
v -0.2 0.8 -0.7
v -0.6 0.8 -0.8
v -0.2 0.8 -0.8
v -0.5 0.9 0.5
v -0.2 0.9 0.5
v 5.96046e-08 0.9 0.5
v 0.3 0.9 0.5
v -0.5 0.9 -0.5
v -0.2 0.9 -0.5
v 5.96046e-08 0.9 -0.5
v 0.3 0.9 -0.5
v 5.96046e-08 0.9 -0.7
v 0.1 0.9 -0.7
v 0.2 0.9 -0.7
v 0.3 0.9 -0.7
v 5.96046e-08 0.9 -0.8
v 0.1 0.9 -0.8
v 0.2 0.9 -0.8
v 0.3 0.9 -0.8
v -0.8 1.2 0.8
v 0.6 1.2 0.8
v -0.7 1.2 0.7
v 0.5 1.2 0.7
v -0.5 1.2 0.5
v -0.2 1.2 0.5
v 5.96046e-08 1.2 0.5
v 0.3 1.2 0.5
v -0.5 1.2 -0.5
v -0.2 1.2 -0.5
v 5.96046e-08 1.2 -0.5
v 0.3 1.2 -0.5
v -0.7 1.2 -0.7
v 0.5 1.2 -0.7
v -0.8 1.2 -0.8
v 0.6 1.2 -0.8

# faces
f 3/4/1 2/4/1 1/4/1
f 4/4/1 2/4/1 3/4/1
f 7/4/1 6/4/1 5/4/1
f 8/4/1 6/4/1 7/4/1
f 11/4/1 10/4/1 9/4/1
f 12/4/1 10/4/1 11/4/1
f 15/3/1 14/3/1 13/3/1
f 16/3/1 14/3/1 15/3/1
f 19/1/1 18/1/1 17/1/1
f 20/1/1 18/1/1 19/1/1
f 25/5/1 22/5/1 21/5/1
f 26/5/1 22/5/1 25/5/1
f 27/5/1 24/5/1 23/5/1
f 28/5/1 24/5/1 27/5/1
f 31/2/1 30/2/1 29/2/1
f 32/2/1 30/2/1 31/2/1
f 35/6/1 34/6/1 33/6/1
f 36/6/1 34/6/1 35/6/1
f 37/1/1 36/1/1 35/1/1
f 38/1/1 36/1/1 37/1/1
f 41/2/1 40/2/1 39/2/1
f 42/2/1 40/2/1 41/2/1
f 45/2/1 44/2/1 43/2/1
f 46/2/1 44/2/1 45/2/1
f 49/2/1 48/2/1 47/2/1
f 50/2/1 48/2/1 49/2/1
f 55/5/1 52/5/1 51/5/1
f 56/5/1 52/5/1 55/5/1
f 57/5/1 54/5/1 53/5/1
f 58/5/1 54/5/1 57/5/1
f 61/2/1 60/2/1 59/2/1
f 62/2/1 60/2/1 61/2/1
f 65/2/1 64/2/1 63/2/1
f 66/2/1 64/2/1 65/2/1
f 69/2/1 68/2/1 67/2/1
f 70/2/1 68/2/1 69/2/1
f 73/6/1 72/6/1 71/6/1
f 74/6/1 72/6/1 73/6/1
f 75/1/1 74/1/1 73/1/1
f 76/1/1 74/1/1 75/1/1
f 77/6/2 78/6/2 79/6/2
f 79/6/2 78/6/2 80/6/2
f 79/1/2 80/1/2 81/1/2
f 81/1/2 80/1/2 82/1/2
f 83/5/2 84/5/2 87/5/2
f 87/5/2 84/5/2 88/5/2
f 85/5/2 86/5/2 89/5/2
f 89/5/2 86/5/2 90/5/2
f 91/2/2 92/2/2 93/2/2
f 93/2/2 92/2/2 94/2/2
f 95/6/2 96/6/2 97/6/2
f 97/6/2 96/6/2 98/6/2
f 97/1/2 98/1/2 99/1/2
f 99/1/2 98/1/2 100/1/2
f 101/2/2 102/2/2 103/2/2
f 103/2/2 102/2/2 104/2/2
f 105/2/2 106/2/2 107/2/2
f 107/2/2 106/2/2 108/2/2
f 109/2/2 110/2/2 111/2/2
f 111/2/2 110/2/2 112/2/2
f 113/2/2 114/2/2 115/2/2
f 115/2/2 114/2/2 116/2/2
f 117/2/2 118/2/2 119/2/2
f 119/2/2 118/2/2 120/2/2
f 121/2/2 122/2/2 123/2/2
f 123/2/2 122/2/2 124/2/2
f 125/5/2 126/5/2 129/5/2
f 129/5/2 126/5/2 130/5/2
f 127/5/2 128/5/2 131/5/2
f 131/5/2 128/5/2 132/5/2
f 133/3/2 134/3/2 135/3/2
f 135/3/2 134/3/2 136/3/2
f 137/1/2 138/1/2 139/1/2
f 139/1/2 138/1/2 140/1/2
f 141/4/2 142/4/2 143/4/2
f 143/4/2 142/4/2 144/4/2
f 145/4/2 146/4/2 147/4/2
f 147/4/2 146/4/2 148/4/2
f 149/4/2 150/4/2 151/4/2
f 151/4/2 150/4/2 152/4/2
f 159/4/3 154/4/3 153/4/3
f 160/4/3 154/4/3 159/4/3
f 161/4/3 156/4/3 155/4/3
f 162/4/3 156/4/3 161/4/3
f 163/4/3 158/4/3 157/4/3
f 164/4/3 158/4/3 163/4/3
f 169/3/3 166/3/3 165/3/3
f 170/3/3 166/3/3 169/3/3
f 171/1/3 168/1/3 167/1/3
f 172/1/3 168/1/3 171/1/3
f 175/5/3 174/5/3 173/5/3
f 176/5/3 174/5/3 175/5/3
f 179/5/3 178/5/3 177/5/3
f 180/5/3 178/5/3 179/5/3
f 183/5/3 182/5/3 181/5/3
f 184/5/3 182/5/3 183/5/3
f 187/5/3 186/5/3 185/5/3
f 188/5/3 186/5/3 187/5/3
f 192/6/3 190/6/3 189/6/3
f 193/1/3 191/1/3 190/1/3
f 193/6/3 190/6/3 192/6/3
f 194/1/3 191/1/3 193/1/3
f 198/6/3 196/6/3 195/6/3
f 199/1/3 197/1/3 196/1/3
f 199/6/3 196/6/3 198/6/3
f 200/1/3 197/1/3 199/1/3
f 201/6/4 202/6/4 204/6/4
f 202/1/4 203/1/4 205/1/4
f 204/6/4 202/6/4 205/6/4
f 205/1/4 203/1/4 206/1/4
f 207/6/4 208/6/4 210/6/4
f 208/1/4 209/1/4 211/1/4
f 210/6/4 208/6/4 211/6/4
f 211/1/4 209/1/4 212/1/4
f 213/5/4 214/5/4 215/5/4
f 215/5/4 214/5/4 216/5/4
f 217/5/4 218/5/4 219/5/4
f 219/5/4 218/5/4 220/5/4
f 221/5/4 222/5/4 223/5/4
f 223/5/4 222/5/4 224/5/4
f 225/5/4 226/5/4 227/5/4
f 227/5/4 226/5/4 228/5/4
f 231/1/4 232/1/4 233/1/4
f 233/1/4 232/1/4 234/1/4
f 231/1/4 233/1/4 235/1/4
f 234/1/4 232/1/4 236/1/4
f 231/1/4 235/1/4 237/1/4
f 235/1/4 236/1/4 237/1/4
f 237/1/4 236/1/4 238/1/4
f 238/1/4 236/1/4 239/1/4
f 239/1/4 236/1/4 240/1/4
f 236/1/4 232/1/4 241/1/4
f 240/1/4 236/1/4 241/1/4
f 241/1/4 232/1/4 242/1/4
f 231/1/4 237/1/4 243/1/4
f 238/1/4 239/1/4 244/1/4
f 244/1/4 239/1/4 245/1/4
f 240/1/4 241/1/4 246/1/4
f 246/1/4 241/1/4 247/1/4
f 242/1/4 232/1/4 248/1/4
f 246/1/4 247/1/4 249/1/4
f 247/1/4 248/1/4 249/1/4
f 244/1/4 245/1/4 249/1/4
f 231/1/4 243/1/4 249/1/4
f 245/1/4 246/1/4 249/1/4
f 243/1/4 244/1/4 249/1/4
f 249/1/4 248/1/4 250/1/4
f 250/1/4 248/1/4 251/1/4
f 251/1/4 248/1/4 252/1/4
f 252/1/4 248/1/4 253/1/4
f 248/1/4 232/1/4 254/1/4
f 253/1/4 248/1/4 254/1/4
f 231/1/4 249/1/4 255/1/4
f 250/1/4 251/1/4 256/1/4
f 256/1/4 251/1/4 257/1/4
f 252/1/4 253/1/4 258/1/4
f 258/1/4 253/1/4 259/1/4
f 254/1/4 232/1/4 260/1/4
f 229/3/4 230/3/4 261/3/4
f 261/3/4 230/3/4 262/3/4
f 259/1/4 260/1/4 263/1/4
f 256/1/4 257/1/4 263/1/4
f 258/1/4 259/1/4 263/1/4
f 231/1/4 255/1/4 263/1/4
f 255/1/4 256/1/4 263/1/4
f 257/1/4 258/1/4 263/1/4
f 260/1/4 232/1/4 264/1/4
f 263/1/4 260/1/4 264/1/4
f 271/2/4 272/2/4 273/2/4
f 273/2/4 272/2/4 274/2/4
f 275/2/4 276/2/4 281/2/4
f 281/2/4 276/2/4 282/2/4
f 277/2/4 278/2/4 283/2/4
f 283/2/4 278/2/4 284/2/4
f 279/2/4 280/2/4 285/2/4
f 285/2/4 280/2/4 286/2/4
f 287/2/4 288/2/4 293/2/4
f 293/2/4 288/2/4 294/2/4
f 289/2/4 290/2/4 295/2/4
f 295/2/4 290/2/4 296/2/4
f 291/2/4 292/2/4 297/2/4
f 297/2/4 292/2/4 298/2/4
f 265/4/4 266/4/4 299/4/4
f 299/4/4 266/4/4 300/4/4
f 267/4/4 268/4/4 301/4/4
f 301/4/4 268/4/4 302/4/4
f 269/4/4 270/4/4 303/4/4
f 303/4/4 270/4/4 304/4/4
f 309/5/5 306/5/5 305/5/5
f 310/5/5 306/5/5 309/5/5
f 311/5/5 308/5/5 307/5/5
f 312/5/5 308/5/5 311/5/5
f 317/5/5 314/5/5 313/5/5
f 318/5/5 314/5/5 317/5/5
f 319/5/5 316/5/5 315/5/5
f 320/5/5 316/5/5 319/5/5
f 323/4/5 322/4/5 321/4/5
f 324/4/5 322/4/5 323/4/5
f 325/4/5 322/4/5 324/4/5
f 326/4/5 322/4/5 325/4/5
f 327/4/5 323/4/5 321/4/5
f 328/4/5 325/4/5 324/4/5
f 329/4/5 325/4/5 328/4/5
f 330/4/5 322/4/5 326/4/5
f 331/4/5 329/4/5 328/4/5
f 331/4/5 330/4/5 329/4/5
f 331/4/5 327/4/5 321/4/5
f 331/4/5 328/4/5 327/4/5
f 332/4/5 330/4/5 331/4/5
f 333/4/5 330/4/5 332/4/5
f 334/4/5 322/4/5 330/4/5
f 334/4/5 330/4/5 333/4/5
f 335/4/5 331/4/5 321/4/5
f 336/4/5 333/4/5 332/4/5
f 337/4/5 333/4/5 336/4/5
f 338/4/5 322/4/5 334/4/5
f 339/4/5 335/4/5 321/4/5
f 339/4/5 338/4/5 337/4/5
f 339/4/5 337/4/5 336/4/5
f 339/4/5 336/4/5 335/4/5
f 340/4/5 322/4/5 338/4/5
f 340/4/5 338/4/5 339/4/5
f 343/4/5 342/4/5 341/4/5
f 344/4/5 342/4/5 343/4/5
f 345/4/5 343/4/5 341/4/5
f 346/4/5 342/4/5 344/4/5
f 347/4/5 345/4/5 341/4/5
f 347/4/5 346/4/5 345/4/5
f 348/4/5 342/4/5 346/4/5
f 348/4/5 346/4/5 347/4/5
f 355/2/5 350/2/5 349/2/5
f 356/2/5 350/2/5 355/2/5
f 357/2/5 352/2/5 351/2/5
f 358/2/5 352/2/5 357/2/5
f 359/2/5 354/2/5 353/2/5
f 360/2/5 354/2/5 359/2/5
f 365/2/5 362/2/5 361/2/5
f 366/2/5 362/2/5 365/2/5
f 367/2/5 364/2/5 363/2/5
f 368/2/5 364/2/5 367/2/5
f 373/2/5 370/2/5 369/2/5
f 374/2/5 370/2/5 373/2/5
f 375/2/5 372/2/5 371/2/5
f 376/2/5 372/2/5 375/2/5
f 379/4/5 378/4/5 377/4/5
f 380/4/5 378/4/5 379/4/5
f 381/4/5 379/4/5 377/4/5
f 382/4/5 378/4/5 380/4/5
f 383/4/5 381/4/5 377/4/5
f 383/4/5 382/4/5 381/4/5
f 384/4/5 378/4/5 382/4/5
f 384/4/5 382/4/5 383/4/5
f 385/4/6 386/4/6 387/4/6
f 387/4/6 386/4/6 388/4/6
f 385/4/6 387/4/6 389/4/6
f 388/4/6 386/4/6 390/4/6
f 385/4/6 389/4/6 391/4/6
f 389/4/6 390/4/6 391/4/6
f 390/4/6 386/4/6 392/4/6
f 391/4/6 390/4/6 392/4/6
f 393/4/6 394/4/6 395/4/6
f 395/4/6 394/4/6 396/4/6
f 393/4/6 395/4/6 397/4/6
f 396/4/6 394/4/6 398/4/6
f 393/4/6 397/4/6 399/4/6
f 397/4/6 398/4/6 399/4/6
f 398/4/6 394/4/6 400/4/6
f 399/4/6 398/4/6 400/4/6
f 401/2/6 402/2/6 405/2/6
f 405/2/6 402/2/6 406/2/6
f 403/2/6 404/2/6 407/2/6
f 407/2/6 404/2/6 408/2/6
f 409/2/6 410/2/6 413/2/6
f 413/2/6 410/2/6 414/2/6
f 411/2/6 412/2/6 415/2/6
f 415/2/6 412/2/6 416/2/6
f 417/2/6 418/2/6 419/2/6
f 419/2/6 418/2/6 420/2/6
f 421/6/6 422/6/6 425/6/6
f 425/6/6 422/6/6 426/6/6
f 423/6/6 424/6/6 427/6/6
f 427/6/6 424/6/6 428/6/6
f 429/2/6 430/2/6 433/2/6
f 433/2/6 430/2/6 434/2/6
f 431/2/6 432/2/6 435/2/6
f 435/2/6 432/2/6 436/2/6
f 437/4/6 438/4/6 439/4/6
f 439/4/6 438/4/6 440/4/6
f 439/1/6 440/1/6 441/1/6
f 441/1/6 440/1/6 442/1/6
f 442/1/6 440/1/6 443/1/6
f 443/1/6 440/1/6 444/1/6
f 439/1/6 441/1/6 445/1/6
f 442/1/6 443/1/6 446/1/6
f 446/1/6 443/1/6 447/1/6
f 444/1/6 440/1/6 448/1/6
f 437/4/6 439/4/6 449/4/6
f 447/1/6 448/1/6 449/1/6
f 446/1/6 447/1/6 449/1/6
f 439/1/6 445/1/6 449/1/6
f 445/1/6 446/1/6 449/1/6
f 448/1/6 440/1/6 450/1/6
f 449/1/6 448/1/6 450/1/6
f 440/4/6 438/4/6 450/4/6
f 437/4/6 449/4/6 451/4/6
f 449/4/6 450/4/6 451/4/6
f 450/4/6 438/4/6 452/4/6
f 451/4/6 450/4/6 452/4/6
