# MagicaVoxel @ Ephtracy

# group
o 

# material
mtllib floor.mtl
usemtl palette

# normals
vn -1 0 0
vn 1 0 0
vn 0 0 1
vn 0 0 -1
vn 0 -1 0
vn 0 1 0

# texcoords
vt 0.00585938 0.5
vt 0.00976562 0.5
vt 0.0136719 0.5
vt 0.0175781 0.5
vt 0.0214844 0.5

# verts
v 0.2 0 1
v 0.2 0 0.6
v 0.2 0 0.2
v 0.2 0 -0.1
v 0.2 0 -0.4
v 0.2 0.1 1
v 0.2 0.1 0.6
v 0.2 0.1 0.2
v 0.2 0.1 -0.1
v 0.2 0.1 -0.4
v 1 0 1
v 1 0 0.8
v 1 0 0
v 1 0 -0.3
v 1 0 -0.4
v 1 0.1 1
v 1 0.1 0.8
v 1 0.1 0
v 1 0.1 -0.3
v 1 0.1 -0.4
v 0.2 0 1
v 0.2 0.1 1
v 0.3 0 1
v 0.3 0.1 1
v 0.4 0 1
v 0.4 0.1 1
v 0.5 0 1
v 0.5 0.1 1
v 0.6 0 1
v 0.6 0.1 1
v 0.7 0 1
v 0.7 0.1 1
v 0.8 0 1
v 0.8 0.1 1
v 0.9 0 1
v 0.9 0.1 1
v 1 0 1
v 1 0.1 1
v 0.2 0 -0.4
v 0.2 0.1 -0.4
v 0.3 0 -0.4
v 0.3 0.1 -0.4
v 0.4 0 -0.4
v 0.4 0.1 -0.4
v 0.5 0 -0.4
v 0.5 0.1 -0.4
v 0.6 0 -0.4
v 0.6 0.1 -0.4
v 0.7 0 -0.4
v 0.7 0.1 -0.4
v 0.8 0 -0.4
v 0.8 0.1 -0.4
v 0.9 0 -0.4
v 0.9 0.1 -0.4
v 1 0 -0.4
v 1 0.1 -0.4
v 0.2 0 1
v 0.3 0 1
v 0.4 0 1
v 0.5 0 1
v 0.6 0 1
v 0.7 0 1
v 0.8 0 1
v 0.9 0 1
v 1 0 1
v 0.6 0 0.8
v 0.7 0 0.8
v 0.9 0 0.8
v 1 0 0.8
v 0.4 0 0.7
v 0.5 0 0.7
v 0.7 0 0.7
v 0.8 0 0.7
v 0.2 0 0.6
v 0.3 0 0.6
v 0.4 0 0.6
v 0.8 0 0.6
v 0.9 0 0.6
v 0.3 0 0.3
v 0.4 0 0.3
v 0.5 0 0.3
v 0.6 0 0.3
v 0.7 0 0.3
v 0.2 0 0.2
v 0.3 0 0.2
v 0.7 0 0.2
v 0.8 0 0.2
v 0.4 0 0.1
v 0.5 0 0.1
v 0.8 0 0.1
v 0.9 0 0.1
v 0.9 0 0
v 1 0 0
v 0.2 0 -0.1
v 0.3 0 -0.1
v 0.5 0 -0.1
v 0.6 0 -0.1
v 0.3 0 -0.2
v 0.4 0 -0.2
v 0.7 0 -0.2
v 0.8 0 -0.2
v 0.9 0 -0.2
v 0.9 0 -0.3
v 1 0 -0.3
v 0.2 0 -0.4
v 0.3 0 -0.4
v 0.4 0 -0.4
v 0.5 0 -0.4
v 0.6 0 -0.4
v 0.7 0 -0.4
v 0.8 0 -0.4
v 0.9 0 -0.4
v 1 0 -0.4
v 0.2 0.1 1
v 0.3 0.1 1
v 0.4 0.1 1
v 0.5 0.1 1
v 0.6 0.1 1
v 0.7 0.1 1
v 0.8 0.1 1
v 0.9 0.1 1
v 1 0.1 1
v 0.6 0.1 0.8
v 0.7 0.1 0.8
v 0.9 0.1 0.8
v 1 0.1 0.8
v 0.4 0.1 0.7
v 0.5 0.1 0.7
v 0.7 0.1 0.7
v 0.8 0.1 0.7
v 0.2 0.1 0.6
v 0.3 0.1 0.6
v 0.4 0.1 0.6
v 0.8 0.1 0.6
v 0.9 0.1 0.6
v 0.3 0.1 0.3
v 0.4 0.1 0.3
v 0.5 0.1 0.3
v 0.6 0.1 0.3
v 0.7 0.1 0.3
v 0.2 0.1 0.2
v 0.3 0.1 0.2
v 0.7 0.1 0.2
v 0.8 0.1 0.2
v 0.4 0.1 0.1
v 0.5 0.1 0.1
v 0.8 0.1 0.1
v 0.9 0.1 0.1
v 0.9 0.1 0
v 1 0.1 0
v 0.2 0.1 -0.1
v 0.3 0.1 -0.1
v 0.5 0.1 -0.1
v 0.6 0.1 -0.1
v 0.3 0.1 -0.2
v 0.4 0.1 -0.2
v 0.7 0.1 -0.2
v 0.8 0.1 -0.2
v 0.9 0.1 -0.2
v 0.9 0.1 -0.3
v 1 0.1 -0.3
v 0.2 0.1 -0.4
v 0.3 0.1 -0.4
v 0.4 0.1 -0.4
v 0.5 0.1 -0.4
v 0.6 0.1 -0.4
v 0.7 0.1 -0.4
v 0.8 0.1 -0.4
v 0.9 0.1 -0.4
v 1 0.1 -0.4

# faces
f 6/5/1 2/5/1 1/5/1
f 7/3/1 3/3/1 2/3/1
f 7/5/1 2/5/1 6/5/1
f 8/1/1 4/1/1 3/1/1
f 8/3/1 3/3/1 7/3/1
f 9/4/1 5/4/1 4/4/1
f 9/1/1 4/1/1 8/1/1
f 10/4/1 5/4/1 9/4/1
f 11/5/2 12/5/2 16/5/2
f 12/3/2 13/3/2 17/3/2
f 16/5/2 12/5/2 17/5/2
f 13/4/2 14/4/2 18/4/2
f 17/3/2 13/3/2 18/3/2
f 14/5/2 15/5/2 19/5/2
f 18/4/2 14/4/2 19/4/2
f 19/5/2 15/5/2 20/5/2
f 23/5/3 22/5/3 21/5/3
f 24/5/3 22/5/3 23/5/3
f 25/3/3 24/3/3 23/3/3
f 26/3/3 24/3/3 25/3/3
f 27/4/3 26/4/3 25/4/3
f 28/4/3 26/4/3 27/4/3
f 29/3/3 28/3/3 27/3/3
f 30/3/3 28/3/3 29/3/3
f 31/5/3 30/5/3 29/5/3
f 32/5/3 30/5/3 31/5/3
f 33/4/3 32/4/3 31/4/3
f 34/4/3 32/4/3 33/4/3
f 35/1/3 34/1/3 33/1/3
f 36/1/3 34/1/3 35/1/3
f 37/5/3 36/5/3 35/5/3
f 38/5/3 36/5/3 37/5/3
f 39/4/4 40/4/4 41/4/4
f 41/4/4 40/4/4 42/4/4
f 41/2/4 42/2/4 43/2/4
f 43/2/4 42/2/4 44/2/4
f 43/3/4 44/3/4 45/3/4
f 45/3/4 44/3/4 46/3/4
f 45/5/4 46/5/4 47/5/4
f 47/5/4 46/5/4 48/5/4
f 47/3/4 48/3/4 49/3/4
f 49/3/4 48/3/4 50/3/4
f 49/4/4 50/4/4 51/4/4
f 51/4/4 50/4/4 52/4/4
f 51/3/4 52/3/4 53/3/4
f 53/3/4 52/3/4 54/3/4
f 53/5/4 54/5/4 55/5/4
f 55/5/4 54/5/4 56/5/4
f 66/3/5 61/3/5 60/3/5
f 66/5/5 62/5/5 61/5/5
f 67/4/5 63/4/5 62/4/5
f 67/5/5 62/5/5 66/5/5
f 68/5/5 65/5/5 64/5/5
f 68/1/5 64/1/5 63/1/5
f 69/5/5 65/5/5 68/5/5
f 70/3/5 59/3/5 58/3/5
f 70/4/5 60/4/5 59/4/5
f 71/3/5 66/3/5 60/3/5
f 71/4/5 60/4/5 70/4/5
f 72/4/5 63/4/5 67/4/5
f 72/1/5 67/1/5 66/1/5
f 73/1/5 68/1/5 63/1/5
f 73/4/5 63/4/5 72/4/5
f 74/5/5 58/5/5 57/5/5
f 75/3/5 70/3/5 58/3/5
f 75/5/5 58/5/5 74/5/5
f 76/1/5 71/1/5 70/1/5
f 76/3/5 70/3/5 75/3/5
f 77/1/5 68/1/5 73/1/5
f 77/5/5 73/5/5 72/5/5
f 78/3/5 69/3/5 68/3/5
f 78/1/5 68/1/5 77/1/5
f 79/3/5 75/3/5 74/3/5
f 79/4/5 76/4/5 75/4/5
f 80/1/5 71/1/5 76/1/5
f 80/4/5 76/4/5 79/4/5
f 81/3/5 66/3/5 71/3/5
f 81/1/5 71/1/5 80/1/5
f 82/1/5 72/1/5 66/1/5
f 82/3/5 66/3/5 81/3/5
f 83/5/5 77/5/5 72/5/5
f 83/1/5 72/1/5 82/1/5
f 84/3/5 79/3/5 74/3/5
f 85/5/5 80/5/5 79/5/5
f 85/3/5 79/3/5 84/3/5
f 86/5/5 77/5/5 83/5/5
f 86/3/5 83/3/5 82/3/5
f 87/2/5 78/2/5 77/2/5
f 87/5/5 77/5/5 86/5/5
f 88/5/5 80/5/5 85/5/5
f 88/1/5 81/1/5 80/1/5
f 89/2/5 82/2/5 81/2/5
f 89/1/5 81/1/5 88/1/5
f 90/2/5 78/2/5 87/2/5
f 90/1/5 87/1/5 86/1/5
f 91/3/5 69/3/5 78/3/5
f 91/2/5 78/2/5 90/2/5
f 92/5/5 91/5/5 90/5/5
f 92/3/5 69/3/5 91/3/5
f 93/3/5 69/3/5 92/3/5
f 94/1/5 85/1/5 84/1/5
f 95/5/5 88/5/5 85/5/5
f 95/1/5 85/1/5 94/1/5
f 96/2/5 82/2/5 89/2/5
f 96/3/5 89/3/5 88/3/5
f 97/3/5 86/3/5 82/3/5
f 97/2/5 82/2/5 96/2/5
f 98/5/5 88/5/5 95/5/5
f 98/4/5 95/4/5 94/4/5
f 99/3/5 96/3/5 88/3/5
f 99/5/5 88/5/5 98/5/5
f 100/3/5 86/3/5 97/3/5
f 100/1/5 90/1/5 86/1/5
f 101/5/5 92/5/5 90/5/5
f 101/1/5 90/1/5 100/1/5
f 102/4/5 93/4/5 92/4/5
f 102/5/5 92/5/5 101/5/5
f 103/3/5 102/3/5 101/3/5
f 103/4/5 93/4/5 102/4/5
f 104/4/5 93/4/5 103/4/5
f 105/4/5 98/4/5 94/4/5
f 106/2/5 99/2/5 98/2/5
f 106/4/5 98/4/5 105/4/5
f 107/3/5 96/3/5 99/3/5
f 107/2/5 99/2/5 106/2/5
f 108/5/5 97/5/5 96/5/5
f 108/3/5 96/3/5 107/3/5
f 109/3/5 100/3/5 97/3/5
f 109/5/5 97/5/5 108/5/5
f 110/4/5 101/4/5 100/4/5
f 110/3/5 100/3/5 109/3/5
f 111/3/5 103/3/5 101/3/5
f 111/4/5 101/4/5 110/4/5
f 112/5/5 104/5/5 103/5/5
f 112/3/5 103/3/5 111/3/5
f 113/5/5 104/5/5 112/5/5
f 117/3/6 118/3/6 123/3/6
f 118/5/6 119/5/6 123/5/6
f 119/4/6 120/4/6 124/4/6
f 123/5/6 119/5/6 124/5/6
f 121/5/6 122/5/6 125/5/6
f 120/1/6 121/1/6 125/1/6
f 125/5/6 122/5/6 126/5/6
f 115/3/6 116/3/6 127/3/6
f 116/4/6 117/4/6 127/4/6
f 117/3/6 123/3/6 128/3/6
f 127/4/6 117/4/6 128/4/6
f 124/4/6 120/4/6 129/4/6
f 123/1/6 124/1/6 129/1/6
f 120/1/6 125/1/6 130/1/6
f 129/4/6 120/4/6 130/4/6
f 114/5/6 115/5/6 131/5/6
f 115/3/6 127/3/6 132/3/6
f 131/5/6 115/5/6 132/5/6
f 127/1/6 128/1/6 133/1/6
f 132/3/6 127/3/6 133/3/6
f 130/1/6 125/1/6 134/1/6
f 129/5/6 130/5/6 134/5/6
f 125/3/6 126/3/6 135/3/6
f 134/1/6 125/1/6 135/1/6
f 131/3/6 132/3/6 136/3/6
f 132/4/6 133/4/6 136/4/6
f 133/1/6 128/1/6 137/1/6
f 136/4/6 133/4/6 137/4/6
f 128/3/6 123/3/6 138/3/6
f 137/1/6 128/1/6 138/1/6
f 123/1/6 129/1/6 139/1/6
f 138/3/6 123/3/6 139/3/6
f 129/5/6 134/5/6 140/5/6
f 139/1/6 129/1/6 140/1/6
f 131/3/6 136/3/6 141/3/6
f 136/5/6 137/5/6 142/5/6
f 141/3/6 136/3/6 142/3/6
f 140/5/6 134/5/6 143/5/6
f 139/3/6 140/3/6 143/3/6
f 134/2/6 135/2/6 144/2/6
f 143/5/6 134/5/6 144/5/6
f 142/5/6 137/5/6 145/5/6
f 137/1/6 138/1/6 145/1/6
f 138/2/6 139/2/6 146/2/6
f 145/1/6 138/1/6 146/1/6
f 144/2/6 135/2/6 147/2/6
f 143/1/6 144/1/6 147/1/6
f 135/3/6 126/3/6 148/3/6
f 147/2/6 135/2/6 148/2/6
f 147/5/6 148/5/6 149/5/6
f 148/3/6 126/3/6 149/3/6
f 149/3/6 126/3/6 150/3/6
f 141/1/6 142/1/6 151/1/6
f 142/5/6 145/5/6 152/5/6
f 151/1/6 142/1/6 152/1/6
f 146/2/6 139/2/6 153/2/6
f 145/3/6 146/3/6 153/3/6
f 139/3/6 143/3/6 154/3/6
f 153/2/6 139/2/6 154/2/6
f 152/5/6 145/5/6 155/5/6
f 151/4/6 152/4/6 155/4/6
f 145/3/6 153/3/6 156/3/6
f 155/5/6 145/5/6 156/5/6
f 154/3/6 143/3/6 157/3/6
f 143/1/6 147/1/6 157/1/6
f 147/5/6 149/5/6 158/5/6
f 157/1/6 147/1/6 158/1/6
f 149/4/6 150/4/6 159/4/6
f 158/5/6 149/5/6 159/5/6
f 158/3/6 159/3/6 160/3/6
f 159/4/6 150/4/6 160/4/6
f 160/4/6 150/4/6 161/4/6
f 151/4/6 155/4/6 162/4/6
f 155/2/6 156/2/6 163/2/6
f 162/4/6 155/4/6 163/4/6
f 156/3/6 153/3/6 164/3/6
f 163/2/6 156/2/6 164/2/6
f 153/5/6 154/5/6 165/5/6
f 164/3/6 153/3/6 165/3/6
f 154/3/6 157/3/6 166/3/6
f 165/5/6 154/5/6 166/5/6
f 157/4/6 158/4/6 167/4/6
f 166/3/6 157/3/6 167/3/6
f 158/3/6 160/3/6 168/3/6
f 167/4/6 158/4/6 168/4/6
f 160/5/6 161/5/6 169/5/6
f 168/3/6 160/3/6 169/3/6
f 169/5/6 161/5/6 170/5/6
