# MagicaVoxel @ Ephtracy

# group
o 

# material
mtllib Flowers1.mtl
usemtl palette

# normals
vn -1 0 0
vn 1 0 0
vn 0 0 1
vn 0 0 -1
vn 0 -1 0
vn 0 1 0

# texcoords
vt 0.626953 0.5
vt 0.630859 0.5
vt 0.775391 0.5
vt 0.779297 0.5

# verts
v -0.4 0.3 0.4
v -0.4 0.3 0.1
v -0.4 0.5 0.4
v -0.4 0.5 0.1
v -0.3 0 0.4
v -0.3 0 0.1
v -0.3 0.3 0.5
v -0.3 0.3 0.4
v -0.3 0.3 0.1
v -0.3 0.3 5.96046e-08
v -0.3 0.5 0.5
v -0.3 0.5 0.4
v -0.3 0.5 0.1
v -0.3 0.5 5.96046e-08
v -0.2 0 0.5
v -0.2 0 0.4
v -0.2 0 0.1
v -0.2 0 5.96046e-08
v -0.2 0.3 0.6
v -0.2 0.3 0.5
v -0.2 0.3 0.4
v -0.2 0.3 0.1
v -0.2 0.3 5.96046e-08
v -0.2 0.3 -0.1
v -0.2 0.5 0.6
v -0.2 0.5 0.5
v -0.2 0.5 0.4
v -0.2 0.5 0.1
v -0.2 0.5 5.96046e-08
v -0.2 0.5 -0.1
v -0.2 0.9 0.4
v -0.2 0.9 0.3
v -0.2 1 0.4
v -0.2 1 0.3
v -0.2 1.1 0.4
v -0.2 1.1 0.3
v -0.2 1.1 0.2
v -0.2 1.1 0.1
v -0.2 1.2 0.3
v -0.2 1.2 0.2
v -0.1 1.1 0.4
v -0.1 1.1 0.3
v -0.1 1.1 0.2
v -0.1 1.1 0.1
v -0.1 1.2 0.4
v -0.1 1.2 0.3
v -0.1 1.2 0.2
v -0.1 1.2 0.1
v 0.1 0.3 0.5
v 0.1 0.3 0.4
v 0.1 0.3 0.1
v 0.1 0.3 5.96046e-08
v 0.1 0.5 0.5
v 0.1 0.5 0.4
v 0.1 0.5 0.1
v 0.1 0.5 5.96046e-08
v 0.2 0.3 0.4
v 0.2 0.3 0.1
v 0.2 0.5 0.4
v 0.2 0.5 0.1
v -0.3 0.3 0.4
v -0.3 0.3 0.1
v -0.3 0.5 0.4
v -0.3 0.5 0.1
v -0.2 0.3 0.5
v -0.2 0.3 0.4
v -0.2 0.3 0.1
v -0.2 0.3 5.96046e-08
v -0.2 0.5 0.5
v -0.2 0.5 0.4
v -0.2 0.5 0.1
v -0.2 0.5 5.96046e-08
v 0 1.1 0.4
v 0 1.1 0.3
v 0 1.1 0.2
v 0 1.1 0.1
v 0 1.2 0.4
v 0 1.2 0.3
v 0 1.2 0.2
v 0 1.2 0.1
v 0.1 0 0.5
v 0.1 0 0.4
v 0.1 0 0.1
v 0.1 0 5.96046e-08
v 0.1 0.3 0.6
v 0.1 0.3 0.5
v 0.1 0.3 0.4
v 0.1 0.3 0.1
v 0.1 0.3 5.96046e-08
v 0.1 0.3 -0.1
v 0.1 0.4 0.3
v 0.1 0.4 0.2
v 0.1 0.5 0.6
v 0.1 0.5 0.5
v 0.1 0.5 0.4
v 0.1 0.5 0.3
v 0.1 0.5 0.2
v 0.1 0.5 0.1
v 0.1 0.5 5.96046e-08
v 0.1 0.5 -0.1
v 0.1 0.6 0.4
v 0.1 0.6 0.3
v 0.1 0.6 0.2
v 0.1 0.6 0.1
v 0.1 0.7 0.4
v 0.1 0.7 0.3
v 0.1 0.7 0.2
v 0.1 0.8 0.3
v 0.1 0.8 0.2
v 0.1 1 0.3
v 0.1 1 0.2
v 0.1 1.1 0.4
v 0.1 1.1 0.3
v 0.1 1.1 0.2
v 0.1 1.1 0.1
v 0.1 1.2 0.3
v 0.1 1.2 0.2
v 0.2 0 0.4
v 0.2 0 0.1
v 0.2 0.3 0.5
v 0.2 0.3 0.4
v 0.2 0.3 0.1
v 0.2 0.3 5.96046e-08
v 0.2 0.5 0.5
v 0.2 0.5 0.4
v 0.2 0.5 0.1
v 0.2 0.5 5.96046e-08
v 0.3 0.3 0.4
v 0.3 0.3 0.1
v 0.3 0.5 0.4
v 0.3 0.5 0.1
v -0.2 0.3 0.6
v -0.2 0.5 0.6
v 0.1 0.3 0.6
v 0.1 0.5 0.6
v -0.3 0.3 0.5
v -0.3 0.5 0.5
v -0.2 0 0.5
v -0.2 0.3 0.5
v -0.2 0.5 0.5
v 0.1 0 0.5
v 0.1 0.3 0.5
v 0.1 0.5 0.5
v 0.2 0.3 0.5
v 0.2 0.5 0.5
v -0.4 0.3 0.4
v -0.4 0.5 0.4
v -0.3 0 0.4
v -0.3 0.3 0.4
v -0.3 0.5 0.4
v -0.2 0 0.4
v -0.2 0.3 0.4
v -0.2 0.5 0.4
v -0.2 0.9 0.4
v -0.2 1 0.4
v -0.2 1.1 0.4
v -0.1 0.4 0.4
v -0.1 0.5 0.4
v -0.1 0.8 0.4
v -0.1 0.9 0.4
v -0.1 1 0.4
v -0.1 1.1 0.4
v -0.1 1.2 0.4
v 0 0.4 0.4
v 0 0.5 0.4
v 0 0.6 0.4
v 0 0.7 0.4
v 0 0.8 0.4
v 0 0.9 0.4
v 0 1.1 0.4
v 0 1.2 0.4
v 0.1 0 0.4
v 0.1 0.3 0.4
v 0.1 0.5 0.4
v 0.1 0.6 0.4
v 0.1 0.7 0.4
v 0.1 1.1 0.4
v 0.2 0 0.4
v 0.2 0.3 0.4
v 0.2 0.5 0.4
v 0.3 0.3 0.4
v 0.3 0.5 0.4
v -0.2 1.1 0.3
v -0.2 1.2 0.3
v -0.1 1.1 0.3
v -0.1 1.2 0.3
v 0 1.1 0.3
v 0 1.2 0.3
v 0.1 1.1 0.3
v 0.1 1.2 0.3
v -0.3 0.3 0.1
v -0.3 0.5 0.1
v -0.2 0.3 0.1
v -0.2 0.5 0.1
v 0.1 0.3 0.1
v 0.1 0.5 0.1
v 0.2 0.3 0.1
v 0.2 0.5 0.1
v -0.2 0.3 5.96046e-08
v -0.2 0.5 5.96046e-08
v 0.1 0.3 5.96046e-08
v 0.1 0.5 5.96046e-08
v -0.2 0.3 0.5
v -0.2 0.5 0.5
v 0.1 0.3 0.5
v 0.1 0.5 0.5
v -0.3 0.3 0.4
v -0.3 0.5 0.4
v -0.2 0.3 0.4
v -0.2 0.5 0.4
v 0.1 0.3 0.4
v 0.1 0.5 0.4
v 0.2 0.3 0.4
v 0.2 0.5 0.4
v -0.2 1.1 0.2
v -0.2 1.2 0.2
v -0.1 1.1 0.2
v -0.1 1.2 0.2
v 0 1.1 0.2
v 0 1.2 0.2
v 0.1 1.1 0.2
v 0.1 1.2 0.2
v -0.4 0.3 0.1
v -0.4 0.5 0.1
v -0.3 0 0.1
v -0.3 0.3 0.1
v -0.3 0.5 0.1
v -0.2 0 0.1
v -0.2 0.3 0.1
v -0.2 0.5 0.1
v -0.2 1.1 0.1
v -0.1 1.1 0.1
v -0.1 1.2 0.1
v 0 0.5 0.1
v 0 0.6 0.1
v 0 1.1 0.1
v 0 1.2 0.1
v 0.1 0 0.1
v 0.1 0.3 0.1
v 0.1 0.5 0.1
v 0.1 0.6 0.1
v 0.1 1.1 0.1
v 0.2 0 0.1
v 0.2 0.3 0.1
v 0.2 0.5 0.1
v 0.3 0.3 0.1
v 0.3 0.5 0.1
v -0.3 0.3 5.96046e-08
v -0.3 0.5 5.96046e-08
v -0.2 0 5.96046e-08
v -0.2 0.3 5.96046e-08
v -0.2 0.5 5.96046e-08
v 0.1 0 5.96046e-08
v 0.1 0.3 5.96046e-08
v 0.1 0.5 5.96046e-08
v 0.2 0.3 5.96046e-08
v 0.2 0.5 5.96046e-08
v -0.2 0.3 -0.1
v -0.2 0.5 -0.1
v 0.1 0.3 -0.1
v 0.1 0.5 -0.1
v -0.2 0 0.5
v 0.1 0 0.5
v -0.3 0 0.4
v -0.2 0 0.4
v 0.1 0 0.4
v 0.2 0 0.4
v -0.3 0 0.1
v -0.2 0 0.1
v 0.1 0 0.1
v 0.2 0 0.1
v -0.2 0 5.96046e-08
v 0.1 0 5.96046e-08
v -0.2 0.3 0.6
v 0.1 0.3 0.6
v -0.3 0.3 0.5
v -0.2 0.3 0.5
v 0.1 0.3 0.5
v 0.2 0.3 0.5
v -0.4 0.3 0.4
v -0.3 0.3 0.4
v -0.2 0.3 0.4
v 0.1 0.3 0.4
v 0.2 0.3 0.4
v 0.3 0.3 0.4
v -0.4 0.3 0.1
v -0.3 0.3 0.1
v -0.2 0.3 0.1
v 0.1 0.3 0.1
v 0.2 0.3 0.1
v 0.3 0.3 0.1
v -0.3 0.3 5.96046e-08
v -0.2 0.3 5.96046e-08
v 0.1 0.3 5.96046e-08
v 0.2 0.3 5.96046e-08
v -0.2 0.3 -0.1
v 0.1 0.3 -0.1
v -0.2 0.3 0.5
v 0.1 0.3 0.5
v -0.3 0.3 0.4
v -0.2 0.3 0.4
v 0.1 0.3 0.4
v 0.2 0.3 0.4
v -0.3 0.3 0.1
v -0.2 0.3 0.1
v 0.1 0.3 0.1
v 0.2 0.3 0.1
v -0.2 0.3 5.96046e-08
v 0.1 0.3 5.96046e-08
v -0.2 0.5 0.6
v 0.1 0.5 0.6
v -0.3 0.5 0.5
v -0.2 0.5 0.5
v 0.1 0.5 0.5
v 0.2 0.5 0.5
v -0.4 0.5 0.4
v -0.3 0.5 0.4
v -0.2 0.5 0.4
v 0.1 0.5 0.4
v 0.2 0.5 0.4
v 0.3 0.5 0.4
v -0.4 0.5 0.1
v -0.3 0.5 0.1
v -0.2 0.5 0.1
v 0.1 0.5 0.1
v 0.2 0.5 0.1
v 0.3 0.5 0.1
v -0.3 0.5 5.96046e-08
v -0.2 0.5 5.96046e-08
v 0.1 0.5 5.96046e-08
v 0.2 0.5 5.96046e-08
v -0.2 0.5 -0.1
v 0.1 0.5 -0.1
v -0.2 1.1 0.4
v -0.1 1.1 0.4
v 0 1.1 0.4
v 0.1 1.1 0.4
v -0.2 1.1 0.3
v -0.1 1.1 0.3
v 0 1.1 0.3
v 0.1 1.1 0.3
v -0.2 1.1 0.2
v -0.1 1.1 0.2
v 0 1.1 0.2
v 0.1 1.1 0.2
v -0.2 1.1 0.1
v -0.1 1.1 0.1
v 0 1.1 0.1
v 0.1 1.1 0.1
v -0.1 1.2 0.4
v 0 1.2 0.4
v -0.2 1.2 0.3
v -0.1 1.2 0.3
v 0 1.2 0.3
v 0.1 1.2 0.3
v -0.2 1.2 0.2
v -0.1 1.2 0.2
v 0 1.2 0.2
v 0.1 1.2 0.2
v -0.1 1.2 0.1
v 0 1.2 0.1

# faces
f 3/3/1 2/3/1 1/3/1
f 4/3/1 2/3/1 3/3/1
f 8/4/1 6/4/1 5/4/1
f 9/4/1 6/4/1 8/4/1
f 11/3/1 8/3/1 7/3/1
f 12/3/1 8/3/1 11/3/1
f 13/3/1 10/3/1 9/3/1
f 14/3/1 10/3/1 13/3/1
f 20/4/1 16/4/1 15/4/1
f 21/4/1 16/4/1 20/4/1
f 22/4/1 18/4/1 17/4/1
f 23/4/1 18/4/1 22/4/1
f 25/3/1 20/3/1 19/3/1
f 26/3/1 20/3/1 25/3/1
f 27/1/1 22/1/1 21/1/1
f 28/1/1 22/1/1 27/1/1
f 29/3/1 24/3/1 23/3/1
f 30/3/1 24/3/1 29/3/1
f 31/1/1 28/1/1 27/1/1
f 32/1/1 28/1/1 31/1/1
f 33/2/1 32/2/1 31/2/1
f 34/1/1 28/1/1 32/1/1
f 34/2/1 32/2/1 33/2/1
f 35/1/1 34/1/1 33/1/1
f 36/1/1 28/1/1 34/1/1
f 36/1/1 34/1/1 35/1/1
f 37/1/1 28/1/1 36/1/1
f 38/1/1 28/1/1 37/1/1
f 39/1/1 37/1/1 36/1/1
f 40/1/1 37/1/1 39/1/1
f 45/1/1 42/1/1 41/1/1
f 46/1/1 42/1/1 45/1/1
f 47/1/1 44/1/1 43/1/1
f 48/1/1 44/1/1 47/1/1
f 53/3/1 50/3/1 49/3/1
f 54/3/1 50/3/1 53/3/1
f 55/3/1 52/3/1 51/3/1
f 56/3/1 52/3/1 55/3/1
f 59/3/1 58/3/1 57/3/1
f 60/3/1 58/3/1 59/3/1
f 61/3/2 62/3/2 63/3/2
f 63/3/2 62/3/2 64/3/2
f 65/3/2 66/3/2 69/3/2
f 69/3/2 66/3/2 70/3/2
f 67/3/2 68/3/2 71/3/2
f 71/3/2 68/3/2 72/3/2
f 73/1/2 74/1/2 77/1/2
f 77/1/2 74/1/2 78/1/2
f 75/1/2 76/1/2 79/1/2
f 79/1/2 76/1/2 80/1/2
f 81/4/2 82/4/2 86/4/2
f 86/4/2 82/4/2 87/4/2
f 83/4/2 84/4/2 88/4/2
f 88/4/2 84/4/2 89/4/2
f 87/1/2 88/1/2 91/1/2
f 91/1/2 88/1/2 92/1/2
f 85/3/2 86/3/2 93/3/2
f 93/3/2 86/3/2 94/3/2
f 87/1/2 91/1/2 95/1/2
f 91/2/2 92/2/2 96/2/2
f 95/1/2 91/1/2 96/1/2
f 92/1/2 88/1/2 97/1/2
f 96/2/2 92/2/2 97/2/2
f 97/1/2 88/1/2 98/1/2
f 89/3/2 90/3/2 99/3/2
f 99/3/2 90/3/2 100/3/2
f 95/1/2 96/1/2 101/1/2
f 96/1/2 97/1/2 101/1/2
f 101/1/2 97/1/2 102/1/2
f 97/2/2 98/2/2 103/2/2
f 102/1/2 97/1/2 103/1/2
f 103/2/2 98/2/2 104/2/2
f 101/2/2 102/2/2 105/2/2
f 102/1/2 103/1/2 106/1/2
f 105/2/2 102/2/2 106/2/2
f 103/1/2 104/1/2 106/1/2
f 106/1/2 104/1/2 107/1/2
f 105/1/2 106/1/2 108/1/2
f 106/2/2 107/2/2 108/2/2
f 107/1/2 104/1/2 109/1/2
f 108/2/2 107/2/2 109/2/2
f 105/1/2 108/1/2 110/1/2
f 108/1/2 109/1/2 110/1/2
f 109/1/2 104/1/2 111/1/2
f 110/1/2 109/1/2 111/1/2
f 105/1/2 110/1/2 112/1/2
f 110/2/2 111/2/2 113/2/2
f 112/1/2 110/1/2 113/1/2
f 111/1/2 104/1/2 114/1/2
f 113/2/2 111/2/2 114/2/2
f 114/1/2 104/1/2 115/1/2
f 113/1/2 114/1/2 116/1/2
f 116/1/2 114/1/2 117/1/2
f 118/4/2 119/4/2 121/4/2
f 121/4/2 119/4/2 122/4/2
f 120/3/2 121/3/2 124/3/2
f 124/3/2 121/3/2 125/3/2
f 122/3/2 123/3/2 126/3/2
f 126/3/2 123/3/2 127/3/2
f 128/3/2 129/3/2 130/3/2
f 130/3/2 129/3/2 131/3/2
f 134/3/3 133/3/3 132/3/3
f 135/3/3 133/3/3 134/3/3
f 139/3/3 137/3/3 136/3/3
f 140/3/3 137/3/3 139/3/3
f 141/4/3 139/4/3 138/4/3
f 142/4/3 139/4/3 141/4/3
f 144/3/3 143/3/3 142/3/3
f 145/3/3 143/3/3 144/3/3
f 149/3/3 147/3/3 146/3/3
f 150/3/3 147/3/3 149/3/3
f 151/4/3 149/4/3 148/4/3
f 152/4/3 149/4/3 151/4/3
f 157/1/3 153/1/3 152/1/3
f 157/1/3 154/1/3 153/1/3
f 158/1/3 154/1/3 157/1/3
f 159/1/3 154/1/3 158/1/3
f 160/2/3 155/2/3 154/2/3
f 160/1/3 154/1/3 159/1/3
f 161/1/3 156/1/3 155/1/3
f 161/2/3 155/2/3 160/2/3
f 162/1/3 156/1/3 161/1/3
f 164/1/3 157/1/3 152/1/3
f 164/2/3 158/2/3 157/2/3
f 165/1/3 159/1/3 158/1/3
f 165/2/3 158/2/3 164/2/3
f 166/1/3 159/1/3 165/1/3
f 167/1/3 159/1/3 166/1/3
f 168/2/3 160/2/3 159/2/3
f 168/1/3 159/1/3 167/1/3
f 169/1/3 163/1/3 162/1/3
f 169/2/3 160/2/3 168/2/3
f 169/1/3 162/1/3 161/1/3
f 169/1/3 161/1/3 160/1/3
f 170/1/3 163/1/3 169/1/3
f 171/1/3 163/1/3 170/1/3
f 173/1/3 164/1/3 152/1/3
f 173/1/3 166/1/3 165/1/3
f 173/1/3 165/1/3 164/1/3
f 174/1/3 166/1/3 173/1/3
f 175/2/3 167/2/3 166/2/3
f 175/1/3 166/1/3 174/1/3
f 176/1/3 168/1/3 167/1/3
f 176/2/3 167/2/3 175/2/3
f 176/1/3 170/1/3 169/1/3
f 176/1/3 169/1/3 168/1/3
f 177/1/3 170/1/3 176/1/3
f 178/4/3 173/4/3 172/4/3
f 179/4/3 173/4/3 178/4/3
f 181/3/3 180/3/3 179/3/3
f 182/3/3 180/3/3 181/3/3
f 185/1/3 184/1/3 183/1/3
f 186/1/3 184/1/3 185/1/3
f 189/1/3 188/1/3 187/1/3
f 190/1/3 188/1/3 189/1/3
f 193/3/3 192/3/3 191/3/3
f 194/3/3 192/3/3 193/3/3
f 197/3/3 196/3/3 195/3/3
f 198/3/3 196/3/3 197/3/3
f 201/3/3 200/3/3 199/3/3
f 202/3/3 200/3/3 201/3/3
f 203/3/4 204/3/4 205/3/4
f 205/3/4 204/3/4 206/3/4
f 207/3/4 208/3/4 209/3/4
f 209/3/4 208/3/4 210/3/4
f 211/3/4 212/3/4 213/3/4
f 213/3/4 212/3/4 214/3/4
f 215/1/4 216/1/4 217/1/4
f 217/1/4 216/1/4 218/1/4
f 219/1/4 220/1/4 221/1/4
f 221/1/4 220/1/4 222/1/4
f 223/3/4 224/3/4 226/3/4
f 226/3/4 224/3/4 227/3/4
f 225/4/4 226/4/4 228/4/4
f 228/4/4 226/4/4 229/4/4
f 229/1/4 230/1/4 232/1/4
f 230/1/4 231/1/4 232/1/4
f 229/1/4 232/1/4 234/1/4
f 232/1/4 233/1/4 234/1/4
f 234/1/4 233/1/4 235/1/4
f 235/1/4 233/1/4 236/1/4
f 236/1/4 233/1/4 237/1/4
f 229/1/4 234/1/4 239/1/4
f 234/2/4 235/2/4 240/2/4
f 239/1/4 234/1/4 240/1/4
f 235/1/4 236/1/4 241/1/4
f 240/2/4 235/2/4 241/2/4
f 241/1/4 236/1/4 242/1/4
f 238/4/4 239/4/4 243/4/4
f 243/4/4 239/4/4 244/4/4
f 244/3/4 245/3/4 246/3/4
f 246/3/4 245/3/4 247/3/4
f 248/3/4 249/3/4 251/3/4
f 251/3/4 249/3/4 252/3/4
f 250/4/4 251/4/4 253/4/4
f 253/4/4 251/4/4 254/4/4
f 254/3/4 255/3/4 256/3/4
f 256/3/4 255/3/4 257/3/4
f 258/3/4 259/3/4 260/3/4
f 260/3/4 259/3/4 261/3/4
f 265/4/5 263/4/5 262/4/5
f 266/4/5 263/4/5 265/4/5
f 268/4/5 265/4/5 264/4/5
f 269/3/5 266/3/5 265/3/5
f 269/4/5 265/4/5 268/4/5
f 270/4/5 267/4/5 266/4/5
f 270/3/5 266/3/5 269/3/5
f 271/4/5 267/4/5 270/4/5
f 272/4/5 270/4/5 269/4/5
f 273/4/5 270/4/5 272/4/5
f 277/3/5 275/3/5 274/3/5
f 278/3/5 275/3/5 277/3/5
f 281/3/5 277/3/5 276/3/5
f 282/3/5 277/3/5 281/3/5
f 283/3/5 279/3/5 278/3/5
f 284/3/5 279/3/5 283/3/5
f 286/3/5 281/3/5 280/3/5
f 287/3/5 281/3/5 286/3/5
f 290/3/5 285/3/5 284/3/5
f 291/3/5 285/3/5 290/3/5
f 292/3/5 288/3/5 287/3/5
f 293/3/5 288/3/5 292/3/5
f 294/3/5 290/3/5 289/3/5
f 295/3/5 290/3/5 294/3/5
f 296/3/5 294/3/5 293/3/5
f 297/3/5 294/3/5 296/3/5
f 298/4/6 299/4/6 301/4/6
f 301/4/6 299/4/6 302/4/6
f 300/4/6 301/4/6 304/4/6
f 304/4/6 301/4/6 305/4/6
f 302/4/6 303/4/6 306/4/6
f 306/4/6 303/4/6 307/4/6
f 305/4/6 306/4/6 308/4/6
f 308/4/6 306/4/6 309/4/6
f 310/3/6 311/3/6 313/3/6
f 313/3/6 311/3/6 314/3/6
f 312/3/6 313/3/6 317/3/6
f 317/3/6 313/3/6 318/3/6
f 314/3/6 315/3/6 319/3/6
f 319/3/6 315/3/6 320/3/6
f 316/3/6 317/3/6 322/3/6
f 322/3/6 317/3/6 323/3/6
f 320/3/6 321/3/6 326/3/6
f 326/3/6 321/3/6 327/3/6
f 323/3/6 324/3/6 328/3/6
f 328/3/6 324/3/6 329/3/6
f 325/3/6 326/3/6 330/3/6
f 330/3/6 326/3/6 331/3/6
f 329/3/6 330/3/6 332/3/6
f 332/3/6 330/3/6 333/3/6
f 334/1/6 335/1/6 338/1/6
f 338/1/6 335/1/6 339/1/6
f 336/1/6 337/1/6 340/1/6
f 340/1/6 337/1/6 341/1/6
f 342/1/6 343/1/6 346/1/6
f 346/1/6 343/1/6 347/1/6
f 344/1/6 345/1/6 348/1/6
f 348/1/6 345/1/6 349/1/6
f 350/1/6 351/1/6 353/1/6
f 353/1/6 351/1/6 354/1/6
f 352/1/6 353/1/6 356/1/6
f 354/1/6 355/1/6 356/1/6
f 353/1/6 354/1/6 356/1/6
f 356/1/6 355/1/6 357/1/6
f 357/1/6 355/1/6 358/1/6
f 358/1/6 355/1/6 359/1/6
f 357/1/6 358/1/6 360/1/6
f 360/1/6 358/1/6 361/1/6
