# MagicaVoxel @ Ephtracy

# group
o 

# material
mtllib Flowers.mtl
usemtl palette

# normals
vn -1 0 0
vn 1 0 0
vn 0 0 1
vn 0 0 -1
vn 0 -1 0
vn 0 1 0

# texcoords
vt 0.185547 0.5
vt 0.341797 0.5
vt 0.369141 0.5
vt 0.373047 0.5
vt 0.845703 0.5
vt 0.892578 0.5
vt 0.896484 0.5

# verts
v -0.5 0.2 -0.1
v -0.5 0.2 -0.4
v -0.5 0.3 -0.1
v -0.5 0.3 -0.4
v -0.4 0 -0.1
v -0.4 0 -0.4
v -0.4 0.1 -0.1
v -0.4 0.1 -0.4
v -0.4 0.2 0
v -0.4 0.2 -0.1
v -0.4 0.2 -0.4
v -0.4 0.2 -0.5
v -0.4 0.3 0
v -0.4 0.3 -0.1
v -0.4 0.3 -0.2
v -0.4 0.3 -0.3
v -0.4 0.3 -0.4
v -0.4 0.3 -0.5
v -0.4 0.4 -0.2
v -0.4 0.4 -0.3
v -0.4 0.4 -0.4
v -0.4 0.5 -0.1
v -0.4 0.5 -0.2
v -0.4 0.5 -0.3
v -0.4 0.5 -0.4
v -0.4 0.6 -0.1
v -0.4 0.6 -0.2
v -0.4 0.7 -0.1
v -0.4 0.7 -0.2
v -0.4 0.7 -0.3
v -0.4 0.7 -0.4
v -0.4 0.8 -0.2
v -0.4 0.8 -0.3
v -0.3 0 0
v -0.3 0 -0.1
v -0.3 0 -0.4
v -0.3 0 -0.5
v -0.3 0.1 0
v -0.3 0.1 -0.1
v -0.3 0.1 -0.4
v -0.3 0.1 -0.5
v -0.3 0.2 0.1
v -0.3 0.2 0
v -0.3 0.2 -0.1
v -0.3 0.2 -0.4
v -0.3 0.2 -0.5
v -0.3 0.2 -0.6
v -0.3 0.3 0.1
v -0.3 0.3 0
v -0.3 0.3 -0.1
v -0.3 0.3 -0.4
v -0.3 0.3 -0.5
v -0.3 0.3 -0.6
v -0.3 0.4 -0.4
v -0.3 0.4 -0.5
v -0.3 0.5 0
v -0.3 0.5 -0.1
v -0.3 0.5 -0.4
v -0.3 0.5 -0.5
v -0.3 0.6 -0.1
v -0.3 0.7 0
v -0.3 0.7 -0.1
v -0.3 0.7 -0.2
v -0.3 0.7 -0.3
v -0.3 0.7 -0.4
v -0.3 0.7 -0.5
v -0.3 0.8 -0.1
v -0.3 0.8 -0.2
v -0.3 0.8 -0.3
v -0.3 0.8 -0.4
v -0.3 0.9 -0.2
v -0.3 0.9 -0.3
v -0.3 1 -0.1
v -0.3 1 -0.2
v -0.3 1 -0.3
v -0.3 1 -0.4
v -0.3 1.1 -0.1
v -0.3 1.1 -0.2
v -0.3 1.1 -0.3
v -0.3 1.1 -0.4
v -0.3 1.2 -0.2
v -0.3 1.2 -0.3
v -0.2 0.7 0
v -0.2 0.7 -0.1
v -0.2 0.7 -0.4
v -0.2 0.7 -0.5
v -0.2 0.8 0
v -0.2 0.8 -0.1
v -0.2 0.8 -0.2
v -0.2 0.8 -0.3
v -0.2 0.8 -0.4
v -0.2 0.8 -0.5
v -0.2 0.9 -0.1
v -0.2 0.9 -0.2
v -0.2 0.9 -0.3
v -0.2 0.9 -0.4
v -0.2 1 -0.1
v -0.2 1 -0.2
v -0.2 1 -0.3
v -0.2 1 -0.4
v -0.2 1.1 -0.1
v -0.2 1.1 -0.2
v -0.2 1.1 -0.3
v -0.2 1.1 -0.4
v -0.2 1.2 -0.1
v -0.2 1.2 -0.2
v -0.2 1.2 -0.3
v -0.2 1.2 -0.4
v -0.1 1 -0.2
v -0.1 1 -0.3
v -0.1 1.1 -0.2
v -0.1 1.1 -0.3
v -0.2 1 -0.2
v -0.2 1 -0.3
v -0.2 1.1 -0.2
v -0.2 1.1 -0.3
v -0.1 0.7 0
v -0.1 0.7 -0.1
v -0.1 0.7 -0.4
v -0.1 0.7 -0.5
v -0.1 0.8 0
v -0.1 0.8 -0.1
v -0.1 0.8 -0.2
v -0.1 0.8 -0.3
v -0.1 0.8 -0.4
v -0.1 0.8 -0.5
v -0.1 0.9 -0.1
v -0.1 0.9 -0.2
v -0.1 0.9 -0.3
v -0.1 0.9 -0.4
v -0.1 1 -0.1
v -0.1 1 -0.2
v -0.1 1 -0.3
v -0.1 1 -0.4
v -0.1 1.1 -0.1
v -0.1 1.1 -0.2
v -0.1 1.1 -0.3
v -0.1 1.1 -0.4
v -0.1 1.2 -0.1
v -0.1 1.2 -0.2
v -0.1 1.2 -0.3
v -0.1 1.2 -0.4
v 0 0 0
v 0 0 -0.1
v 0 0 -0.4
v 0 0 -0.5
v 0 0.1 0
v 0 0.1 -0.1
v 0 0.1 -0.4
v 0 0.1 -0.5
v 0 0.2 0.1
v 0 0.2 0
v 0 0.2 -0.1
v 0 0.2 -0.4
v 0 0.2 -0.5
v 0 0.2 -0.6
v 0 0.3 0.1
v 0 0.3 0
v 0 0.3 -0.1
v 0 0.3 -0.4
v 0 0.3 -0.5
v 0 0.3 -0.6
v 0 0.4 -0.1
v 0 0.4 -0.4
v 0 0.5 -0.1
v 0 0.6 -0.1
v 0 0.6 -0.4
v 0 0.6 -0.5
v 0 0.7 0
v 0 0.7 -0.1
v 0 0.7 -0.2
v 0 0.7 -0.3
v 0 0.7 -0.4
v 0 0.7 -0.5
v 0 0.8 -0.1
v 0 0.8 -0.2
v 0 0.8 -0.3
v 0 0.8 -0.4
v 0 0.9 -0.2
v 0 0.9 -0.3
v 0 1 -0.1
v 0 1 -0.2
v 0 1 -0.3
v 0 1 -0.4
v 0 1.1 -0.1
v 0 1.1 -0.2
v 0 1.1 -0.3
v 0 1.1 -0.4
v 0 1.2 -0.2
v 0 1.2 -0.3
v 0.1 0 -0.1
v 0.1 0 -0.4
v 0.1 0.1 -0.1
v 0.1 0.1 -0.4
v 0.1 0.2 0
v 0.1 0.2 -0.1
v 0.1 0.2 -0.4
v 0.1 0.2 -0.5
v 0.1 0.3 0
v 0.1 0.3 -0.1
v 0.1 0.3 -0.2
v 0.1 0.3 -0.3
v 0.1 0.3 -0.4
v 0.1 0.3 -0.5
v 0.1 0.4 -0.1
v 0.1 0.4 -0.2
v 0.1 0.4 -0.3
v 0.1 0.4 -0.4
v 0.1 0.5 -0.1
v 0.1 0.5 -0.2
v 0.1 0.6 -0.1
v 0.1 0.6 -0.2
v 0.1 0.7 -0.1
v 0.1 0.7 -0.2
v 0.1 0.7 -0.3
v 0.1 0.7 -0.4
v 0.1 0.8 -0.2
v 0.1 0.8 -0.3
v 0.2 0.2 -0.1
v 0.2 0.2 -0.4
v 0.2 0.3 -0.1
v 0.2 0.3 -0.4
v -0.3 0.2 0.1
v -0.3 0.3 0.1
v 0 0.2 0.1
v 0 0.3 0.1
v -0.4 0.2 0
v -0.4 0.3 0
v -0.3 0 0
v -0.3 0.1 0
v -0.3 0.2 0
v -0.3 0.3 0
v -0.3 0.5 0
v -0.3 0.7 0
v -0.2 0.4 0
v -0.2 0.5 0
v -0.2 0.6 0
v -0.2 0.7 0
v -0.2 0.8 0
v -0.1 0.3 0
v -0.1 0.4 0
v -0.1 0.5 0
v -0.1 0.6 0
v -0.1 0.7 0
v -0.1 0.8 0
v 0 0 0
v 0 0.1 0
v 0 0.2 0
v 0 0.3 0
v 0 0.7 0
v 0.1 0.2 0
v 0.1 0.3 0
v -0.5 0.2 -0.1
v -0.5 0.3 -0.1
v -0.4 0 -0.1
v -0.4 0.1 -0.1
v -0.4 0.2 -0.1
v -0.4 0.3 -0.1
v -0.4 0.5 -0.1
v -0.4 0.6 -0.1
v -0.4 0.7 -0.1
v -0.3 0 -0.1
v -0.3 0.1 -0.1
v -0.3 0.2 -0.1
v -0.3 0.3 -0.1
v -0.3 0.5 -0.1
v -0.3 0.6 -0.1
v -0.3 0.7 -0.1
v -0.3 0.8 -0.1
v -0.3 1 -0.1
v -0.3 1.1 -0.1
v -0.2 0.7 -0.1
v -0.2 0.8 -0.1
v -0.2 0.9 -0.1
v -0.2 1 -0.1
v -0.2 1.1 -0.1
v -0.2 1.2 -0.1
v -0.1 0.7 -0.1
v -0.1 0.8 -0.1
v -0.1 0.9 -0.1
v -0.1 1 -0.1
v -0.1 1.1 -0.1
v -0.1 1.2 -0.1
v 0 0 -0.1
v 0 0.1 -0.1
v 0 0.2 -0.1
v 0 0.3 -0.1
v 0 0.4 -0.1
v 0 0.5 -0.1
v 0 0.6 -0.1
v 0 0.7 -0.1
v 0 0.8 -0.1
v 0 1 -0.1
v 0 1.1 -0.1
v 0.1 0 -0.1
v 0.1 0.1 -0.1
v 0.1 0.2 -0.1
v 0.1 0.3 -0.1
v 0.1 0.4 -0.1
v 0.1 0.5 -0.1
v 0.1 0.6 -0.1
v 0.1 0.7 -0.1
v 0.2 0.2 -0.1
v 0.2 0.3 -0.1
v -0.4 0.7 -0.2
v -0.4 0.8 -0.2
v -0.3 0.7 -0.2
v -0.3 0.8 -0.2
v -0.3 0.9 -0.2
v -0.3 1 -0.2
v -0.3 1.1 -0.2
v -0.3 1.2 -0.2
v -0.2 0.8 -0.2
v -0.2 0.9 -0.2
v -0.2 1 -0.2
v -0.2 1.1 -0.2
v -0.2 1.2 -0.2
v -0.1 0.8 -0.2
v -0.1 0.9 -0.2
v -0.1 1 -0.2
v -0.1 1.1 -0.2
v -0.1 1.2 -0.2
v 0 0.7 -0.2
v 0 0.8 -0.2
v 0 0.9 -0.2
v 0 1 -0.2
v 0 1.1 -0.2
v 0 1.2 -0.2
v 0.1 0.7 -0.2
v 0.1 0.8 -0.2
v -0.2 1 -0.3
v -0.2 1.1 -0.3
v -0.1 1 -0.3
v -0.1 1.1 -0.3
v -0.2 1 -0.2
v -0.2 1.1 -0.2
v -0.1 1 -0.2
v -0.1 1.1 -0.2
v -0.4 0.7 -0.3
v -0.4 0.8 -0.3
v -0.3 0.7 -0.3
v -0.3 0.8 -0.3
v -0.3 0.9 -0.3
v -0.3 1 -0.3
v -0.3 1.1 -0.3
v -0.3 1.2 -0.3
v -0.2 0.8 -0.3
v -0.2 0.9 -0.3
v -0.2 1 -0.3
v -0.2 1.1 -0.3
v -0.2 1.2 -0.3
v -0.1 0.8 -0.3
v -0.1 0.9 -0.3
v -0.1 1 -0.3
v -0.1 1.1 -0.3
v -0.1 1.2 -0.3
v 0 0.7 -0.3
v 0 0.8 -0.3
v 0 0.9 -0.3
v 0 1 -0.3
v 0 1.1 -0.3
v 0 1.2 -0.3
v 0.1 0.7 -0.3
v 0.1 0.8 -0.3
v -0.5 0.2 -0.4
v -0.5 0.3 -0.4
v -0.4 0 -0.4
v -0.4 0.1 -0.4
v -0.4 0.2 -0.4
v -0.4 0.3 -0.4
v -0.4 0.4 -0.4
v -0.4 0.5 -0.4
v -0.4 0.7 -0.4
v -0.3 0 -0.4
v -0.3 0.1 -0.4
v -0.3 0.2 -0.4
v -0.3 0.3 -0.4
v -0.3 0.4 -0.4
v -0.3 0.5 -0.4
v -0.3 0.7 -0.4
v -0.3 0.8 -0.4
v -0.3 1 -0.4
v -0.3 1.1 -0.4
v -0.2 0.7 -0.4
v -0.2 0.8 -0.4
v -0.2 0.9 -0.4
v -0.2 1 -0.4
v -0.2 1.1 -0.4
v -0.2 1.2 -0.4
v -0.1 0.7 -0.4
v -0.1 0.8 -0.4
v -0.1 0.9 -0.4
v -0.1 1 -0.4
v -0.1 1.1 -0.4
v -0.1 1.2 -0.4
v 0 0 -0.4
v 0 0.1 -0.4
v 0 0.2 -0.4
v 0 0.3 -0.4
v 0 0.4 -0.4
v 0 0.6 -0.4
v 0 0.7 -0.4
v 0 0.8 -0.4
v 0 1 -0.4
v 0 1.1 -0.4
v 0.1 0 -0.4
v 0.1 0.1 -0.4
v 0.1 0.2 -0.4
v 0.1 0.3 -0.4
v 0.1 0.4 -0.4
v 0.1 0.7 -0.4
v 0.2 0.2 -0.4
v 0.2 0.3 -0.4
v -0.4 0.2 -0.5
v -0.4 0.3 -0.5
v -0.3 0 -0.5
v -0.3 0.1 -0.5
v -0.3 0.2 -0.5
v -0.3 0.3 -0.5
v -0.3 0.4 -0.5
v -0.3 0.5 -0.5
v -0.3 0.7 -0.5
v -0.2 0.3 -0.5
v -0.2 0.4 -0.5
v -0.2 0.5 -0.5
v -0.2 0.6 -0.5
v -0.2 0.7 -0.5
v -0.2 0.8 -0.5
v -0.1 0.4 -0.5
v -0.1 0.6 -0.5
v -0.1 0.7 -0.5
v -0.1 0.8 -0.5
v 0 0 -0.5
v 0 0.1 -0.5
v 0 0.2 -0.5
v 0 0.3 -0.5
v 0 0.6 -0.5
v 0 0.7 -0.5
v 0.1 0.2 -0.5
v 0.1 0.3 -0.5
v -0.3 0.2 -0.6
v -0.3 0.3 -0.6
v 0 0.2 -0.6
v 0 0.3 -0.6
v -0.3 0 0
v 0 0 0
v -0.4 0 -0.1
v -0.3 0 -0.1
v 0 0 -0.1
v 0.1 0 -0.1
v -0.4 0 -0.4
v -0.3 0 -0.4
v 0 0 -0.4
v 0.1 0 -0.4
v -0.3 0 -0.5
v 0 0 -0.5
v -0.3 0.2 0.1
v 0 0.2 0.1
v -0.4 0.2 0
v -0.3 0.2 0
v 0 0.2 0
v 0.1 0.2 0
v -0.5 0.2 -0.1
v -0.4 0.2 -0.1
v -0.3 0.2 -0.1
v 0 0.2 -0.1
v 0.1 0.2 -0.1
v 0.2 0.2 -0.1
v -0.5 0.2 -0.4
v -0.4 0.2 -0.4
v -0.3 0.2 -0.4
v 0 0.2 -0.4
v 0.1 0.2 -0.4
v 0.2 0.2 -0.4
v -0.4 0.2 -0.5
v -0.3 0.2 -0.5
v 0 0.2 -0.5
v 0.1 0.2 -0.5
v -0.3 0.2 -0.6
v 0 0.2 -0.6
v -0.2 0.9 -0.1
v -0.1 0.9 -0.1
v -0.3 0.9 -0.2
v -0.2 0.9 -0.2
v -0.1 0.9 -0.2
v 0 0.9 -0.2
v -0.3 0.9 -0.3
v -0.2 0.9 -0.3
v -0.1 0.9 -0.3
v 0 0.9 -0.3
v -0.2 0.9 -0.4
v -0.1 0.9 -0.4
v -0.3 1 -0.1
v -0.2 1 -0.1
v -0.1 1 -0.1
v 0 1 -0.1
v -0.3 1 -0.2
v -0.2 1 -0.2
v -0.1 1 -0.2
v 0 1 -0.2
v -0.3 1 -0.3
v -0.2 1 -0.3
v -0.1 1 -0.3
v 0 1 -0.3
v -0.3 1 -0.4
v -0.2 1 -0.4
v -0.1 1 -0.4
v 0 1 -0.4
v -0.2 1.1 -0.2
v -0.1 1.1 -0.2
v -0.2 1.1 -0.3
v -0.1 1.1 -0.3
v -0.3 0.3 0.1
v 0 0.3 0.1
v -0.4 0.3 0
v -0.3 0.3 0
v -0.1 0.3 0
v 0 0.3 0
v 0.1 0.3 0
v -0.5 0.3 -0.1
v -0.4 0.3 -0.1
v -0.3 0.3 -0.1
v 0 0.3 -0.1
v 0.1 0.3 -0.1
v 0.2 0.3 -0.1
v -0.4 0.3 -0.2
v 0.1 0.3 -0.2
v -0.4 0.3 -0.3
v 0.1 0.3 -0.3
v -0.5 0.3 -0.4
v -0.4 0.3 -0.4
v -0.3 0.3 -0.4
v 0 0.3 -0.4
v 0.1 0.3 -0.4
v 0.2 0.3 -0.4
v -0.4 0.3 -0.5
v -0.3 0.3 -0.5
v -0.2 0.3 -0.5
v 0 0.3 -0.5
v 0.1 0.3 -0.5
v -0.3 0.3 -0.6
v 0 0.3 -0.6
v -0.3 0.7 0
v -0.2 0.7 0
v -0.1 0.7 0
v 0 0.7 0
v -0.4 0.7 -0.1
v -0.3 0.7 -0.1
v -0.2 0.7 -0.1
v -0.1 0.7 -0.1
v 0 0.7 -0.1
v 0.1 0.7 -0.1
v -0.4 0.7 -0.2
v -0.3 0.7 -0.2
v 0 0.7 -0.2
v 0.1 0.7 -0.2
v -0.4 0.7 -0.3
v -0.3 0.7 -0.3
v 0 0.7 -0.3
v 0.1 0.7 -0.3
v -0.4 0.7 -0.4
v -0.3 0.7 -0.4
v -0.2 0.7 -0.4
v -0.1 0.7 -0.4
v 0 0.7 -0.4
v 0.1 0.7 -0.4
v -0.3 0.7 -0.5
v -0.2 0.7 -0.5
v -0.1 0.7 -0.5
v 0 0.7 -0.5
v -0.2 0.8 0
v -0.1 0.8 0
v -0.3 0.8 -0.1
v -0.2 0.8 -0.1
v -0.1 0.8 -0.1
v 0 0.8 -0.1
v -0.4 0.8 -0.2
v -0.3 0.8 -0.2
v -0.2 0.8 -0.2
v -0.1 0.8 -0.2
v 0 0.8 -0.2
v 0.1 0.8 -0.2
v -0.4 0.8 -0.3
v -0.3 0.8 -0.3
v -0.2 0.8 -0.3
v -0.1 0.8 -0.3
v 0 0.8 -0.3
v 0.1 0.8 -0.3
v -0.3 0.8 -0.4
v -0.2 0.8 -0.4
v -0.1 0.8 -0.4
v 0 0.8 -0.4
v -0.2 0.8 -0.5
v -0.1 0.8 -0.5
v -0.2 1 -0.2
v -0.1 1 -0.2
v -0.2 1 -0.3
v -0.1 1 -0.3
v -0.3 1.1 -0.1
v -0.2 1.1 -0.1
v -0.1 1.1 -0.1
v 0 1.1 -0.1
v -0.3 1.1 -0.2
v -0.2 1.1 -0.2
v -0.1 1.1 -0.2
v 0 1.1 -0.2
v -0.3 1.1 -0.3
v -0.2 1.1 -0.3
v -0.1 1.1 -0.3
v 0 1.1 -0.3
v -0.3 1.1 -0.4
v -0.2 1.1 -0.4
v -0.1 1.1 -0.4
v 0 1.1 -0.4
v -0.2 1.2 -0.1
v -0.1 1.2 -0.1
v -0.3 1.2 -0.2
v -0.2 1.2 -0.2
v -0.1 1.2 -0.2
v 0 1.2 -0.2
v -0.3 1.2 -0.3
v -0.2 1.2 -0.3
v -0.1 1.2 -0.3
v 0 1.2 -0.3
v -0.2 1.2 -0.4
v -0.1 1.2 -0.4

# faces
f 3/2/1 2/2/1 1/2/1
f 4/2/1 2/2/1 3/2/1
f 7/4/1 6/4/1 5/4/1
f 8/4/1 6/4/1 7/4/1
f 10/3/1 8/3/1 7/3/1
f 11/3/1 8/3/1 10/3/1
f 13/2/1 10/2/1 9/2/1
f 14/2/1 10/2/1 13/2/1
f 17/2/1 12/2/1 11/2/1
f 18/2/1 12/2/1 17/2/1
f 19/7/1 16/7/1 15/7/1
f 19/6/1 15/6/1 14/6/1
f 20/6/1 17/6/1 16/6/1
f 20/7/1 16/7/1 19/7/1
f 21/6/1 17/6/1 20/6/1
f 22/6/1 19/6/1 14/6/1
f 22/6/1 20/6/1 19/6/1
f 23/6/1 20/6/1 22/6/1
f 24/7/1 21/7/1 20/7/1
f 24/6/1 20/6/1 23/6/1
f 25/7/1 21/7/1 24/7/1
f 26/7/1 23/7/1 22/7/1
f 27/6/1 24/6/1 23/6/1
f 27/7/1 23/7/1 26/7/1
f 27/6/1 25/6/1 24/6/1
f 28/6/1 27/6/1 26/6/1
f 29/6/1 25/6/1 27/6/1
f 29/6/1 27/6/1 28/6/1
f 30/6/1 25/6/1 29/6/1
f 31/6/1 25/6/1 30/6/1
f 32/6/1 30/6/1 29/6/1
f 33/6/1 30/6/1 32/6/1
f 38/4/1 35/4/1 34/4/1
f 39/4/1 35/4/1 38/4/1
f 40/4/1 37/4/1 36/4/1
f 41/4/1 37/4/1 40/4/1
f 43/3/1 39/3/1 38/3/1
f 44/3/1 39/3/1 43/3/1
f 45/3/1 41/3/1 40/3/1
f 46/3/1 41/3/1 45/3/1
f 48/2/1 43/2/1 42/2/1
f 49/2/1 43/2/1 48/2/1
f 52/2/1 47/2/1 46/2/1
f 53/2/1 47/2/1 52/2/1
f 54/7/1 52/7/1 51/7/1
f 55/7/1 52/7/1 54/7/1
f 56/6/1 50/6/1 49/6/1
f 57/6/1 50/6/1 56/6/1
f 58/6/1 55/6/1 54/6/1
f 59/6/1 55/6/1 58/6/1
f 60/7/1 57/7/1 56/7/1
f 61/7/1 60/7/1 56/7/1
f 62/7/1 60/7/1 61/7/1
f 65/7/1 59/7/1 58/7/1
f 66/7/1 59/7/1 65/7/1
f 67/7/1 63/7/1 62/7/1
f 68/7/1 63/7/1 67/7/1
f 69/6/1 65/6/1 64/6/1
f 70/6/1 65/6/1 69/6/1
f 74/5/1 72/5/1 71/5/1
f 75/5/1 72/5/1 74/5/1
f 77/5/1 74/5/1 73/5/1
f 78/1/1 75/1/1 74/1/1
f 78/5/1 74/5/1 77/5/1
f 79/5/1 76/5/1 75/5/1
f 79/1/1 75/1/1 78/1/1
f 80/5/1 76/5/1 79/5/1
f 81/5/1 79/5/1 78/5/1
f 82/5/1 79/5/1 81/5/1
f 87/6/1 84/6/1 83/6/1
f 88/6/1 84/6/1 87/6/1
f 91/7/1 86/7/1 85/7/1
f 92/7/1 86/7/1 91/7/1
f 94/6/1 90/6/1 89/6/1
f 95/6/1 90/6/1 94/6/1
f 97/5/1 94/5/1 93/5/1
f 98/5/1 94/5/1 97/5/1
f 99/5/1 96/5/1 95/5/1
f 100/5/1 96/5/1 99/5/1
f 105/5/1 102/5/1 101/5/1
f 106/5/1 102/5/1 105/5/1
f 107/5/1 104/5/1 103/5/1
f 108/5/1 104/5/1 107/5/1
f 111/1/1 110/1/1 109/1/1
f 112/1/1 110/1/1 111/1/1
f 113/1/2 114/1/2 115/1/2
f 115/1/2 114/1/2 116/1/2
f 117/6/2 118/6/2 121/6/2
f 121/6/2 118/6/2 122/6/2
f 119/7/2 120/7/2 125/7/2
f 125/7/2 120/7/2 126/7/2
f 123/6/2 124/6/2 128/6/2
f 128/6/2 124/6/2 129/6/2
f 127/5/2 128/5/2 131/5/2
f 131/5/2 128/5/2 132/5/2
f 129/5/2 130/5/2 133/5/2
f 133/5/2 130/5/2 134/5/2
f 135/5/2 136/5/2 139/5/2
f 139/5/2 136/5/2 140/5/2
f 137/5/2 138/5/2 141/5/2
f 141/5/2 138/5/2 142/5/2
f 143/4/2 144/4/2 147/4/2
f 147/4/2 144/4/2 148/4/2
f 145/4/2 146/4/2 149/4/2
f 149/4/2 146/4/2 150/4/2
f 147/3/2 148/3/2 152/3/2
f 152/3/2 148/3/2 153/3/2
f 149/3/2 150/3/2 154/3/2
f 154/3/2 150/3/2 155/3/2
f 151/2/2 152/2/2 157/2/2
f 157/2/2 152/2/2 158/2/2
f 155/2/2 156/2/2 161/2/2
f 161/2/2 156/2/2 162/2/2
f 158/7/2 159/7/2 163/7/2
f 160/6/2 161/6/2 164/6/2
f 158/7/2 163/7/2 165/7/2
f 158/7/2 165/7/2 166/7/2
f 164/6/2 161/6/2 167/6/2
f 167/6/2 161/6/2 168/6/2
f 158/7/2 166/7/2 169/7/2
f 169/7/2 166/7/2 170/7/2
f 167/7/2 168/7/2 173/7/2
f 173/7/2 168/7/2 174/7/2
f 170/7/2 171/7/2 175/7/2
f 175/7/2 171/7/2 176/7/2
f 172/6/2 173/6/2 177/6/2
f 177/6/2 173/6/2 178/6/2
f 179/5/2 180/5/2 182/5/2
f 182/5/2 180/5/2 183/5/2
f 181/5/2 182/5/2 185/5/2
f 182/1/2 183/1/2 186/1/2
f 185/5/2 182/5/2 186/5/2
f 183/5/2 184/5/2 187/5/2
f 186/1/2 183/1/2 187/1/2
f 187/5/2 184/5/2 188/5/2
f 186/5/2 187/5/2 189/5/2
f 189/5/2 187/5/2 190/5/2
f 191/4/2 192/4/2 193/4/2
f 193/4/2 192/4/2 194/4/2
f 193/3/2 194/3/2 196/3/2
f 196/3/2 194/3/2 197/3/2
f 195/2/2 196/2/2 199/2/2
f 199/2/2 196/2/2 200/2/2
f 197/2/2 198/2/2 203/2/2
f 203/2/2 198/2/2 204/2/2
f 200/6/2 201/6/2 205/6/2
f 201/7/2 202/7/2 206/7/2
f 205/6/2 201/6/2 206/6/2
f 202/6/2 203/6/2 207/6/2
f 206/7/2 202/7/2 207/7/2
f 207/6/2 203/6/2 208/6/2
f 205/7/2 206/7/2 209/7/2
f 206/7/2 207/7/2 209/7/2
f 207/7/2 208/7/2 209/7/2
f 209/7/2 208/7/2 210/7/2
f 209/6/2 210/6/2 211/6/2
f 210/7/2 208/7/2 212/7/2
f 211/6/2 210/6/2 212/6/2
f 211/7/2 212/7/2 213/7/2
f 212/7/2 208/7/2 214/7/2
f 213/7/2 212/7/2 214/7/2
f 214/7/2 208/7/2 215/7/2
f 215/7/2 208/7/2 216/7/2
f 214/6/2 215/6/2 217/6/2
f 217/6/2 215/6/2 218/6/2
f 219/2/2 220/2/2 221/2/2
f 221/2/2 220/2/2 222/2/2
f 225/2/3 224/2/3 223/2/3
f 226/2/3 224/2/3 225/2/3
f 231/2/3 228/2/3 227/2/3
f 232/2/3 228/2/3 231/2/3
f 235/6/3 233/6/3 232/6/3
f 236/7/3 234/7/3 233/7/3
f 236/6/3 233/6/3 235/6/3
f 237/7/3 234/7/3 236/7/3
f 238/7/3 234/7/3 237/7/3
f 240/6/3 235/6/3 232/6/3
f 241/7/3 236/7/3 235/7/3
f 241/6/3 235/6/3 240/6/3
f 242/6/3 237/6/3 236/6/3
f 242/7/3 236/7/3 241/7/3
f 243/7/3 238/7/3 237/7/3
f 243/6/3 237/6/3 242/6/3
f 244/6/3 239/6/3 238/6/3
f 244/7/3 238/7/3 243/7/3
f 245/6/3 239/6/3 244/6/3
f 246/4/3 230/4/3 229/4/3
f 247/3/3 231/3/3 230/3/3
f 247/4/3 230/4/3 246/4/3
f 248/3/3 231/3/3 247/3/3
f 249/7/3 243/7/3 242/7/3
f 249/7/3 241/7/3 240/7/3
f 249/7/3 242/7/3 241/7/3
f 249/7/3 244/7/3 243/7/3
f 250/7/3 244/7/3 249/7/3
f 251/2/3 249/2/3 248/2/3
f 252/2/3 249/2/3 251/2/3
f 257/2/3 254/2/3 253/2/3
f 258/2/3 254/2/3 257/2/3
f 262/4/3 256/4/3 255/4/3
f 263/3/3 257/3/3 256/3/3
f 263/4/3 256/4/3 262/4/3
f 264/3/3 257/3/3 263/3/3
f 265/6/3 259/6/3 258/6/3
f 266/7/3 260/7/3 259/7/3
f 266/6/3 259/6/3 265/6/3
f 267/6/3 261/6/3 260/6/3
f 267/7/3 260/7/3 266/7/3
f 268/6/3 261/6/3 267/6/3
f 272/7/3 269/7/3 268/7/3
f 273/7/3 269/7/3 272/7/3
f 275/5/3 271/5/3 270/5/3
f 276/5/3 271/5/3 275/5/3
f 280/5/3 275/5/3 274/5/3
f 281/1/3 276/1/3 275/1/3
f 281/5/3 275/5/3 280/5/3
f 282/5/3 277/5/3 276/5/3
f 282/1/3 276/1/3 281/1/3
f 283/5/3 277/5/3 282/5/3
f 291/7/3 279/7/3 278/7/3
f 292/7/3 279/7/3 291/7/3
f 293/5/3 282/5/3 281/5/3
f 294/5/3 282/5/3 293/5/3
f 295/4/3 285/4/3 284/4/3
f 296/3/3 286/3/3 285/3/3
f 296/4/3 285/4/3 295/4/3
f 297/3/3 286/3/3 296/3/3
f 298/6/3 288/6/3 287/6/3
f 299/7/3 289/7/3 288/7/3
f 299/6/3 288/6/3 298/6/3
f 300/6/3 290/6/3 289/6/3
f 300/7/3 289/7/3 299/7/3
f 301/7/3 291/7/3 290/7/3
f 301/6/3 290/6/3 300/6/3
f 302/7/3 291/7/3 301/7/3
f 303/2/3 298/2/3 297/2/3
f 304/2/3 298/2/3 303/2/3
f 307/6/3 306/6/3 305/6/3
f 308/6/3 306/6/3 307/6/3
f 314/5/3 310/5/3 309/5/3
f 315/5/3 310/5/3 314/5/3
f 316/5/3 312/5/3 311/5/3
f 317/5/3 312/5/3 316/5/3
f 318/6/3 314/6/3 313/6/3
f 319/6/3 314/6/3 318/6/3
f 325/5/3 320/5/3 319/5/3
f 326/5/3 320/5/3 325/5/3
f 327/5/3 322/5/3 321/5/3
f 328/5/3 322/5/3 327/5/3
f 329/6/3 324/6/3 323/6/3
f 330/6/3 324/6/3 329/6/3
f 333/1/3 332/1/3 331/1/3
f 334/1/3 332/1/3 333/1/3
f 335/1/4 336/1/4 337/1/4
f 337/1/4 336/1/4 338/1/4
f 339/6/4 340/6/4 341/6/4
f 341/6/4 340/6/4 342/6/4
f 343/5/4 344/5/4 348/5/4
f 348/5/4 344/5/4 349/5/4
f 345/5/4 346/5/4 350/5/4
f 350/5/4 346/5/4 351/5/4
f 347/6/4 348/6/4 352/6/4
f 352/6/4 348/6/4 353/6/4
f 353/5/4 354/5/4 359/5/4
f 359/5/4 354/5/4 360/5/4
f 355/5/4 356/5/4 361/5/4
f 361/5/4 356/5/4 362/5/4
f 357/6/4 358/6/4 363/6/4
f 363/6/4 358/6/4 364/6/4
f 365/2/4 366/2/4 369/2/4
f 369/2/4 366/2/4 370/2/4
f 367/4/4 368/4/4 374/4/4
f 368/3/4 369/3/4 375/3/4
f 374/4/4 368/4/4 375/4/4
f 375/3/4 369/3/4 376/3/4
f 370/6/4 371/6/4 377/6/4
f 371/7/4 372/7/4 378/7/4
f 377/6/4 371/6/4 378/6/4
f 372/6/4 373/6/4 379/6/4
f 378/7/4 372/7/4 379/7/4
f 379/6/4 373/6/4 380/6/4
f 380/6/4 381/6/4 384/6/4
f 384/6/4 381/6/4 385/6/4
f 382/5/4 383/5/4 387/5/4
f 387/5/4 383/5/4 388/5/4
f 386/5/4 387/5/4 392/5/4
f 387/1/4 388/1/4 393/1/4
f 392/5/4 387/5/4 393/5/4
f 388/5/4 389/5/4 394/5/4
f 393/1/4 388/1/4 394/1/4
f 394/5/4 389/5/4 395/5/4
f 390/6/4 391/6/4 402/6/4
f 402/6/4 391/6/4 403/6/4
f 393/5/4 394/5/4 404/5/4
f 404/5/4 394/5/4 405/5/4
f 396/4/4 397/4/4 406/4/4
f 397/3/4 398/3/4 407/3/4
f 406/4/4 397/4/4 407/4/4
f 407/3/4 398/3/4 408/3/4
f 399/6/4 400/6/4 409/6/4
f 400/7/4 401/7/4 410/7/4
f 401/7/4 402/7/4 410/7/4
f 409/6/4 400/6/4 410/6/4
f 410/7/4 402/7/4 411/7/4
f 408/2/4 409/2/4 412/2/4
f 412/2/4 409/2/4 413/2/4
f 414/2/4 415/2/4 418/2/4
f 418/2/4 415/2/4 419/2/4
f 419/7/4 420/7/4 423/7/4
f 420/6/4 421/6/4 424/6/4
f 423/7/4 420/7/4 424/7/4
f 421/7/4 422/7/4 425/7/4
f 424/6/4 421/6/4 425/6/4
f 425/7/4 422/7/4 426/7/4
f 426/7/4 422/7/4 427/7/4
f 423/6/4 424/6/4 429/6/4
f 424/7/4 425/7/4 429/7/4
f 425/7/4 426/7/4 429/7/4
f 426/6/4 427/6/4 430/6/4
f 429/7/4 426/7/4 430/7/4
f 427/7/4 428/7/4 431/7/4
f 430/6/4 427/6/4 431/6/4
f 431/7/4 428/7/4 432/7/4
f 416/4/4 417/4/4 433/4/4
f 417/3/4 418/3/4 434/3/4
f 433/4/4 417/4/4 434/4/4
f 434/3/4 418/3/4 435/3/4
f 429/6/4 430/6/4 436/6/4
f 423/6/4 429/6/4 436/6/4
f 430/7/4 431/7/4 437/7/4
f 436/6/4 430/6/4 437/6/4
f 437/7/4 431/7/4 438/7/4
f 435/2/4 436/2/4 439/2/4
f 439/2/4 436/2/4 440/2/4
f 441/2/4 442/2/4 443/2/4
f 443/2/4 442/2/4 444/2/4
f 448/4/5 446/4/5 445/4/5
f 449/4/5 446/4/5 448/4/5
f 451/4/5 448/4/5 447/4/5
f 451/4/5 450/4/5 449/4/5
f 451/4/5 449/4/5 448/4/5
f 452/4/5 450/4/5 451/4/5
f 453/4/5 450/4/5 452/4/5
f 454/4/5 450/4/5 453/4/5
f 455/4/5 453/4/5 452/4/5
f 456/4/5 453/4/5 455/4/5
f 460/2/5 458/2/5 457/2/5
f 461/2/5 458/2/5 460/2/5
f 464/2/5 460/2/5 459/2/5
f 465/2/5 460/2/5 464/2/5
f 466/2/5 462/2/5 461/2/5
f 467/2/5 462/2/5 466/2/5
f 469/2/5 464/2/5 463/2/5
f 470/2/5 464/2/5 469/2/5
f 473/2/5 468/2/5 467/2/5
f 474/2/5 468/2/5 473/2/5
f 475/2/5 471/2/5 470/2/5
f 476/2/5 471/2/5 475/2/5
f 477/2/5 473/2/5 472/2/5
f 478/2/5 473/2/5 477/2/5
f 479/2/5 477/2/5 476/2/5
f 480/2/5 477/2/5 479/2/5
f 484/5/5 482/5/5 481/5/5
f 485/5/5 482/5/5 484/5/5
f 487/5/5 484/5/5 483/5/5
f 488/5/5 484/5/5 487/5/5
f 489/5/5 486/5/5 485/5/5
f 490/5/5 486/5/5 489/5/5
f 491/5/5 489/5/5 488/5/5
f 492/5/5 489/5/5 491/5/5
f 497/5/5 494/5/5 493/5/5
f 498/5/5 494/5/5 497/5/5
f 499/5/5 496/5/5 495/5/5
f 500/5/5 496/5/5 499/5/5
f 505/5/5 502/5/5 501/5/5
f 506/5/5 502/5/5 505/5/5
f 507/5/5 504/5/5 503/5/5
f 508/5/5 504/5/5 507/5/5
f 511/1/5 510/1/5 509/1/5
f 512/1/5 510/1/5 511/1/5
f 513/2/6 514/2/6 516/2/6
f 516/2/6 514/2/6 517/2/6
f 517/2/6 514/2/6 518/2/6
f 515/2/6 516/2/6 521/2/6
f 521/2/6 516/2/6 522/2/6
f 518/2/6 519/2/6 523/2/6
f 523/2/6 519/2/6 524/2/6
f 520/2/6 521/2/6 526/2/6
f 524/2/6 525/2/6 527/2/6
f 520/2/6 526/2/6 528/2/6
f 527/2/6 525/2/6 529/2/6
f 520/2/6 528/2/6 530/2/6
f 530/2/6 528/2/6 531/2/6
f 529/2/6 525/2/6 534/2/6
f 534/2/6 525/2/6 535/2/6
f 531/2/6 532/2/6 536/2/6
f 536/2/6 532/2/6 537/2/6
f 533/2/6 534/2/6 539/2/6
f 539/2/6 534/2/6 540/2/6
f 537/2/6 538/2/6 541/2/6
f 538/2/6 539/2/6 541/2/6
f 541/2/6 539/2/6 542/2/6
f 543/7/6 544/7/6 548/7/6
f 548/7/6 544/7/6 549/7/6
f 545/7/6 546/7/6 550/7/6
f 550/7/6 546/7/6 551/7/6
f 547/6/6 548/6/6 553/6/6
f 553/6/6 548/6/6 554/6/6
f 551/7/6 552/7/6 555/7/6
f 555/7/6 552/7/6 556/7/6
f 557/6/6 558/6/6 561/6/6
f 561/6/6 558/6/6 562/6/6
f 559/7/6 560/7/6 565/7/6
f 565/7/6 560/7/6 566/7/6
f 562/7/6 563/7/6 567/7/6
f 567/7/6 563/7/6 568/7/6
f 564/7/6 565/7/6 569/7/6
f 569/7/6 565/7/6 570/7/6
f 571/6/6 572/6/6 574/6/6
f 574/6/6 572/6/6 575/6/6
f 573/7/6 574/7/6 578/7/6
f 575/7/6 576/7/6 578/7/6
f 574/7/6 575/7/6 578/7/6
f 578/7/6 576/7/6 579/7/6
f 579/7/6 576/7/6 580/7/6
f 580/7/6 576/7/6 581/7/6
f 577/6/6 578/6/6 583/6/6
f 578/7/6 579/7/6 584/7/6
f 583/6/6 578/6/6 584/6/6
f 584/7/6 579/7/6 585/7/6
f 581/6/6 582/6/6 586/6/6
f 580/6/6 581/6/6 586/6/6
f 586/6/6 582/6/6 587/6/6
f 587/6/6 582/6/6 588/6/6
f 584/6/6 585/6/6 589/6/6
f 585/7/6 586/7/6 590/7/6
f 589/6/6 585/6/6 590/6/6
f 586/6/6 587/6/6 591/6/6
f 590/7/6 586/7/6 591/7/6
f 591/6/6 587/6/6 592/6/6
f 590/7/6 591/7/6 593/7/6
f 593/7/6 591/7/6 594/7/6
f 595/7/6 596/7/6 597/7/6
f 597/7/6 596/7/6 598/7/6
f 599/5/6 600/5/6 603/5/6
f 603/5/6 600/5/6 604/5/6
f 601/5/6 602/5/6 605/5/6
f 605/5/6 602/5/6 606/5/6
f 607/5/6 608/5/6 611/5/6
f 611/5/6 608/5/6 612/5/6
f 609/5/6 610/5/6 613/5/6
f 613/5/6 610/5/6 614/5/6
f 615/5/6 616/5/6 618/5/6
f 618/5/6 616/5/6 619/5/6
f 617/5/6 618/5/6 621/5/6
f 618/1/6 619/1/6 622/1/6
f 621/5/6 618/5/6 622/5/6
f 619/5/6 620/5/6 623/5/6
f 622/1/6 619/1/6 623/1/6
f 623/5/6 620/5/6 624/5/6
f 622/5/6 623/5/6 625/5/6
f 625/5/6 623/5/6 626/5/6
