# MagicaVoxel @ Ephtracy

# group
o 

# material
mtllib kilim.mtl
usemtl palette

# normals
vn -1 0 0
vn 1 0 0
vn 0 0 1
vn 0 0 -1
vn 0 -1 0
vn 0 1 0

# texcoords
vt 0.740234 0.5
vt 0.794922 0.5

# verts
v -1 1.7 0.5
v -1 1.7 -0.5
v -1 1.8 0.5
v -1 1.8 -0.5
v 1 1.7 0.5
v 1 1.7 -0.5
v 1 1.8 0.5
v 1 1.8 -0.5
v -1 1.7 0.5
v -1 1.8 0.5
v -0.8 1.7 0.5
v -0.8 1.8 0.5
v -0.7 1.7 0.5
v -0.7 1.8 0.5
v -0.5 1.7 0.5
v -0.5 1.8 0.5
v -0.4 1.7 0.5
v -0.4 1.8 0.5
v -0.2 1.7 0.5
v -0.2 1.8 0.5
v -0.1 1.7 0.5
v -0.1 1.8 0.5
v 0.1 1.7 0.5
v 0.1 1.8 0.5
v 0.2 1.7 0.5
v 0.2 1.8 0.5
v 0.4 1.7 0.5
v 0.4 1.8 0.5
v 0.5 1.7 0.5
v 0.5 1.8 0.5
v 0.7 1.7 0.5
v 0.7 1.8 0.5
v 0.8 1.7 0.5
v 0.8 1.8 0.5
v 1 1.7 0.5
v 1 1.8 0.5
v -1 1.7 -0.5
v -1 1.8 -0.5
v -0.8 1.7 -0.5
v -0.8 1.8 -0.5
v -0.7 1.7 -0.5
v -0.7 1.8 -0.5
v -0.5 1.7 -0.5
v -0.5 1.8 -0.5
v -0.4 1.7 -0.5
v -0.4 1.8 -0.5
v -0.2 1.7 -0.5
v -0.2 1.8 -0.5
v -0.1 1.7 -0.5
v -0.1 1.8 -0.5
v 0.1 1.7 -0.5
v 0.1 1.8 -0.5
v 0.2 1.7 -0.5
v 0.2 1.8 -0.5
v 0.4 1.7 -0.5
v 0.4 1.8 -0.5
v 0.5 1.7 -0.5
v 0.5 1.8 -0.5
v 0.7 1.7 -0.5
v 0.7 1.8 -0.5
v 0.8 1.7 -0.5
v 0.8 1.8 -0.5
v 1 1.7 -0.5
v 1 1.8 -0.5
v -1 1.7 0.5
v -0.8 1.7 0.5
v -0.7 1.7 0.5
v -0.5 1.7 0.5
v -0.4 1.7 0.5
v -0.2 1.7 0.5
v -0.1 1.7 0.5
v 0.1 1.7 0.5
v 0.2 1.7 0.5
v 0.4 1.7 0.5
v 0.5 1.7 0.5
v 0.7 1.7 0.5
v 0.8 1.7 0.5
v 1 1.7 0.5
v -1 1.7 -0.5
v -0.8 1.7 -0.5
v -0.7 1.7 -0.5
v -0.5 1.7 -0.5
v -0.4 1.7 -0.5
v -0.2 1.7 -0.5
v -0.1 1.7 -0.5
v 0.1 1.7 -0.5
v 0.2 1.7 -0.5
v 0.4 1.7 -0.5
v 0.5 1.7 -0.5
v 0.7 1.7 -0.5
v 0.8 1.7 -0.5
v 1 1.7 -0.5
v -1 1.8 0.5
v -0.8 1.8 0.5
v -0.7 1.8 0.5
v -0.5 1.8 0.5
v -0.4 1.8 0.5
v -0.2 1.8 0.5
v -0.1 1.8 0.5
v 0.1 1.8 0.5
v 0.2 1.8 0.5
v 0.4 1.8 0.5
v 0.5 1.8 0.5
v 0.7 1.8 0.5
v 0.8 1.8 0.5
v 1 1.8 0.5
v -1 1.8 -0.5
v -0.8 1.8 -0.5
v -0.7 1.8 -0.5
v -0.5 1.8 -0.5
v -0.4 1.8 -0.5
v -0.2 1.8 -0.5
v -0.1 1.8 -0.5
v 0.1 1.8 -0.5
v 0.2 1.8 -0.5
v 0.4 1.8 -0.5
v 0.5 1.8 -0.5
v 0.7 1.8 -0.5
v 0.8 1.8 -0.5
v 1 1.8 -0.5

# faces
f 3/1/1 2/1/1 1/1/1
f 4/1/1 2/1/1 3/1/1
f 5/1/2 6/1/2 7/1/2
f 7/1/2 6/1/2 8/1/2
f 11/1/3 10/1/3 9/1/3
f 12/1/3 10/1/3 11/1/3
f 13/2/3 12/2/3 11/2/3
f 14/2/3 12/2/3 13/2/3
f 15/1/3 14/1/3 13/1/3
f 16/1/3 14/1/3 15/1/3
f 17/2/3 16/2/3 15/2/3
f 18/2/3 16/2/3 17/2/3
f 19/1/3 18/1/3 17/1/3
f 20/1/3 18/1/3 19/1/3
f 21/2/3 20/2/3 19/2/3
f 22/2/3 20/2/3 21/2/3
f 23/1/3 22/1/3 21/1/3
f 24/1/3 22/1/3 23/1/3
f 25/2/3 24/2/3 23/2/3
f 26/2/3 24/2/3 25/2/3
f 27/1/3 26/1/3 25/1/3
f 28/1/3 26/1/3 27/1/3
f 29/2/3 28/2/3 27/2/3
f 30/2/3 28/2/3 29/2/3
f 31/1/3 30/1/3 29/1/3
f 32/1/3 30/1/3 31/1/3
f 33/2/3 32/2/3 31/2/3
f 34/2/3 32/2/3 33/2/3
f 35/1/3 34/1/3 33/1/3
f 36/1/3 34/1/3 35/1/3
f 37/1/4 38/1/4 39/1/4
f 39/1/4 38/1/4 40/1/4
f 39/2/4 40/2/4 41/2/4
f 41/2/4 40/2/4 42/2/4
f 41/1/4 42/1/4 43/1/4
f 43/1/4 42/1/4 44/1/4
f 43/2/4 44/2/4 45/2/4
f 45/2/4 44/2/4 46/2/4
f 45/1/4 46/1/4 47/1/4
f 47/1/4 46/1/4 48/1/4
f 47/2/4 48/2/4 49/2/4
f 49/2/4 48/2/4 50/2/4
f 49/1/4 50/1/4 51/1/4
f 51/1/4 50/1/4 52/1/4
f 51/2/4 52/2/4 53/2/4
f 53/2/4 52/2/4 54/2/4
f 53/1/4 54/1/4 55/1/4
f 55/1/4 54/1/4 56/1/4
f 55/2/4 56/2/4 57/2/4
f 57/2/4 56/2/4 58/2/4
f 57/1/4 58/1/4 59/1/4
f 59/1/4 58/1/4 60/1/4
f 59/2/4 60/2/4 61/2/4
f 61/2/4 60/2/4 62/2/4
f 61/1/4 62/1/4 63/1/4
f 63/1/4 62/1/4 64/1/4
f 79/1/5 66/1/5 65/1/5
f 80/2/5 67/2/5 66/2/5
f 80/1/5 66/1/5 79/1/5
f 81/1/5 68/1/5 67/1/5
f 81/2/5 67/2/5 80/2/5
f 82/2/5 69/2/5 68/2/5
f 82/1/5 68/1/5 81/1/5
f 83/1/5 70/1/5 69/1/5
f 83/2/5 69/2/5 82/2/5
f 84/2/5 71/2/5 70/2/5
f 84/1/5 70/1/5 83/1/5
f 85/1/5 72/1/5 71/1/5
f 85/2/5 71/2/5 84/2/5
f 86/2/5 73/2/5 72/2/5
f 86/1/5 72/1/5 85/1/5
f 87/1/5 74/1/5 73/1/5
f 87/2/5 73/2/5 86/2/5
f 88/2/5 75/2/5 74/2/5
f 88/1/5 74/1/5 87/1/5
f 89/1/5 76/1/5 75/1/5
f 89/2/5 75/2/5 88/2/5
f 90/2/5 77/2/5 76/2/5
f 90/1/5 76/1/5 89/1/5
f 91/1/5 78/1/5 77/1/5
f 91/2/5 77/2/5 90/2/5
f 92/1/5 78/1/5 91/1/5
f 93/1/6 94/1/6 107/1/6
f 94/2/6 95/2/6 108/2/6
f 107/1/6 94/1/6 108/1/6
f 95/1/6 96/1/6 109/1/6
f 108/2/6 95/2/6 109/2/6
f 96/2/6 97/2/6 110/2/6
f 109/1/6 96/1/6 110/1/6
f 97/1/6 98/1/6 111/1/6
f 110/2/6 97/2/6 111/2/6
f 98/2/6 99/2/6 112/2/6
f 111/1/6 98/1/6 112/1/6
f 99/1/6 100/1/6 113/1/6
f 112/2/6 99/2/6 113/2/6
f 100/2/6 101/2/6 114/2/6
f 113/1/6 100/1/6 114/1/6
f 101/1/6 102/1/6 115/1/6
f 114/2/6 101/2/6 115/2/6
f 102/2/6 103/2/6 116/2/6
f 115/1/6 102/1/6 116/1/6
f 103/1/6 104/1/6 117/1/6
f 116/2/6 103/2/6 117/2/6
f 104/2/6 105/2/6 118/2/6
f 117/1/6 104/1/6 118/1/6
f 105/1/6 106/1/6 119/1/6
f 118/2/6 105/2/6 119/2/6
f 119/1/6 106/1/6 120/1/6
