# MagicaVoxel @ Ephtracy

# group
o 

# material
mtllib Kitchen_TableV12.mtl
usemtl palette

# normals
vn -1 0 0
vn 1 0 0
vn 0 0 1
vn 0 0 -1
vn 0 -1 0
vn 0 1 0

# texcoords
vt 0.373047 0.5
vt 0.685547 0.5
vt 0.849609 0.5
vt 0.962891 0.5
vt 0.966797 0.5
vt 0.982422 0.5
vt 0.986328 0.5

# verts
v -1 1 0.8
v -1 1 -1
v -1 2.8 0.8
v -1 2.8 0.7
v -1 2.9 0.7
v -1 2.9 0.6
v -1 2.9 -1
v -1 3 0.6
v -1 3 -1
v -0.8 1.2 0.9
v -0.8 1.2 0.8
v -0.8 2.5 0.9
v -0.8 2.5 0.8
v -0.8 3 0.4
v -0.8 3 -0.8
v -0.8 3.1 0.4
v -0.8 3.1 -0.8
v -0.4 3 -0.8
v -0.4 3 -0.9
v -0.4 3.1 -0.8
v -0.4 3.1 -0.9
v -0.3 3.1 -0.8
v -0.3 3.1 -0.9
v -0.3 3.2 -0.8
v -0.3 3.2 -0.9
v -0.2 1.3 0.9
v -0.2 1.3 0.8
v -0.2 1.7 1
v -0.2 1.7 0.9
v -0.2 2 1
v -0.2 2 0.9
v -0.2 2.4 0.9
v -0.2 2.4 0.8
v -0.1 3.1 -0.8
v -0.1 3.1 -0.9
v -0.1 3.8 -0.7
v -0.1 3.8 -0.8
v -0.1 3.8 -0.9
v -0.1 3.9 -0.6
v -0.1 3.9 -0.7
v -0.1 3.9 -0.8
v -0.1 4 -0.5
v -0.1 4 -0.6
v -0.1 4 -0.7
v -0.1 4.1 -0.4
v -0.1 4.1 -0.5
v -0.1 4.1 -0.6
v -0.1 4.2 -0.1
v -0.1 4.2 -0.4
v -0.1 4.2 -0.5
v -0.1 4.3 -0.1
v -0.1 4.3 -0.4
v 0.1 1.2 0.9
v 0.1 1.2 0.8
v 0.1 1.7 1
v 0.1 1.7 0.9
v 0.1 2 1
v 0.1 2 0.9
v 0.1 2.5 0.9
v 0.1 2.5 0.8
v 0.2 3.1 -0.8
v 0.2 3.1 -0.9
v 0.2 3.2 -0.8
v 0.2 3.2 -0.9
v 0.7 1.3 0.9
v 0.7 1.3 0.8
v 0.7 2.4 0.9
v 0.7 2.4 0.8
v 0.7 2.5 0.3
v 0.7 2.5 -0.7
v 0.7 3.1 0.3
v 0.7 3.1 -0.7
v -0.7 1.3 0.9
v -0.7 1.3 0.8
v -0.7 2.4 0.9
v -0.7 2.4 0.8
v -0.7 2.5 0.3
v -0.7 2.5 -0.7
v -0.7 3.1 0.3
v -0.7 3.1 -0.7
v -0.2 3.1 -0.8
v -0.2 3.1 -0.9
v -0.2 3.2 -0.8
v -0.2 3.2 -0.9
v -0.1 1.2 0.9
v -0.1 1.2 0.8
v -0.1 1.7 1
v -0.1 1.7 0.9
v -0.1 2 1
v -0.1 2 0.9
v -0.1 2.5 0.9
v -0.1 2.5 0.8
v 0.1 3.1 -0.8
v 0.1 3.1 -0.9
v 0.1 3.8 -0.7
v 0.1 3.8 -0.8
v 0.1 3.8 -0.9
v 0.1 3.9 -0.6
v 0.1 3.9 -0.7
v 0.1 3.9 -0.8
v 0.1 4 -0.5
v 0.1 4 -0.6
v 0.1 4 -0.7
v 0.1 4.1 -0.4
v 0.1 4.1 -0.5
v 0.1 4.1 -0.6
v 0.1 4.2 -0.1
v 0.1 4.2 -0.4
v 0.1 4.2 -0.5
v 0.1 4.3 -0.1
v 0.1 4.3 -0.4
v 0.2 1.3 0.9
v 0.2 1.3 0.8
v 0.2 1.7 1
v 0.2 1.7 0.9
v 0.2 2 1
v 0.2 2 0.9
v 0.2 2.4 0.9
v 0.2 2.4 0.8
v 0.3 3.1 -0.8
v 0.3 3.1 -0.9
v 0.3 3.2 -0.8
v 0.3 3.2 -0.9
v 0.4 3 -0.8
v 0.4 3 -0.9
v 0.4 3.1 -0.8
v 0.4 3.1 -0.9
v 0.8 1.2 0.9
v 0.8 1.2 0.8
v 0.8 2.5 0.9
v 0.8 2.5 0.8
v 0.8 3 0.4
v 0.8 3 -0.8
v 0.8 3.1 0.4
v 0.8 3.1 -0.8
v 1 1 0.8
v 1 1 -1
v 1 2.8 0.8
v 1 2.8 0.7
v 1 2.9 0.7
v 1 2.9 0.6
v 1 2.9 -1
v 1 3 0.6
v 1 3 -1
v -0.2 1.7 1
v -0.2 2 1
v -0.1 1.7 1
v -0.1 2 1
v 0.1 1.7 1
v 0.1 2 1
v 0.2 1.7 1
v 0.2 2 1
v -0.8 1.2 0.9
v -0.8 2.5 0.9
v -0.7 1.3 0.9
v -0.7 2.4 0.9
v -0.2 1.3 0.9
v -0.2 1.7 0.9
v -0.2 2 0.9
v -0.2 2.4 0.9
v -0.1 1.2 0.9
v -0.1 1.7 0.9
v -0.1 2 0.9
v -0.1 2.5 0.9
v 0.1 1.2 0.9
v 0.1 1.7 0.9
v 0.1 2 0.9
v 0.1 2.5 0.9
v 0.2 1.3 0.9
v 0.2 1.7 0.9
v 0.2 2 0.9
v 0.2 2.4 0.9
v 0.7 1.3 0.9
v 0.7 2.4 0.9
v 0.8 1.2 0.9
v 0.8 2.5 0.9
v -1 1 0.8
v -1 2.8 0.8
v -0.8 1.2 0.8
v -0.8 2.5 0.8
v -0.7 1.3 0.8
v -0.7 2.4 0.8
v -0.2 1.3 0.8
v -0.2 2.4 0.8
v -0.1 1.2 0.8
v -0.1 2.5 0.8
v 0.1 1.2 0.8
v 0.1 2.5 0.8
v 0.2 1.3 0.8
v 0.2 2.4 0.8
v 0.7 1.3 0.8
v 0.7 2.4 0.8
v 0.8 1.2 0.8
v 0.8 2.5 0.8
v 1 1 0.8
v 1 2.8 0.8
v -1 2.8 0.7
v -1 2.9 0.7
v 1 2.8 0.7
v 1 2.9 0.7
v -1 2.9 0.6
v -1 3 0.6
v 1 2.9 0.6
v 1 3 0.6
v -0.8 3 0.4
v -0.8 3.1 0.4
v 0.8 3 0.4
v 0.8 3.1 0.4
v -0.1 4.2 -0.1
v -0.1 4.3 -0.1
v 0.1 4.2 -0.1
v 0.1 4.3 -0.1
v -0.1 4.1 -0.4
v -0.1 4.2 -0.4
v 0.1 4.1 -0.4
v 0.1 4.2 -0.4
v -0.1 4 -0.5
v -0.1 4.1 -0.5
v 0.1 4 -0.5
v 0.1 4.1 -0.5
v -0.1 3.9 -0.6
v -0.1 4 -0.6
v 0.1 3.9 -0.6
v 0.1 4 -0.6
v -0.7 2.5 -0.7
v -0.7 3.1 -0.7
v -0.1 3.8 -0.7
v -0.1 3.9 -0.7
v 0.1 3.8 -0.7
v 0.1 3.9 -0.7
v 0.7 2.5 -0.7
v 0.7 3.1 -0.7
v -0.3 3.1 -0.8
v -0.3 3.2 -0.8
v -0.2 3.1 -0.8
v -0.2 3.2 -0.8
v -0.1 3.1 -0.8
v -0.1 3.8 -0.8
v 0.1 3.1 -0.8
v 0.1 3.8 -0.8
v 0.2 3.1 -0.8
v 0.2 3.2 -0.8
v 0.3 3.1 -0.8
v 0.3 3.2 -0.8
v -0.7 2.5 0.3
v -0.7 3.1 0.3
v 0.7 2.5 0.3
v 0.7 3.1 0.3
v -0.1 4.2 -0.4
v -0.1 4.3 -0.4
v 0.1 4.2 -0.4
v 0.1 4.3 -0.4
v -0.1 4.1 -0.5
v -0.1 4.2 -0.5
v 0.1 4.1 -0.5
v 0.1 4.2 -0.5
v -0.1 4 -0.6
v -0.1 4.1 -0.6
v 0.1 4 -0.6
v 0.1 4.1 -0.6
v -0.1 3.9 -0.7
v -0.1 4 -0.7
v 0.1 3.9 -0.7
v 0.1 4 -0.7
v -0.8 3 -0.8
v -0.8 3.1 -0.8
v -0.4 3 -0.8
v -0.4 3.1 -0.8
v -0.1 3.8 -0.8
v -0.1 3.9 -0.8
v 0.1 3.8 -0.8
v 0.1 3.9 -0.8
v 0.4 3 -0.8
v 0.4 3.1 -0.8
v 0.8 3 -0.8
v 0.8 3.1 -0.8
v -0.4 3 -0.9
v -0.4 3.1 -0.9
v -0.3 3.1 -0.9
v -0.3 3.2 -0.9
v -0.2 3.1 -0.9
v -0.2 3.2 -0.9
v -0.1 3.1 -0.9
v -0.1 3.8 -0.9
v 0.1 3.1 -0.9
v 0.1 3.8 -0.9
v 0.2 3.1 -0.9
v 0.2 3.2 -0.9
v 0.3 3.1 -0.9
v 0.3 3.2 -0.9
v 0.4 3 -0.9
v 0.4 3.1 -0.9
v -1 1 -1
v -1 2.9 -1
v -1 3 -1
v 1 1 -1
v 1 2.9 -1
v 1 3 -1
v -1 1 0.8
v 1 1 0.8
v -1 1 -1
v 1 1 -1
v -0.8 1.2 0.9
v -0.1 1.2 0.9
v 0.1 1.2 0.9
v 0.8 1.2 0.9
v -0.8 1.2 0.8
v -0.1 1.2 0.8
v 0.1 1.2 0.8
v 0.8 1.2 0.8
v -0.2 1.7 1
v -0.1 1.7 1
v 0.1 1.7 1
v 0.2 1.7 1
v -0.2 1.7 0.9
v -0.1 1.7 0.9
v 0.1 1.7 0.9
v 0.2 1.7 0.9
v -0.7 2.4 0.9
v -0.2 2.4 0.9
v 0.2 2.4 0.9
v 0.7 2.4 0.9
v -0.7 2.4 0.8
v -0.2 2.4 0.8
v 0.2 2.4 0.8
v 0.7 2.4 0.8
v -0.1 3.8 -0.7
v 0.1 3.8 -0.7
v -0.1 3.8 -0.8
v 0.1 3.8 -0.8
v -0.1 3.9 -0.6
v 0.1 3.9 -0.6
v -0.1 3.9 -0.7
v 0.1 3.9 -0.7
v -0.1 4 -0.5
v 0.1 4 -0.5
v -0.1 4 -0.6
v 0.1 4 -0.6
v -0.1 4.1 -0.4
v 0.1 4.1 -0.4
v -0.1 4.1 -0.5
v 0.1 4.1 -0.5
v -0.1 4.2 -0.1
v 0.1 4.2 -0.1
v -0.1 4.2 -0.4
v 0.1 4.2 -0.4
v -0.7 1.3 0.9
v -0.2 1.3 0.9
v 0.2 1.3 0.9
v 0.7 1.3 0.9
v -0.7 1.3 0.8
v -0.2 1.3 0.8
v 0.2 1.3 0.8
v 0.7 1.3 0.8
v -0.2 2 1
v -0.1 2 1
v 0.1 2 1
v 0.2 2 1
v -0.2 2 0.9
v -0.1 2 0.9
v 0.1 2 0.9
v 0.2 2 0.9
v -0.8 2.5 0.9
v -0.1 2.5 0.9
v 0.1 2.5 0.9
v 0.8 2.5 0.9
v -0.8 2.5 0.8
v -0.1 2.5 0.8
v 0.1 2.5 0.8
v 0.8 2.5 0.8
v -0.7 2.5 0.3
v 0.7 2.5 0.3
v -0.7 2.5 -0.7
v 0.7 2.5 -0.7
v -1 2.8 0.8
v 1 2.8 0.8
v -1 2.8 0.7
v 1 2.8 0.7
v -1 2.9 0.7
v 1 2.9 0.7
v -1 2.9 0.6
v 1 2.9 0.6
v -1 3 0.6
v 1 3 0.6
v -0.8 3 0.4
v 0.8 3 0.4
v -0.8 3 -0.8
v -0.4 3 -0.8
v 0.4 3 -0.8
v 0.8 3 -0.8
v -0.4 3 -0.9
v 0.4 3 -0.9
v -1 3 -1
v 1 3 -1
v -0.8 3.1 0.4
v 0.8 3.1 0.4
v -0.7 3.1 0.3
v 0.7 3.1 0.3
v -0.7 3.1 -0.7
v 0.7 3.1 -0.7
v -0.8 3.1 -0.8
v -0.4 3.1 -0.8
v -0.3 3.1 -0.8
v -0.2 3.1 -0.8
v -0.1 3.1 -0.8
v 0.1 3.1 -0.8
v 0.2 3.1 -0.8
v 0.3 3.1 -0.8
v 0.4 3.1 -0.8
v 0.8 3.1 -0.8
v -0.4 3.1 -0.9
v -0.3 3.1 -0.9
v -0.2 3.1 -0.9
v -0.1 3.1 -0.9
v 0.1 3.1 -0.9
v 0.2 3.1 -0.9
v 0.3 3.1 -0.9
v 0.4 3.1 -0.9
v -0.3 3.2 -0.8
v -0.2 3.2 -0.8
v 0.2 3.2 -0.8
v 0.3 3.2 -0.8
v -0.3 3.2 -0.9
v -0.2 3.2 -0.9
v 0.2 3.2 -0.9
v 0.3 3.2 -0.9
v -0.1 3.8 -0.8
v 0.1 3.8 -0.8
v -0.1 3.8 -0.9
v 0.1 3.8 -0.9
v -0.1 3.9 -0.7
v 0.1 3.9 -0.7
v -0.1 3.9 -0.8
v 0.1 3.9 -0.8
v -0.1 4 -0.6
v 0.1 4 -0.6
v -0.1 4 -0.7
v 0.1 4 -0.7
v -0.1 4.1 -0.5
v 0.1 4.1 -0.5
v -0.1 4.1 -0.6
v 0.1 4.1 -0.6
v -0.1 4.2 -0.4
v 0.1 4.2 -0.4
v -0.1 4.2 -0.5
v 0.1 4.2 -0.5
v -0.1 4.3 -0.1
v 0.1 4.3 -0.1
v -0.1 4.3 -0.4
v 0.1 4.3 -0.4

# faces
f 3/4/1 2/4/1 1/4/1
f 4/4/1 2/4/1 3/4/1
f 5/4/1 2/4/1 4/4/1
f 6/4/1 2/4/1 5/4/1
f 7/4/1 2/4/1 6/4/1
f 8/1/1 7/1/1 6/1/1
f 9/1/1 7/1/1 8/1/1
f 12/5/1 11/5/1 10/5/1
f 13/5/1 11/5/1 12/5/1
f 16/7/1 15/7/1 14/7/1
f 17/7/1 15/7/1 16/7/1
f 20/7/1 19/7/1 18/7/1
f 21/7/1 19/7/1 20/7/1
f 24/2/1 23/2/1 22/2/1
f 25/2/1 23/2/1 24/2/1
f 29/5/1 27/5/1 26/5/1
f 30/6/1 29/6/1 28/6/1
f 31/5/1 27/5/1 29/5/1
f 31/6/1 29/6/1 30/6/1
f 32/5/1 27/5/1 31/5/1
f 33/5/1 27/5/1 32/5/1
f 37/7/1 35/7/1 34/7/1
f 38/7/1 35/7/1 37/7/1
f 40/7/1 37/7/1 36/7/1
f 41/7/1 37/7/1 40/7/1
f 43/7/1 40/7/1 39/7/1
f 44/7/1 40/7/1 43/7/1
f 46/7/1 43/7/1 42/7/1
f 47/7/1 43/7/1 46/7/1
f 49/7/1 46/7/1 45/7/1
f 50/7/1 46/7/1 49/7/1
f 51/7/1 49/7/1 48/7/1
f 52/7/1 49/7/1 51/7/1
f 56/5/1 54/5/1 53/5/1
f 57/6/1 56/6/1 55/6/1
f 58/5/1 54/5/1 56/5/1
f 58/6/1 56/6/1 57/6/1
f 59/5/1 54/5/1 58/5/1
f 60/5/1 54/5/1 59/5/1
f 63/3/1 62/3/1 61/3/1
f 64/3/1 62/3/1 63/3/1
f 67/5/1 66/5/1 65/5/1
f 68/5/1 66/5/1 67/5/1
f 71/7/1 70/7/1 69/7/1
f 72/7/1 70/7/1 71/7/1
f 73/5/2 74/5/2 75/5/2
f 75/5/2 74/5/2 76/5/2
f 77/7/2 78/7/2 79/7/2
f 79/7/2 78/7/2 80/7/2
f 81/2/2 82/2/2 83/2/2
f 83/2/2 82/2/2 84/2/2
f 85/5/2 86/5/2 88/5/2
f 87/6/2 88/6/2 89/6/2
f 88/5/2 86/5/2 90/5/2
f 89/6/2 88/6/2 90/6/2
f 90/5/2 86/5/2 91/5/2
f 91/5/2 86/5/2 92/5/2
f 93/7/2 94/7/2 96/7/2
f 96/7/2 94/7/2 97/7/2
f 95/7/2 96/7/2 99/7/2
f 99/7/2 96/7/2 100/7/2
f 98/7/2 99/7/2 102/7/2
f 102/7/2 99/7/2 103/7/2
f 101/7/2 102/7/2 105/7/2
f 105/7/2 102/7/2 106/7/2
f 104/7/2 105/7/2 108/7/2
f 108/7/2 105/7/2 109/7/2
f 107/7/2 108/7/2 110/7/2
f 110/7/2 108/7/2 111/7/2
f 112/5/2 113/5/2 115/5/2
f 114/6/2 115/6/2 116/6/2
f 115/5/2 113/5/2 117/5/2
f 116/6/2 115/6/2 117/6/2
f 117/5/2 113/5/2 118/5/2
f 118/5/2 113/5/2 119/5/2
f 120/3/2 121/3/2 122/3/2
f 122/3/2 121/3/2 123/3/2
f 124/7/2 125/7/2 126/7/2
f 126/7/2 125/7/2 127/7/2
f 128/5/2 129/5/2 130/5/2
f 130/5/2 129/5/2 131/5/2
f 132/7/2 133/7/2 134/7/2
f 134/7/2 133/7/2 135/7/2
f 136/4/2 137/4/2 138/4/2
f 138/4/2 137/4/2 139/4/2
f 139/4/2 137/4/2 140/4/2
f 140/4/2 137/4/2 141/4/2
f 141/4/2 137/4/2 142/4/2
f 141/1/2 142/1/2 143/1/2
f 143/1/2 142/1/2 144/1/2
f 147/6/3 146/6/3 145/6/3
f 148/6/3 146/6/3 147/6/3
f 151/6/3 150/6/3 149/6/3
f 152/6/3 150/6/3 151/6/3
f 155/5/3 154/5/3 153/5/3
f 156/5/3 154/5/3 155/5/3
f 157/5/3 155/5/3 153/5/3
f 160/5/3 154/5/3 156/5/3
f 161/5/3 158/5/3 157/5/3
f 161/5/3 157/5/3 153/5/3
f 162/5/3 158/5/3 161/5/3
f 163/5/3 160/5/3 159/5/3
f 164/5/3 154/5/3 160/5/3
f 164/5/3 160/5/3 163/5/3
f 169/5/3 166/5/3 165/5/3
f 170/5/3 166/5/3 169/5/3
f 171/5/3 168/5/3 167/5/3
f 172/5/3 168/5/3 171/5/3
f 173/5/3 169/5/3 165/5/3
f 174/5/3 168/5/3 172/5/3
f 175/5/3 173/5/3 165/5/3
f 175/5/3 174/5/3 173/5/3
f 176/5/3 168/5/3 174/5/3
f 176/5/3 174/5/3 175/5/3
f 179/4/3 178/4/3 177/4/3
f 180/4/3 178/4/3 179/4/3
f 183/5/3 182/5/3 181/5/3
f 184/5/3 182/5/3 183/5/3
f 185/4/3 179/4/3 177/4/3
f 186/4/3 178/4/3 180/4/3
f 187/4/3 185/4/3 177/4/3
f 187/4/3 186/4/3 185/4/3
f 188/4/3 178/4/3 186/4/3
f 188/4/3 186/4/3 187/4/3
f 191/5/3 190/5/3 189/5/3
f 192/5/3 190/5/3 191/5/3
f 193/4/3 187/4/3 177/4/3
f 194/4/3 178/4/3 188/4/3
f 195/4/3 193/4/3 177/4/3
f 195/4/3 194/4/3 193/4/3
f 196/4/3 178/4/3 194/4/3
f 196/4/3 194/4/3 195/4/3
f 199/4/3 198/4/3 197/4/3
f 200/4/3 198/4/3 199/4/3
f 203/1/3 202/1/3 201/1/3
f 204/1/3 202/1/3 203/1/3
f 207/7/3 206/7/3 205/7/3
f 208/7/3 206/7/3 207/7/3
f 211/7/3 210/7/3 209/7/3
f 212/7/3 210/7/3 211/7/3
f 215/7/3 214/7/3 213/7/3
f 216/7/3 214/7/3 215/7/3
f 219/7/3 218/7/3 217/7/3
f 220/7/3 218/7/3 219/7/3
f 223/7/3 222/7/3 221/7/3
f 224/7/3 222/7/3 223/7/3
f 229/7/3 228/7/3 227/7/3
f 230/7/3 228/7/3 229/7/3
f 231/7/3 226/7/3 225/7/3
f 232/7/3 226/7/3 231/7/3
f 235/2/3 234/2/3 233/2/3
f 236/2/3 234/2/3 235/2/3
f 239/7/3 238/7/3 237/7/3
f 240/7/3 238/7/3 239/7/3
f 243/3/3 242/3/3 241/3/3
f 244/3/3 242/3/3 243/3/3
f 245/7/4 246/7/4 247/7/4
f 247/7/4 246/7/4 248/7/4
f 249/7/4 250/7/4 251/7/4
f 251/7/4 250/7/4 252/7/4
f 253/7/4 254/7/4 255/7/4
f 255/7/4 254/7/4 256/7/4
f 257/7/4 258/7/4 259/7/4
f 259/7/4 258/7/4 260/7/4
f 261/7/4 262/7/4 263/7/4
f 263/7/4 262/7/4 264/7/4
f 265/7/4 266/7/4 267/7/4
f 267/7/4 266/7/4 268/7/4
f 269/7/4 270/7/4 271/7/4
f 271/7/4 270/7/4 272/7/4
f 273/7/4 274/7/4 275/7/4
f 275/7/4 274/7/4 276/7/4
f 277/7/4 278/7/4 279/7/4
f 277/7/4 279/7/4 281/7/4
f 279/2/4 280/2/4 281/2/4
f 281/2/4 280/2/4 282/2/4
f 277/7/4 281/7/4 283/7/4
f 277/7/4 283/7/4 285/7/4
f 283/7/4 284/7/4 285/7/4
f 285/7/4 284/7/4 286/7/4
f 277/7/4 285/7/4 287/7/4
f 277/7/4 287/7/4 289/7/4
f 287/3/4 288/3/4 289/3/4
f 289/3/4 288/3/4 290/3/4
f 277/7/4 289/7/4 291/7/4
f 291/7/4 289/7/4 292/7/4
f 293/4/4 294/4/4 296/4/4
f 294/1/4 295/1/4 297/1/4
f 296/4/4 294/4/4 297/4/4
f 297/1/4 295/1/4 298/1/4
f 301/4/5 300/4/5 299/4/5
f 302/4/5 300/4/5 301/4/5
f 307/5/5 304/5/5 303/5/5
f 308/5/5 304/5/5 307/5/5
f 309/5/5 306/5/5 305/5/5
f 310/5/5 306/5/5 309/5/5
f 315/6/5 312/6/5 311/6/5
f 316/6/5 312/6/5 315/6/5
f 317/6/5 314/6/5 313/6/5
f 318/6/5 314/6/5 317/6/5
f 323/5/5 320/5/5 319/5/5
f 324/5/5 320/5/5 323/5/5
f 325/5/5 322/5/5 321/5/5
f 326/5/5 322/5/5 325/5/5
f 329/7/5 328/7/5 327/7/5
f 330/7/5 328/7/5 329/7/5
f 333/7/5 332/7/5 331/7/5
f 334/7/5 332/7/5 333/7/5
f 337/7/5 336/7/5 335/7/5
f 338/7/5 336/7/5 337/7/5
f 341/7/5 340/7/5 339/7/5
f 342/7/5 340/7/5 341/7/5
f 345/7/5 344/7/5 343/7/5
f 346/7/5 344/7/5 345/7/5
f 347/5/6 348/5/6 351/5/6
f 351/5/6 348/5/6 352/5/6
f 349/5/6 350/5/6 353/5/6
f 353/5/6 350/5/6 354/5/6
f 355/6/6 356/6/6 359/6/6
f 359/6/6 356/6/6 360/6/6
f 357/6/6 358/6/6 361/6/6
f 361/6/6 358/6/6 362/6/6
f 363/5/6 364/5/6 367/5/6
f 367/5/6 364/5/6 368/5/6
f 365/5/6 366/5/6 369/5/6
f 369/5/6 366/5/6 370/5/6
f 371/7/6 372/7/6 373/7/6
f 373/7/6 372/7/6 374/7/6
f 375/4/6 376/4/6 377/4/6
f 377/4/6 376/4/6 378/4/6
f 379/4/6 380/4/6 381/4/6
f 381/4/6 380/4/6 382/4/6
f 383/1/6 384/1/6 385/1/6
f 385/1/6 384/1/6 386/1/6
f 383/1/6 385/1/6 387/1/6
f 386/1/6 384/1/6 390/1/6
f 387/1/6 388/1/6 391/1/6
f 389/1/6 390/1/6 392/1/6
f 387/1/6 391/1/6 393/1/6
f 391/1/6 392/1/6 393/1/6
f 383/1/6 387/1/6 393/1/6
f 392/1/6 390/1/6 394/1/6
f 393/1/6 392/1/6 394/1/6
f 390/1/6 384/1/6 394/1/6
f 395/7/6 396/7/6 397/7/6
f 397/7/6 396/7/6 398/7/6
f 395/7/6 397/7/6 399/7/6
f 398/7/6 396/7/6 400/7/6
f 395/7/6 399/7/6 401/7/6
f 399/7/6 400/7/6 401/7/6
f 401/7/6 400/7/6 402/7/6
f 402/7/6 400/7/6 403/7/6
f 403/7/6 400/7/6 404/7/6
f 404/7/6 400/7/6 405/7/6
f 405/7/6 400/7/6 406/7/6
f 406/7/6 400/7/6 407/7/6
f 407/7/6 400/7/6 408/7/6
f 408/7/6 400/7/6 409/7/6
f 400/7/6 396/7/6 410/7/6
f 409/7/6 400/7/6 410/7/6
f 402/7/6 403/7/6 411/7/6
f 411/7/6 403/7/6 412/7/6
f 404/7/6 405/7/6 413/7/6
f 413/7/6 405/7/6 414/7/6
f 406/7/6 407/7/6 415/7/6
f 415/7/6 407/7/6 416/7/6
f 408/7/6 409/7/6 417/7/6
f 417/7/6 409/7/6 418/7/6
f 419/2/6 420/2/6 423/2/6
f 423/2/6 420/2/6 424/2/6
f 421/3/6 422/3/6 425/3/6
f 425/3/6 422/3/6 426/3/6
f 427/7/6 428/7/6 429/7/6
f 429/7/6 428/7/6 430/7/6
f 431/7/6 432/7/6 433/7/6
f 433/7/6 432/7/6 434/7/6
f 435/7/6 436/7/6 437/7/6
f 437/7/6 436/7/6 438/7/6
f 439/7/6 440/7/6 441/7/6
f 441/7/6 440/7/6 442/7/6
f 443/7/6 444/7/6 445/7/6
f 445/7/6 444/7/6 446/7/6
f 447/7/6 448/7/6 449/7/6
f 449/7/6 448/7/6 450/7/6
