# MagicaVoxel @ Ephtracy

# group
o 

# material
mtllib Kitchen_TableV1.mtl
usemtl palette

# normals
vn -1 0 0
vn 1 0 0
vn 0 0 1
vn 0 0 -1
vn 0 -1 0
vn 0 1 0

# texcoords
vt 0.306641 0.5
vt 0.373047 0.5
vt 0.962891 0.5
vt 0.966797 0.5
vt 0.982422 0.5

# verts
v -1 1 0.8
v -1 1 -1
v -1 2.8 0.8
v -1 2.8 0.7
v -1 2.9 0.7
v -1 2.9 0.6
v -1 2.9 -1
v -1 3 0.6
v -1 3 -1
v -0.8 1.2 0.9
v -0.8 1.2 0.8
v -0.8 2.5 0.9
v -0.8 2.5 0.8
v -0.2 1.3 0.9
v -0.2 1.3 0.8
v -0.2 1.7 1
v -0.2 1.7 0.9
v -0.2 2 1
v -0.2 2 0.9
v -0.2 2.4 0.9
v -0.2 2.4 0.8
v 0.1 1.2 0.9
v 0.1 1.2 0.8
v 0.1 1.7 1
v 0.1 1.7 0.9
v 0.1 2 1
v 0.1 2 0.9
v 0.1 2.5 0.9
v 0.1 2.5 0.8
v 0.7 1.3 0.9
v 0.7 1.3 0.8
v 0.7 2.4 0.9
v 0.7 2.4 0.8
v -0.7 1.3 0.9
v -0.7 1.3 0.8
v -0.7 2.4 0.9
v -0.7 2.4 0.8
v -0.1 1.2 0.9
v -0.1 1.2 0.8
v -0.1 1.7 1
v -0.1 1.7 0.9
v -0.1 2 1
v -0.1 2 0.9
v -0.1 2.5 0.9
v -0.1 2.5 0.8
v 0.2 1.3 0.9
v 0.2 1.3 0.8
v 0.2 1.7 1
v 0.2 1.7 0.9
v 0.2 2 1
v 0.2 2 0.9
v 0.2 2.4 0.9
v 0.2 2.4 0.8
v 0.8 1.2 0.9
v 0.8 1.2 0.8
v 0.8 2.5 0.9
v 0.8 2.5 0.8
v 1 1 0.8
v 1 1 -1
v 1 2.8 0.8
v 1 2.8 0.7
v 1 2.9 0.7
v 1 2.9 0.6
v 1 2.9 -1
v 1 3 0.6
v 1 3 -1
v -0.2 1.7 1
v -0.2 2 1
v -0.1 1.7 1
v -0.1 2 1
v 0.1 1.7 1
v 0.1 2 1
v 0.2 1.7 1
v 0.2 2 1
v -0.8 1.2 0.9
v -0.8 2.5 0.9
v -0.7 1.3 0.9
v -0.7 2.4 0.9
v -0.2 1.3 0.9
v -0.2 1.7 0.9
v -0.2 2 0.9
v -0.2 2.4 0.9
v -0.1 1.2 0.9
v -0.1 1.7 0.9
v -0.1 2 0.9
v -0.1 2.5 0.9
v 0.1 1.2 0.9
v 0.1 1.7 0.9
v 0.1 2 0.9
v 0.1 2.5 0.9
v 0.2 1.3 0.9
v 0.2 1.7 0.9
v 0.2 2 0.9
v 0.2 2.4 0.9
v 0.7 1.3 0.9
v 0.7 2.4 0.9
v 0.8 1.2 0.9
v 0.8 2.5 0.9
v -1 1 0.8
v -1 2.8 0.8
v -0.8 1.2 0.8
v -0.8 2.5 0.8
v -0.7 1.3 0.8
v -0.7 2.4 0.8
v -0.2 1.3 0.8
v -0.2 2.4 0.8
v -0.1 1.2 0.8
v -0.1 2.5 0.8
v 0.1 1.2 0.8
v 0.1 2.5 0.8
v 0.2 1.3 0.8
v 0.2 2.4 0.8
v 0.7 1.3 0.8
v 0.7 2.4 0.8
v 0.8 1.2 0.8
v 0.8 2.5 0.8
v 1 1 0.8
v 1 2.8 0.8
v -1 2.8 0.7
v -1 2.9 0.7
v 1 2.8 0.7
v 1 2.9 0.7
v -1 2.9 0.6
v -1 3 0.6
v 1 2.9 0.6
v 1 3 0.6
v -1 1 -1
v -1 2.9 -1
v -1 3 -1
v 1 1 -1
v 1 2.9 -1
v 1 3 -1
v -1 1 0.8
v 1 1 0.8
v -1 1 -1
v 1 1 -1
v -0.8 1.2 0.9
v -0.1 1.2 0.9
v 0.1 1.2 0.9
v 0.8 1.2 0.9
v -0.8 1.2 0.8
v -0.1 1.2 0.8
v 0.1 1.2 0.8
v 0.8 1.2 0.8
v -0.2 1.7 1
v -0.1 1.7 1
v 0.1 1.7 1
v 0.2 1.7 1
v -0.2 1.7 0.9
v -0.1 1.7 0.9
v 0.1 1.7 0.9
v 0.2 1.7 0.9
v -0.7 2.4 0.9
v -0.2 2.4 0.9
v 0.2 2.4 0.9
v 0.7 2.4 0.9
v -0.7 2.4 0.8
v -0.2 2.4 0.8
v 0.2 2.4 0.8
v 0.7 2.4 0.8
v -0.7 1.3 0.9
v -0.2 1.3 0.9
v 0.2 1.3 0.9
v 0.7 1.3 0.9
v -0.7 1.3 0.8
v -0.2 1.3 0.8
v 0.2 1.3 0.8
v 0.7 1.3 0.8
v -0.2 2 1
v -0.1 2 1
v 0.1 2 1
v 0.2 2 1
v -0.2 2 0.9
v -0.1 2 0.9
v 0.1 2 0.9
v 0.2 2 0.9
v -0.8 2.5 0.9
v -0.1 2.5 0.9
v 0.1 2.5 0.9
v 0.8 2.5 0.9
v -0.8 2.5 0.8
v -0.1 2.5 0.8
v 0.1 2.5 0.8
v 0.8 2.5 0.8
v -1 2.8 0.8
v 1 2.8 0.8
v -1 2.8 0.7
v 1 2.8 0.7
v -1 2.9 0.7
v 1 2.9 0.7
v -1 2.9 0.6
v 1 2.9 0.6
v -1 3 0.6
v 1 3 0.6
v -1 3 -1
v 1 3 -1

# faces
f 3/3/1 2/3/1 1/3/1
f 4/3/1 2/3/1 3/3/1
f 5/3/1 2/3/1 4/3/1
f 6/3/1 2/3/1 5/3/1
f 7/3/1 2/3/1 6/3/1
f 8/2/1 7/2/1 6/2/1
f 9/2/1 7/2/1 8/2/1
f 12/4/1 11/4/1 10/4/1
f 13/4/1 11/4/1 12/4/1
f 17/4/1 15/4/1 14/4/1
f 18/5/1 17/5/1 16/5/1
f 19/4/1 15/4/1 17/4/1
f 19/5/1 17/5/1 18/5/1
f 20/4/1 15/4/1 19/4/1
f 21/4/1 15/4/1 20/4/1
f 25/4/1 23/4/1 22/4/1
f 26/5/1 25/5/1 24/5/1
f 27/4/1 23/4/1 25/4/1
f 27/5/1 25/5/1 26/5/1
f 28/4/1 23/4/1 27/4/1
f 29/4/1 23/4/1 28/4/1
f 32/4/1 31/4/1 30/4/1
f 33/4/1 31/4/1 32/4/1
f 34/4/2 35/4/2 36/4/2
f 36/4/2 35/4/2 37/4/2
f 38/4/2 39/4/2 41/4/2
f 40/5/2 41/5/2 42/5/2
f 41/4/2 39/4/2 43/4/2
f 42/5/2 41/5/2 43/5/2
f 43/4/2 39/4/2 44/4/2
f 44/4/2 39/4/2 45/4/2
f 46/4/2 47/4/2 49/4/2
f 48/5/2 49/5/2 50/5/2
f 49/4/2 47/4/2 51/4/2
f 50/5/2 49/5/2 51/5/2
f 51/4/2 47/4/2 52/4/2
f 52/4/2 47/4/2 53/4/2
f 54/4/2 55/4/2 56/4/2
f 56/4/2 55/4/2 57/4/2
f 58/3/2 59/3/2 60/3/2
f 60/3/2 59/3/2 61/3/2
f 61/3/2 59/3/2 62/3/2
f 62/3/2 59/3/2 63/3/2
f 63/3/2 59/3/2 64/3/2
f 63/2/2 64/2/2 65/2/2
f 65/2/2 64/2/2 66/2/2
f 69/5/3 68/5/3 67/5/3
f 70/5/3 68/5/3 69/5/3
f 73/5/3 72/5/3 71/5/3
f 74/5/3 72/5/3 73/5/3
f 77/4/3 76/4/3 75/4/3
f 78/4/3 76/4/3 77/4/3
f 79/4/3 77/4/3 75/4/3
f 82/4/3 76/4/3 78/4/3
f 83/4/3 80/4/3 79/4/3
f 83/4/3 79/4/3 75/4/3
f 84/4/3 80/4/3 83/4/3
f 85/4/3 82/4/3 81/4/3
f 86/4/3 76/4/3 82/4/3
f 86/4/3 82/4/3 85/4/3
f 91/4/3 88/4/3 87/4/3
f 92/4/3 88/4/3 91/4/3
f 93/4/3 90/4/3 89/4/3
f 94/4/3 90/4/3 93/4/3
f 95/4/3 91/4/3 87/4/3
f 96/4/3 90/4/3 94/4/3
f 97/4/3 95/4/3 87/4/3
f 97/4/3 96/4/3 95/4/3
f 98/4/3 90/4/3 96/4/3
f 98/4/3 96/4/3 97/4/3
f 101/3/3 100/3/3 99/3/3
f 102/3/3 100/3/3 101/3/3
f 105/4/3 104/4/3 103/4/3
f 106/4/3 104/4/3 105/4/3
f 107/3/3 101/3/3 99/3/3
f 108/3/3 100/3/3 102/3/3
f 109/3/3 107/3/3 99/3/3
f 109/3/3 108/3/3 107/3/3
f 110/3/3 100/3/3 108/3/3
f 110/3/3 108/3/3 109/3/3
f 113/4/3 112/4/3 111/4/3
f 114/4/3 112/4/3 113/4/3
f 115/3/3 109/3/3 99/3/3
f 116/3/3 100/3/3 110/3/3
f 117/3/3 115/3/3 99/3/3
f 117/3/3 116/3/3 115/3/3
f 118/3/3 100/3/3 116/3/3
f 118/3/3 116/3/3 117/3/3
f 121/3/3 120/3/3 119/3/3
f 122/3/3 120/3/3 121/3/3
f 125/2/3 124/2/3 123/2/3
f 126/2/3 124/2/3 125/2/3
f 127/3/4 128/3/4 130/3/4
f 128/2/4 129/2/4 131/2/4
f 130/3/4 128/3/4 131/3/4
f 131/2/4 129/2/4 132/2/4
f 135/3/5 134/3/5 133/3/5
f 136/3/5 134/3/5 135/3/5
f 141/4/5 138/4/5 137/4/5
f 142/4/5 138/4/5 141/4/5
f 143/4/5 140/4/5 139/4/5
f 144/4/5 140/4/5 143/4/5
f 149/5/5 146/5/5 145/5/5
f 150/5/5 146/5/5 149/5/5
f 151/5/5 148/5/5 147/5/5
f 152/5/5 148/5/5 151/5/5
f 157/4/5 154/4/5 153/4/5
f 158/4/5 154/4/5 157/4/5
f 159/4/5 156/4/5 155/4/5
f 160/4/5 156/4/5 159/4/5
f 161/4/6 162/4/6 165/4/6
f 165/4/6 162/4/6 166/4/6
f 163/4/6 164/4/6 167/4/6
f 167/4/6 164/4/6 168/4/6
f 169/5/6 170/5/6 173/5/6
f 173/5/6 170/5/6 174/5/6
f 171/5/6 172/5/6 175/5/6
f 175/5/6 172/5/6 176/5/6
f 177/4/6 178/4/6 181/4/6
f 181/4/6 178/4/6 182/4/6
f 179/4/6 180/4/6 183/4/6
f 183/4/6 180/4/6 184/4/6
f 185/3/6 186/3/6 187/3/6
f 187/3/6 186/3/6 188/3/6
f 189/3/6 190/3/6 191/3/6
f 191/3/6 190/3/6 192/3/6
f 193/2/6 194/2/6 195/2/6
f 195/2/6 194/2/6 196/2/6
