# MagicaVoxel @ Ephtracy

# group
o 

# material
mtllib Kitchen_TableV5.mtl
usemtl palette

# normals
vn -1 0 0
vn 1 0 0
vn 0 0 1
vn 0 0 -1
vn 0 -1 0
vn 0 1 0

# texcoords
vt 0.306641 0.5
vt 0.373047 0.5
vt 0.962891 0.5

# verts
v -1 1 0.8
v -1 1 -1
v -1 2.9 0.8
v -1 2.9 -1
v -1 3 0.8
v -1 3 -1
v 1 1 0.8
v 1 1 -1
v 1 2.9 0.8
v 1 2.9 -1
v 1 3 0.8
v 1 3 -1
v -1 1 0.8
v -1 2.9 0.8
v -1 3 0.8
v 1 1 0.8
v 1 2.9 0.8
v 1 3 0.8
v -1 1 -1
v -1 2.9 -1
v -1 3 -1
v 1 1 -1
v 1 2.9 -1
v 1 3 -1
v -1 1 0.8
v 1 1 0.8
v -1 1 -1
v 1 1 -1
v -1 3 0.8
v 1 3 0.8
v -1 3 -1
v 1 3 -1

# faces
f 3/3/1 2/3/1 1/3/1
f 4/3/1 2/3/1 3/3/1
f 5/2/1 4/2/1 3/2/1
f 6/2/1 4/2/1 5/2/1
f 7/3/2 8/3/2 9/3/2
f 9/3/2 8/3/2 10/3/2
f 9/2/2 10/2/2 11/2/2
f 11/2/2 10/2/2 12/2/2
f 16/3/3 14/3/3 13/3/3
f 17/2/3 15/2/3 14/2/3
f 17/3/3 14/3/3 16/3/3
f 18/2/3 15/2/3 17/2/3
f 19/3/4 20/3/4 22/3/4
f 20/2/4 21/2/4 23/2/4
f 22/3/4 20/3/4 23/3/4
f 23/2/4 21/2/4 24/2/4
f 27/3/5 26/3/5 25/3/5
f 28/3/5 26/3/5 27/3/5
f 29/2/6 30/2/6 31/2/6
f 31/2/6 30/2/6 32/2/6
