# MagicaVoxel @ Ephtracy

# group
o 

# material
mtllib Kitchen_TableV2.mtl
usemtl palette

# normals
vn -1 0 0
vn 1 0 0
vn 0 0 1
vn 0 0 -1
vn 0 -1 0
vn 0 1 0

# texcoords
vt 0.306641 0.5
vt 0.373047 0.5
vt 0.935547 0.5
vt 0.962891 0.5
vt 0.966797 0.5
vt 0.982422 0.5

# verts
v -1 1 0.8
v -1 1 -1
v -1 2.8 0.8
v -1 2.8 0.7
v -1 2.9 0.7
v -1 2.9 0.6
v -1 2.9 -1
v -1 3 0.6
v -1 3 -1
v -0.8 1.3 0.9
v -0.8 1.3 0.8
v -0.8 1.6 0.9
v -0.8 1.6 0.8
v -0.8 1.8 0.9
v -0.8 1.8 0.8
v -0.8 2.1 0.9
v -0.8 2.1 0.8
v -0.8 2.3 0.9
v -0.8 2.3 0.8
v -0.8 2.6 0.9
v -0.8 2.6 0.8
v -0.1 1.5 1
v -0.1 1.5 0.9
v -0.1 1.6 1
v -0.1 1.6 0.9
v -0.1 2 1
v -0.1 2 0.9
v -0.1 2.1 1
v -0.1 2.1 0.9
v -0.1 2.5 1
v -0.1 2.5 0.9
v -0.1 2.6 1
v -0.1 2.6 0.9
v 0.7 1.4 0.9
v 0.7 1.4 0.8
v 0.7 1.5 0.9
v 0.7 1.5 0.8
v 0.7 1.9 0.9
v 0.7 1.9 0.8
v 0.7 2 0.9
v 0.7 2 0.8
v 0.7 2.4 0.9
v 0.7 2.4 0.8
v 0.7 2.5 0.9
v 0.7 2.5 0.8
v -0.7 1.4 0.9
v -0.7 1.4 0.8
v -0.7 1.5 0.9
v -0.7 1.5 0.8
v -0.7 1.9 0.9
v -0.7 1.9 0.8
v -0.7 2 0.9
v -0.7 2 0.8
v -0.7 2.4 0.9
v -0.7 2.4 0.8
v -0.7 2.5 0.9
v -0.7 2.5 0.8
v 0.1 1.5 1
v 0.1 1.5 0.9
v 0.1 1.6 1
v 0.1 1.6 0.9
v 0.1 2 1
v 0.1 2 0.9
v 0.1 2.1 1
v 0.1 2.1 0.9
v 0.1 2.5 1
v 0.1 2.5 0.9
v 0.1 2.6 1
v 0.1 2.6 0.9
v 0.8 1.3 0.9
v 0.8 1.3 0.8
v 0.8 1.6 0.9
v 0.8 1.6 0.8
v 0.8 1.8 0.9
v 0.8 1.8 0.8
v 0.8 2.1 0.9
v 0.8 2.1 0.8
v 0.8 2.3 0.9
v 0.8 2.3 0.8
v 0.8 2.6 0.9
v 0.8 2.6 0.8
v 1 1 0.8
v 1 1 -1
v 1 2.8 0.8
v 1 2.8 0.7
v 1 2.9 0.7
v 1 2.9 0.6
v 1 2.9 -1
v 1 3 0.6
v 1 3 -1
v -0.1 1.5 1
v -0.1 1.6 1
v -0.1 2 1
v -0.1 2.1 1
v -0.1 2.5 1
v -0.1 2.6 1
v 0.1 1.5 1
v 0.1 1.6 1
v 0.1 2 1
v 0.1 2.1 1
v 0.1 2.5 1
v 0.1 2.6 1
v -0.8 1.3 0.9
v -0.8 1.6 0.9
v -0.8 1.8 0.9
v -0.8 2.1 0.9
v -0.8 2.3 0.9
v -0.8 2.6 0.9
v -0.7 1.4 0.9
v -0.7 1.5 0.9
v -0.7 1.9 0.9
v -0.7 2 0.9
v -0.7 2.4 0.9
v -0.7 2.5 0.9
v -0.1 1.5 0.9
v -0.1 1.6 0.9
v -0.1 2 0.9
v -0.1 2.1 0.9
v -0.1 2.5 0.9
v -0.1 2.6 0.9
v 0.1 1.5 0.9
v 0.1 1.6 0.9
v 0.1 2 0.9
v 0.1 2.1 0.9
v 0.1 2.5 0.9
v 0.1 2.6 0.9
v 0.7 1.4 0.9
v 0.7 1.5 0.9
v 0.7 1.9 0.9
v 0.7 2 0.9
v 0.7 2.4 0.9
v 0.7 2.5 0.9
v 0.8 1.3 0.9
v 0.8 1.6 0.9
v 0.8 1.8 0.9
v 0.8 2.1 0.9
v 0.8 2.3 0.9
v 0.8 2.6 0.9
v -1 1 0.8
v -1 2.8 0.8
v -0.8 1.3 0.8
v -0.8 1.6 0.8
v -0.8 1.8 0.8
v -0.8 2.1 0.8
v -0.8 2.3 0.8
v -0.8 2.6 0.8
v -0.7 1.4 0.8
v -0.7 1.5 0.8
v -0.7 1.9 0.8
v -0.7 2 0.8
v -0.7 2.4 0.8
v -0.7 2.5 0.8
v 0.7 1.4 0.8
v 0.7 1.5 0.8
v 0.7 1.9 0.8
v 0.7 2 0.8
v 0.7 2.4 0.8
v 0.7 2.5 0.8
v 0.8 1.3 0.8
v 0.8 1.6 0.8
v 0.8 1.8 0.8
v 0.8 2.1 0.8
v 0.8 2.3 0.8
v 0.8 2.6 0.8
v 1 1 0.8
v 1 2.8 0.8
v -1 2.8 0.7
v -1 2.9 0.7
v 1 2.8 0.7
v 1 2.9 0.7
v -1 2.9 0.6
v -1 3 0.6
v 1 2.9 0.6
v 1 3 0.6
v -1 1 -1
v -1 2.9 -1
v -1 3 -1
v 1 1 -1
v 1 2.9 -1
v 1 3 -1
v -1 1 0.8
v 1 1 0.8
v -1 1 -1
v 1 1 -1
v -0.8 1.3 0.9
v 0.8 1.3 0.9
v -0.8 1.3 0.8
v 0.8 1.3 0.8
v -0.1 1.5 1
v 0.1 1.5 1
v -0.7 1.5 0.9
v -0.1 1.5 0.9
v 0.1 1.5 0.9
v 0.7 1.5 0.9
v -0.7 1.5 0.8
v 0.7 1.5 0.8
v -0.8 1.8 0.9
v 0.8 1.8 0.9
v -0.8 1.8 0.8
v 0.8 1.8 0.8
v -0.1 2 1
v 0.1 2 1
v -0.7 2 0.9
v -0.1 2 0.9
v 0.1 2 0.9
v 0.7 2 0.9
v -0.7 2 0.8
v 0.7 2 0.8
v -0.8 2.3 0.9
v 0.8 2.3 0.9
v -0.8 2.3 0.8
v 0.8 2.3 0.8
v -0.1 2.5 1
v 0.1 2.5 1
v -0.7 2.5 0.9
v -0.1 2.5 0.9
v 0.1 2.5 0.9
v 0.7 2.5 0.9
v -0.7 2.5 0.8
v 0.7 2.5 0.8
v -0.7 1.4 0.9
v 0.7 1.4 0.9
v -0.7 1.4 0.8
v 0.7 1.4 0.8
v -0.1 1.6 1
v 0.1 1.6 1
v -0.8 1.6 0.9
v -0.1 1.6 0.9
v 0.1 1.6 0.9
v 0.8 1.6 0.9
v -0.8 1.6 0.8
v 0.8 1.6 0.8
v -0.7 1.9 0.9
v 0.7 1.9 0.9
v -0.7 1.9 0.8
v 0.7 1.9 0.8
v -0.1 2.1 1
v 0.1 2.1 1
v -0.8 2.1 0.9
v -0.1 2.1 0.9
v 0.1 2.1 0.9
v 0.8 2.1 0.9
v -0.8 2.1 0.8
v 0.8 2.1 0.8
v -0.7 2.4 0.9
v 0.7 2.4 0.9
v -0.7 2.4 0.8
v 0.7 2.4 0.8
v -0.1 2.6 1
v 0.1 2.6 1
v -0.8 2.6 0.9
v -0.1 2.6 0.9
v 0.1 2.6 0.9
v 0.8 2.6 0.9
v -0.8 2.6 0.8
v 0.8 2.6 0.8
v -1 2.8 0.8
v 1 2.8 0.8
v -1 2.8 0.7
v 1 2.8 0.7
v -1 2.9 0.7
v 1 2.9 0.7
v -1 2.9 0.6
v 1 2.9 0.6
v -1 3 0.6
v 1 3 0.6
v -1 3 -1
v 1 3 -1

# faces
f 3/4/1 2/4/1 1/4/1
f 4/4/1 2/4/1 3/4/1
f 5/4/1 2/4/1 4/4/1
f 6/4/1 2/4/1 5/4/1
f 7/4/1 2/4/1 6/4/1
f 8/2/1 7/2/1 6/2/1
f 9/2/1 7/2/1 8/2/1
f 12/5/1 11/5/1 10/5/1
f 13/5/1 11/5/1 12/5/1
f 16/5/1 15/5/1 14/5/1
f 17/5/1 15/5/1 16/5/1
f 20/5/1 19/5/1 18/5/1
f 21/5/1 19/5/1 20/5/1
f 24/6/1 23/6/1 22/6/1
f 25/6/1 23/6/1 24/6/1
f 28/6/1 27/6/1 26/6/1
f 29/6/1 27/6/1 28/6/1
f 32/6/1 31/6/1 30/6/1
f 33/6/1 31/6/1 32/6/1
f 36/5/1 35/5/1 34/5/1
f 37/5/1 35/5/1 36/5/1
f 40/5/1 39/5/1 38/5/1
f 41/5/1 39/5/1 40/5/1
f 44/5/1 43/5/1 42/5/1
f 45/5/1 43/5/1 44/5/1
f 46/5/2 47/5/2 48/5/2
f 48/5/2 47/5/2 49/5/2
f 50/5/2 51/5/2 52/5/2
f 52/5/2 51/5/2 53/5/2
f 54/5/2 55/5/2 56/5/2
f 56/5/2 55/5/2 57/5/2
f 58/6/2 59/6/2 60/6/2
f 60/6/2 59/6/2 61/6/2
f 62/6/2 63/6/2 64/6/2
f 64/6/2 63/6/2 65/6/2
f 66/6/2 67/6/2 68/6/2
f 68/6/2 67/6/2 69/6/2
f 70/5/2 71/5/2 72/5/2
f 72/5/2 71/5/2 73/5/2
f 74/5/2 75/5/2 76/5/2
f 76/5/2 75/5/2 77/5/2
f 78/5/2 79/5/2 80/5/2
f 80/5/2 79/5/2 81/5/2
f 82/4/2 83/4/2 84/4/2
f 84/4/2 83/4/2 85/4/2
f 85/4/2 83/4/2 86/4/2
f 86/4/2 83/4/2 87/4/2
f 87/4/2 83/4/2 88/4/2
f 87/2/2 88/2/2 89/2/2
f 89/2/2 88/2/2 90/2/2
f 97/6/3 92/6/3 91/6/3
f 98/6/3 92/6/3 97/6/3
f 99/6/3 94/6/3 93/6/3
f 100/6/3 94/6/3 99/6/3
f 101/6/3 96/6/3 95/6/3
f 102/6/3 96/6/3 101/6/3
f 109/5/3 104/5/3 103/5/3
f 110/5/3 104/5/3 109/5/3
f 111/5/3 106/5/3 105/5/3
f 112/5/3 106/5/3 111/5/3
f 113/5/3 108/5/3 107/5/3
f 114/5/3 108/5/3 113/5/3
f 115/5/3 104/5/3 110/5/3
f 116/5/3 104/5/3 115/5/3
f 117/5/3 106/5/3 112/5/3
f 118/5/3 106/5/3 117/5/3
f 119/5/3 108/5/3 114/5/3
f 120/5/3 108/5/3 119/5/3
f 127/5/3 109/5/3 103/5/3
f 128/5/3 122/5/3 121/5/3
f 129/5/3 111/5/3 105/5/3
f 130/5/3 124/5/3 123/5/3
f 131/5/3 113/5/3 107/5/3
f 132/5/3 126/5/3 125/5/3
f 133/5/3 128/5/3 127/5/3
f 133/5/3 127/5/3 103/5/3
f 134/5/3 122/5/3 128/5/3
f 134/5/3 128/5/3 133/5/3
f 135/5/3 130/5/3 129/5/3
f 135/5/3 129/5/3 105/5/3
f 136/5/3 124/5/3 130/5/3
f 136/5/3 130/5/3 135/5/3
f 137/5/3 131/5/3 107/5/3
f 137/5/3 132/5/3 131/5/3
f 138/5/3 126/5/3 132/5/3
f 138/5/3 132/5/3 137/5/3
f 141/4/3 140/4/3 139/4/3
f 142/4/3 140/4/3 141/4/3
f 143/4/3 140/4/3 142/4/3
f 144/4/3 140/4/3 143/4/3
f 145/4/3 140/4/3 144/4/3
f 146/4/3 140/4/3 145/4/3
f 153/3/3 148/3/3 147/3/3
f 154/3/3 148/3/3 153/3/3
f 155/3/3 150/3/3 149/3/3
f 156/3/3 150/3/3 155/3/3
f 157/3/3 152/3/3 151/3/3
f 158/3/3 152/3/3 157/3/3
f 159/4/3 141/4/3 139/4/3
f 160/4/3 143/4/3 142/4/3
f 161/4/3 143/4/3 160/4/3
f 162/4/3 145/4/3 144/4/3
f 163/4/3 145/4/3 162/4/3
f 164/4/3 140/4/3 146/4/3
f 165/4/3 163/4/3 162/4/3
f 165/4/3 164/4/3 163/4/3
f 165/4/3 162/4/3 161/4/3
f 165/4/3 159/4/3 139/4/3
f 165/4/3 161/4/3 160/4/3
f 165/4/3 160/4/3 159/4/3
f 166/4/3 140/4/3 164/4/3
f 166/4/3 164/4/3 165/4/3
f 169/4/3 168/4/3 167/4/3
f 170/4/3 168/4/3 169/4/3
f 173/2/3 172/2/3 171/2/3
f 174/2/3 172/2/3 173/2/3
f 175/4/4 176/4/4 178/4/4
f 176/2/4 177/2/4 179/2/4
f 178/4/4 176/4/4 179/4/4
f 179/2/4 177/2/4 180/2/4
f 183/4/5 182/4/5 181/4/5
f 184/4/5 182/4/5 183/4/5
f 187/5/5 186/5/5 185/5/5
f 188/5/5 186/5/5 187/5/5
f 192/6/5 190/6/5 189/6/5
f 193/6/5 190/6/5 192/6/5
f 195/5/5 192/5/5 191/5/5
f 195/5/5 194/5/5 193/5/5
f 195/5/5 193/5/5 192/5/5
f 196/5/5 194/5/5 195/5/5
f 199/5/5 198/5/5 197/5/5
f 200/5/5 198/5/5 199/5/5
f 204/6/5 202/6/5 201/6/5
f 205/6/5 202/6/5 204/6/5
f 207/5/5 204/5/5 203/5/5
f 207/5/5 206/5/5 205/5/5
f 207/5/5 205/5/5 204/5/5
f 208/5/5 206/5/5 207/5/5
f 211/5/5 210/5/5 209/5/5
f 212/5/5 210/5/5 211/5/5
f 216/6/5 214/6/5 213/6/5
f 217/6/5 214/6/5 216/6/5
f 219/5/5 216/5/5 215/5/5
f 219/5/5 218/5/5 217/5/5
f 219/5/5 217/5/5 216/5/5
f 220/5/5 218/5/5 219/5/5
f 221/5/6 222/5/6 223/5/6
f 223/5/6 222/5/6 224/5/6
f 225/6/6 226/6/6 228/6/6
f 228/6/6 226/6/6 229/6/6
f 227/5/6 228/5/6 231/5/6
f 229/5/6 230/5/6 231/5/6
f 228/5/6 229/5/6 231/5/6
f 231/5/6 230/5/6 232/5/6
f 233/5/6 234/5/6 235/5/6
f 235/5/6 234/5/6 236/5/6
f 237/6/6 238/6/6 240/6/6
f 240/6/6 238/6/6 241/6/6
f 239/5/6 240/5/6 243/5/6
f 241/5/6 242/5/6 243/5/6
f 240/5/6 241/5/6 243/5/6
f 243/5/6 242/5/6 244/5/6
f 245/5/6 246/5/6 247/5/6
f 247/5/6 246/5/6 248/5/6
f 249/6/6 250/6/6 252/6/6
f 252/6/6 250/6/6 253/6/6
f 251/5/6 252/5/6 255/5/6
f 253/5/6 254/5/6 255/5/6
f 252/5/6 253/5/6 255/5/6
f 255/5/6 254/5/6 256/5/6
f 257/4/6 258/4/6 259/4/6
f 259/4/6 258/4/6 260/4/6
f 261/4/6 262/4/6 263/4/6
f 263/4/6 262/4/6 264/4/6
f 265/2/6 266/2/6 267/2/6
f 267/2/6 266/2/6 268/2/6
