# MagicaVoxel @ Ephtracy

# group
o 

# material
mtllib Micro.mtl
usemtl palette

# normals
vn -1 0 0
vn 1 0 0
vn 0 0 1
vn 0 0 -1
vn 0 -1 0
vn 0 1 0

# texcoords
vt 0.794922 0.5
vt 0.853516 0.5
vt 0.857422 0.5
vt 0.958984 0.5
vt 0.970703 0.5
vt 0.978516 0.5
vt 0.986328 0.5
vt 0.994141 0.5

# verts
v -1 1 0.2
v -1 1 -1.1
v -1 2.2 0.2
v -1 2.2 -1.1
v -0.8 1.1 0.2
v -0.8 1.1 0.1
v -0.8 2 0.2
v -0.8 2 0.1
v 0.3 1.2 0.2
v 0.3 1.2 0.1
v 0.3 1.9 0.2
v 0.3 1.9 0.1
v 0.4 1.2 0.4
v 0.4 1.2 0.3
v 0.4 1.2 0.2
v 0.4 1.3 0.3
v 0.4 1.3 0.2
v 0.4 1.8 0.3
v 0.4 1.8 0.2
v 0.4 1.9 0.4
v 0.4 1.9 0.3
v 0.4 1.9 0.2
v 0.6 1 0.2
v 0.6 1 0.1
v 0.6 2.1 0.2
v 0.6 2.1 0.1
v -0.9 1 0.2
v -0.9 1 0.1
v -0.9 2.1 0.2
v -0.9 2.1 0.1
v -0.7 1.2 0.2
v -0.7 1.2 0.1
v -0.7 1.9 0.2
v -0.7 1.9 0.1
v 0.5 1.1 0.2
v 0.5 1.1 0.1
v 0.5 1.2 0.4
v 0.5 1.2 0.3
v 0.5 1.2 0.2
v 0.5 1.3 0.3
v 0.5 1.3 0.2
v 0.5 1.8 0.3
v 0.5 1.8 0.2
v 0.5 1.9 0.4
v 0.5 1.9 0.3
v 0.5 1.9 0.2
v 0.5 2 0.2
v 0.5 2 0.1
v 1.1 1 0.2
v 1.1 1 -1.1
v 1.1 2.2 0.2
v 1.1 2.2 -1.1
v 0.4 1.2 0.4
v 0.4 1.9 0.4
v 0.5 1.2 0.4
v 0.5 1.9 0.4
v -1 1 0.2
v -1 2.2 0.2
v -0.9 1 0.2
v -0.9 2.1 0.2
v -0.8 1.1 0.2
v -0.8 2 0.2
v -0.7 1.2 0.2
v -0.7 1.9 0.2
v 0.3 1.2 0.2
v 0.3 1.9 0.2
v 0.4 1.2 0.2
v 0.4 1.3 0.2
v 0.4 1.8 0.2
v 0.4 1.9 0.2
v 0.5 1.1 0.2
v 0.5 1.2 0.2
v 0.5 1.3 0.2
v 0.5 1.8 0.2
v 0.5 1.9 0.2
v 0.5 2 0.2
v 0.6 1 0.2
v 0.6 2.1 0.2
v 0.7 1.1 0.2
v 0.7 1.2 0.2
v 0.7 1.3 0.2
v 0.7 1.4 0.2
v 0.7 1.5 0.2
v 0.7 1.6 0.2
v 0.7 1.7 0.2
v 0.7 1.8 0.2
v 0.7 1.9 0.2
v 0.7 2 0.2
v 0.8 1.1 0.2
v 0.8 1.2 0.2
v 0.8 1.3 0.2
v 0.8 1.4 0.2
v 0.8 1.5 0.2
v 0.8 1.6 0.2
v 0.9 1.1 0.2
v 0.9 1.2 0.2
v 0.9 1.3 0.2
v 0.9 1.4 0.2
v 0.9 1.5 0.2
v 1 1.1 0.2
v 1 1.2 0.2
v 1 1.3 0.2
v 1 1.4 0.2
v 1 1.5 0.2
v 1 1.7 0.2
v 1 1.8 0.2
v 1 1.9 0.2
v 1 2 0.2
v 1.1 1 0.2
v 1.1 2.2 0.2
v -0.9 1 0.1
v -0.9 2.1 0.1
v -0.8 1.1 0.1
v -0.8 2 0.1
v -0.7 1.2 0.1
v -0.7 1.9 0.1
v 0.3 1.2 0.1
v 0.3 1.9 0.1
v 0.5 1.1 0.1
v 0.5 2 0.1
v 0.6 1 0.1
v 0.6 2.1 0.1
v 0.4 1.3 0.3
v 0.4 1.8 0.3
v 0.5 1.3 0.3
v 0.5 1.8 0.3
v -1 1 -1.1
v -1 2.2 -1.1
v 1.1 1 -1.1
v 1.1 2.2 -1.1
v -1 1 0.2
v -0.9 1 0.2
v 0.6 1 0.2
v 1.1 1 0.2
v -0.9 1 0.1
v 0.6 1 0.1
v -0.9 1 0
v 0.6 1 0
v -1 1 -1.1
v 1.1 1 -1.1
v -0.8 1.1 0.2
v 0.5 1.1 0.2
v -0.8 1.1 0.1
v 0.5 1.1 0.1
v 0.4 1.2 0.4
v 0.5 1.2 0.4
v 0.4 1.2 0.3
v 0.5 1.2 0.3
v 0.4 1.2 0.2
v 0.5 1.2 0.2
v 0.4 1.8 0.3
v 0.5 1.8 0.3
v 0.4 1.8 0.2
v 0.5 1.8 0.2
v -0.7 1.9 0.2
v 0.3 1.9 0.2
v -0.7 1.9 0.1
v 0.3 1.9 0.1
v -0.9 2.1 0.2
v 0.6 2.1 0.2
v -0.9 2.1 0.1
v 0.6 2.1 0.1
v -0.7 1.2 0.2
v 0.3 1.2 0.2
v -0.7 1.2 0.1
v 0.3 1.2 0.1
v 0.4 1.3 0.3
v 0.5 1.3 0.3
v 0.4 1.3 0.2
v 0.5 1.3 0.2
v 0.4 1.9 0.4
v 0.5 1.9 0.4
v 0.4 1.9 0.3
v 0.5 1.9 0.3
v 0.4 1.9 0.2
v 0.5 1.9 0.2
v -0.8 2 0.2
v 0.5 2 0.2
v -0.8 2 0.1
v 0.5 2 0.1
v -1 2.2 0.2
v 1.1 2.2 0.2
v -1 2.2 -1.1
v 1.1 2.2 -1.1

# faces
f 3/6/1 2/6/1 1/6/1
f 4/6/1 2/6/1 3/6/1
f 7/6/1 6/6/1 5/6/1
f 8/6/1 6/6/1 7/6/1
f 11/6/1 10/6/1 9/6/1
f 12/6/1 10/6/1 11/6/1
f 16/5/1 14/5/1 13/5/1
f 16/6/1 15/6/1 14/6/1
f 17/6/1 15/6/1 16/6/1
f 18/5/1 16/5/1 13/5/1
f 20/5/1 18/5/1 13/5/1
f 21/6/1 19/6/1 18/6/1
f 21/5/1 18/5/1 20/5/1
f 22/6/1 19/6/1 21/6/1
f 25/6/1 24/6/1 23/6/1
f 26/6/1 24/6/1 25/6/1
f 27/6/2 28/6/2 29/6/2
f 29/6/2 28/6/2 30/6/2
f 31/6/2 32/6/2 33/6/2
f 33/6/2 32/6/2 34/6/2
f 35/6/2 36/6/2 39/6/2
f 37/5/2 38/5/2 40/5/2
f 38/6/2 39/6/2 40/6/2
f 39/6/2 36/6/2 41/6/2
f 40/6/2 39/6/2 41/6/2
f 37/5/2 40/5/2 42/5/2
f 41/6/2 36/6/2 43/6/2
f 37/5/2 42/5/2 44/5/2
f 42/6/2 43/6/2 45/6/2
f 44/5/2 42/5/2 45/5/2
f 43/6/2 36/6/2 46/6/2
f 45/6/2 43/6/2 46/6/2
f 46/6/2 36/6/2 47/6/2
f 47/6/2 36/6/2 48/6/2
f 49/6/2 50/6/2 51/6/2
f 51/6/2 50/6/2 52/6/2
f 55/5/3 54/5/3 53/5/3
f 56/5/3 54/5/3 55/5/3
f 59/6/3 58/6/3 57/6/3
f 60/6/3 58/6/3 59/6/3
f 63/6/3 62/6/3 61/6/3
f 64/6/3 62/6/3 63/6/3
f 65/6/3 63/6/3 61/6/3
f 66/6/3 62/6/3 64/6/3
f 67/6/3 65/6/3 61/6/3
f 67/6/3 66/6/3 65/6/3
f 68/6/3 66/6/3 67/6/3
f 69/6/3 66/6/3 68/6/3
f 70/6/3 62/6/3 66/6/3
f 70/6/3 66/6/3 69/6/3
f 71/6/3 67/6/3 61/6/3
f 72/6/3 67/6/3 71/6/3
f 73/6/3 69/6/3 68/6/3
f 74/6/3 69/6/3 73/6/3
f 75/6/3 62/6/3 70/6/3
f 76/6/3 62/6/3 75/6/3
f 78/6/3 58/6/3 60/6/3
f 79/6/3 78/6/3 77/6/3
f 80/6/3 78/6/3 79/6/3
f 81/6/3 78/6/3 80/6/3
f 82/6/3 78/6/3 81/6/3
f 83/6/3 78/6/3 82/6/3
f 84/6/3 78/6/3 83/6/3
f 85/6/3 78/6/3 84/6/3
f 86/6/3 78/6/3 85/6/3
f 87/6/3 78/6/3 86/6/3
f 88/6/3 78/6/3 87/6/3
f 89/6/3 79/6/3 77/6/3
f 89/4/3 80/4/3 79/4/3
f 90/6/3 81/6/3 80/6/3
f 90/4/3 80/4/3 89/4/3
f 91/4/3 82/4/3 81/4/3
f 91/6/3 81/6/3 90/6/3
f 92/6/3 83/6/3 82/6/3
f 92/4/3 82/4/3 91/4/3
f 93/4/3 84/4/3 83/4/3
f 93/6/3 83/6/3 92/6/3
f 94/6/3 85/6/3 84/6/3
f 94/4/3 84/4/3 93/4/3
f 95/6/3 89/6/3 77/6/3
f 95/6/3 90/6/3 89/6/3
f 96/4/3 91/4/3 90/4/3
f 96/6/3 90/6/3 95/6/3
f 97/6/3 92/6/3 91/6/3
f 97/4/3 91/4/3 96/4/3
f 98/4/3 93/4/3 92/4/3
f 98/6/3 92/6/3 97/6/3
f 99/6/3 94/6/3 93/6/3
f 99/4/3 93/4/3 98/4/3
f 100/6/3 95/6/3 77/6/3
f 100/1/3 96/1/3 95/1/3
f 101/2/3 97/2/3 96/2/3
f 101/1/3 96/1/3 100/1/3
f 102/6/3 98/6/3 97/6/3
f 102/2/3 97/2/3 101/2/3
f 103/1/3 99/1/3 98/1/3
f 103/6/3 98/6/3 102/6/3
f 104/6/3 94/6/3 99/6/3
f 104/1/3 99/1/3 103/1/3
f 105/6/3 85/6/3 94/6/3
f 105/6/3 94/6/3 104/6/3
f 105/8/3 86/8/3 85/8/3
f 106/3/3 87/3/3 86/3/3
f 106/8/3 86/8/3 105/8/3
f 107/8/3 88/8/3 87/8/3
f 107/3/3 87/3/3 106/3/3
f 108/6/3 78/6/3 88/6/3
f 108/8/3 88/8/3 107/8/3
f 109/6/3 107/6/3 106/6/3
f 109/6/3 106/6/3 105/6/3
f 109/6/3 108/6/3 107/6/3
f 109/6/3 105/6/3 104/6/3
f 109/6/3 100/6/3 77/6/3
f 109/6/3 102/6/3 101/6/3
f 109/6/3 103/6/3 102/6/3
f 109/6/3 101/6/3 100/6/3
f 109/6/3 104/6/3 103/6/3
f 110/6/3 58/6/3 78/6/3
f 110/6/3 108/6/3 109/6/3
f 110/6/3 78/6/3 108/6/3
f 113/7/3 112/7/3 111/7/3
f 114/7/3 112/7/3 113/7/3
f 117/7/3 116/7/3 115/7/3
f 118/7/3 116/7/3 117/7/3
f 119/7/3 113/7/3 111/7/3
f 120/7/3 112/7/3 114/7/3
f 121/7/3 119/7/3 111/7/3
f 121/7/3 120/7/3 119/7/3
f 122/7/3 112/7/3 120/7/3
f 122/7/3 120/7/3 121/7/3
f 123/5/4 124/5/4 125/5/4
f 125/5/4 124/5/4 126/5/4
f 127/6/4 128/6/4 129/6/4
f 129/6/4 128/6/4 130/6/4
f 135/6/5 132/6/5 131/6/5
f 136/6/5 134/6/5 133/6/5
f 137/6/5 135/6/5 131/6/5
f 137/7/5 136/7/5 135/7/5
f 138/6/5 134/6/5 136/6/5
f 138/7/5 136/7/5 137/7/5
f 139/6/5 137/6/5 131/6/5
f 139/6/5 138/6/5 137/6/5
f 140/6/5 134/6/5 138/6/5
f 140/6/5 138/6/5 139/6/5
f 143/6/5 142/6/5 141/6/5
f 144/6/5 142/6/5 143/6/5
f 147/5/5 146/5/5 145/5/5
f 148/5/5 146/5/5 147/5/5
f 149/6/5 148/6/5 147/6/5
f 150/6/5 148/6/5 149/6/5
f 153/6/5 152/6/5 151/6/5
f 154/6/5 152/6/5 153/6/5
f 157/6/5 156/6/5 155/6/5
f 158/6/5 156/6/5 157/6/5
f 161/6/5 160/6/5 159/6/5
f 162/6/5 160/6/5 161/6/5
f 163/6/6 164/6/6 165/6/6
f 165/6/6 164/6/6 166/6/6
f 167/6/6 168/6/6 169/6/6
f 169/6/6 168/6/6 170/6/6
f 171/5/6 172/5/6 173/5/6
f 173/5/6 172/5/6 174/5/6
f 173/6/6 174/6/6 175/6/6
f 175/6/6 174/6/6 176/6/6
f 177/6/6 178/6/6 179/6/6
f 179/6/6 178/6/6 180/6/6
f 181/6/6 182/6/6 183/6/6
f 183/6/6 182/6/6 184/6/6
