# MagicaVoxel @ Ephtracy

# group
o 

# material
mtllib salt.mtl
usemtl palette

# normals
vn -1 0 0
vn 1 0 0
vn 0 0 1
vn 0 0 -1
vn 0 -1 0
vn 0 1 0

# texcoords
vt 0.970703 0.5
vt 0.982422 0.5
vt 0.986328 0.5

# verts
v -0.7 2.1 0.7
v -0.7 2.1 -0.7
v -0.7 2.3 0.7
v -0.7 2.3 -0.7
v -0.6 2.3 0.6
v -0.6 2.3 -0.6
v -0.6 2.4 0.6
v -0.6 2.4 -0.6
v -0.5 1.1 0.5
v -0.5 1.1 -0.5
v -0.5 1.2 0.5
v -0.5 1.2 -0.5
v -0.5 2.1 0.5
v -0.5 2.1 -0.5
v -0.5 2.4 0.5
v -0.5 2.4 -0.5
v -0.5 2.5 0.5
v -0.5 2.5 -0.5
v -0.1 2.5 0.1
v -0.1 2.5 -0.1
v -0.1 2.6 0.1
v -0.1 2.6 -0.1
v 0.1 2.5 0.1
v 0.1 2.5 -0.1
v 0.1 2.6 0.1
v 0.1 2.6 -0.1
v 0.5 1.1 0.5
v 0.5 1.1 -0.5
v 0.5 1.2 0.5
v 0.5 1.2 -0.5
v 0.5 2.1 0.5
v 0.5 2.1 -0.5
v 0.5 2.4 0.5
v 0.5 2.4 -0.5
v 0.5 2.5 0.5
v 0.5 2.5 -0.5
v 0.6 2.3 0.6
v 0.6 2.3 -0.6
v 0.6 2.4 0.6
v 0.6 2.4 -0.6
v 0.7 2.1 0.7
v 0.7 2.1 -0.7
v 0.7 2.3 0.7
v 0.7 2.3 -0.7
v -0.7 2.1 0.7
v -0.7 2.3 0.7
v 0.7 2.1 0.7
v 0.7 2.3 0.7
v -0.6 2.3 0.6
v -0.6 2.4 0.6
v 0.6 2.3 0.6
v 0.6 2.4 0.6
v -0.5 1.1 0.5
v -0.5 1.2 0.5
v -0.5 2.1 0.5
v -0.5 2.4 0.5
v -0.5 2.5 0.5
v 0.5 1.1 0.5
v 0.5 1.2 0.5
v 0.5 2.1 0.5
v 0.5 2.4 0.5
v 0.5 2.5 0.5
v -0.1 2.5 0.1
v -0.1 2.6 0.1
v 0.1 2.5 0.1
v 0.1 2.6 0.1
v -0.1 2.5 -0.1
v -0.1 2.6 -0.1
v 0.1 2.5 -0.1
v 0.1 2.6 -0.1
v -0.5 1.1 -0.5
v -0.5 1.2 -0.5
v -0.5 2.1 -0.5
v -0.5 2.4 -0.5
v -0.5 2.5 -0.5
v 0.5 1.1 -0.5
v 0.5 1.2 -0.5
v 0.5 2.1 -0.5
v 0.5 2.4 -0.5
v 0.5 2.5 -0.5
v -0.6 2.3 -0.6
v -0.6 2.4 -0.6
v 0.6 2.3 -0.6
v 0.6 2.4 -0.6
v -0.7 2.1 -0.7
v -0.7 2.3 -0.7
v 0.7 2.1 -0.7
v 0.7 2.3 -0.7
v -0.5 1.1 0.5
v 0.5 1.1 0.5
v -0.5 1.1 -0.5
v 0.5 1.1 -0.5
v -0.7 2.1 0.7
v 0.7 2.1 0.7
v -0.5 2.1 0.5
v 0.5 2.1 0.5
v -0.5 2.1 -0.5
v 0.5 2.1 -0.5
v -0.7 2.1 -0.7
v 0.7 2.1 -0.7
v -0.7 2.3 0.7
v 0.7 2.3 0.7
v -0.6 2.3 0.6
v 0.6 2.3 0.6
v -0.6 2.3 -0.6
v 0.6 2.3 -0.6
v -0.7 2.3 -0.7
v 0.7 2.3 -0.7
v -0.6 2.4 0.6
v 0.6 2.4 0.6
v -0.5 2.4 0.5
v 0.5 2.4 0.5
v -0.5 2.4 -0.5
v 0.5 2.4 -0.5
v -0.6 2.4 -0.6
v 0.6 2.4 -0.6
v -0.5 2.5 0.5
v 0.5 2.5 0.5
v -0.1 2.5 0.1
v 0.1 2.5 0.1
v -0.1 2.5 -0.1
v 0.1 2.5 -0.1
v -0.5 2.5 -0.5
v 0.5 2.5 -0.5
v -0.1 2.6 0.1
v 0.1 2.6 0.1
v -0.1 2.6 -0.1
v 0.1 2.6 -0.1

# faces
f 3/3/1 2/3/1 1/3/1
f 4/3/1 2/3/1 3/3/1
f 7/3/1 6/3/1 5/3/1
f 8/3/1 6/3/1 7/3/1
f 11/3/1 10/3/1 9/3/1
f 12/3/1 10/3/1 11/3/1
f 13/2/1 12/2/1 11/2/1
f 14/2/1 12/2/1 13/2/1
f 17/3/1 16/3/1 15/3/1
f 18/3/1 16/3/1 17/3/1
f 21/1/1 20/1/1 19/1/1
f 22/1/1 20/1/1 21/1/1
f 23/1/2 24/1/2 25/1/2
f 25/1/2 24/1/2 26/1/2
f 27/3/2 28/3/2 29/3/2
f 29/3/2 28/3/2 30/3/2
f 29/2/2 30/2/2 31/2/2
f 31/2/2 30/2/2 32/2/2
f 33/3/2 34/3/2 35/3/2
f 35/3/2 34/3/2 36/3/2
f 37/3/2 38/3/2 39/3/2
f 39/3/2 38/3/2 40/3/2
f 41/3/2 42/3/2 43/3/2
f 43/3/2 42/3/2 44/3/2
f 47/3/3 46/3/3 45/3/3
f 48/3/3 46/3/3 47/3/3
f 51/3/3 50/3/3 49/3/3
f 52/3/3 50/3/3 51/3/3
f 58/3/3 54/3/3 53/3/3
f 59/2/3 55/2/3 54/2/3
f 59/3/3 54/3/3 58/3/3
f 60/2/3 55/2/3 59/2/3
f 61/3/3 57/3/3 56/3/3
f 62/3/3 57/3/3 61/3/3
f 65/1/3 64/1/3 63/1/3
f 66/1/3 64/1/3 65/1/3
f 67/1/4 68/1/4 69/1/4
f 69/1/4 68/1/4 70/1/4
f 71/3/4 72/3/4 76/3/4
f 72/2/4 73/2/4 77/2/4
f 76/3/4 72/3/4 77/3/4
f 77/2/4 73/2/4 78/2/4
f 74/3/4 75/3/4 79/3/4
f 79/3/4 75/3/4 80/3/4
f 81/3/4 82/3/4 83/3/4
f 83/3/4 82/3/4 84/3/4
f 85/3/4 86/3/4 87/3/4
f 87/3/4 86/3/4 88/3/4
f 91/3/5 90/3/5 89/3/5
f 92/3/5 90/3/5 91/3/5
f 95/3/5 94/3/5 93/3/5
f 96/3/5 94/3/5 95/3/5
f 97/3/5 95/3/5 93/3/5
f 98/3/5 94/3/5 96/3/5
f 99/3/5 97/3/5 93/3/5
f 99/3/5 98/3/5 97/3/5
f 100/3/5 94/3/5 98/3/5
f 100/3/5 98/3/5 99/3/5
f 101/3/6 102/3/6 103/3/6
f 103/3/6 102/3/6 104/3/6
f 101/3/6 103/3/6 105/3/6
f 104/3/6 102/3/6 106/3/6
f 101/3/6 105/3/6 107/3/6
f 105/3/6 106/3/6 107/3/6
f 106/3/6 102/3/6 108/3/6
f 107/3/6 106/3/6 108/3/6
f 109/3/6 110/3/6 111/3/6
f 111/3/6 110/3/6 112/3/6
f 109/3/6 111/3/6 113/3/6
f 112/3/6 110/3/6 114/3/6
f 109/3/6 113/3/6 115/3/6
f 113/3/6 114/3/6 115/3/6
f 114/3/6 110/3/6 116/3/6
f 115/3/6 114/3/6 116/3/6
f 117/3/6 118/3/6 119/3/6
f 119/3/6 118/3/6 120/3/6
f 117/3/6 119/3/6 121/3/6
f 120/3/6 118/3/6 122/3/6
f 117/3/6 121/3/6 123/3/6
f 121/3/6 122/3/6 123/3/6
f 122/3/6 118/3/6 124/3/6
f 123/3/6 122/3/6 124/3/6
f 125/1/6 126/1/6 127/1/6
f 127/1/6 126/1/6 128/1/6
