# MagicaVoxel @ Ephtracy

# group
o 

# material
mtllib wall_instruments.mtl
usemtl palette

# normals
vn -1 0 0
vn 1 0 0
vn 0 0 1
vn 0 0 -1
vn 0 -1 0
vn 0 1 0

# texcoords
vt 0.369141 0.5
vt 0.373047 0.5
vt 0.904297 0.5
vt 0.982422 0.5
vt 0.986328 0.5

# verts
v -1 1.8 0.5
v -1 1.8 0.3
v -1 2 0.5
v -1 2 0.3
v -0.8 1.3 0.2
v -0.8 1.3 0.1
v -0.8 1.4 0.2
v -0.8 1.4 0.1
v -0.7 1.2 0.2
v -0.7 1.2 0.1
v -0.7 1.3 0.2
v -0.7 1.3 0.1
v -0.7 1.4 0.2
v -0.7 1.4 0.1
v -0.7 1.8 0.3
v -0.7 1.8 0.2
v -0.7 1.9 0.3
v -0.7 1.9 0.2
v -0.7 1.9 0.1
v -0.5 0.9 0.3
v -0.5 0.9 0.1
v -0.5 1.2 0.3
v -0.5 1.2 0.1
v -0.4 0.8 0.3
v -0.4 0.8 0.1
v -0.4 0.9 0.3
v -0.4 0.9 0.1
v -0.4 1.2 0.3
v -0.4 1.2 0.1
v -0.4 1.3 0.3
v -0.4 1.3 0.1
v -0.3 0.7 0.3
v -0.3 0.7 0.1
v -0.3 0.8 0.3
v -0.3 0.8 0.1
v -0.3 1.3 0.3
v -0.3 1.3 0.1
v -0.3 1.4 0.3
v -0.3 1.4 0.1
v -0.2 1.4 0.2
v -0.2 1.4 0.1
v -0.2 1.8 0.3
v -0.2 1.8 0.2
v -0.2 1.9 0.3
v -0.2 1.9 0.2
v -0.2 2 0.2
v -0.2 2 0.1
v 0 0.8 0.3
v 0 0.8 0.2
v 0 0.9 0.3
v 0 0.9 0.2
v 0 1.2 0.3
v 0 1.2 0.2
v 0 1.3 0.3
v 0 1.3 0.2
v 0.1 0.9 0.3
v 0.1 0.9 0.2
v 0.1 1.2 0.3
v 0.1 1.2 0.2
v 0.1 1.3 0.3
v 0.1 1.3 0.1
v 0.1 1.3 0
v 0.1 1.5 0.3
v 0.1 1.5 0
v 0.2 1.5 0.2
v 0.2 1.5 0.1
v 0.2 1.8 0.3
v 0.2 1.8 0.2
v 0.2 1.9 0.3
v 0.2 1.9 0.2
v 0.2 1.9 0.1
v 0.6 0.8 0.2
v 0.6 0.8 0.1
v 0.6 1.1 0.2
v 0.6 1.1 0.1
v 0.7 1.1 0.2
v 0.7 1.1 0.1
v 0.7 1.8 0.3
v 0.7 1.8 0.2
v 0.7 1.9 0.3
v 0.7 1.9 0.2
v 0.7 1.9 0.1
v -0.6 1.2 0.2
v -0.6 1.2 0.1
v -0.6 1.3 0.2
v -0.6 1.3 0.1
v -0.6 1.4 0.2
v -0.6 1.4 0.1
v -0.6 1.8 0.3
v -0.6 1.8 0.2
v -0.6 1.9 0.3
v -0.6 1.9 0.2
v -0.6 1.9 0.1
v -0.5 1.3 0.2
v -0.5 1.3 0.1
v -0.5 1.4 0.2
v -0.5 1.4 0.1
v -0.4 0.9 0.3
v -0.4 0.9 0.2
v -0.4 1.2 0.3
v -0.4 1.2 0.2
v -0.3 0.8 0.3
v -0.3 0.8 0.2
v -0.3 0.9 0.3
v -0.3 0.9 0.2
v -0.3 1.2 0.3
v -0.3 1.2 0.2
v -0.3 1.3 0.3
v -0.3 1.3 0.2
v -0.1 1.4 0.2
v -0.1 1.4 0.1
v -0.1 1.8 0.3
v -0.1 1.8 0.2
v -0.1 1.9 0.3
v -0.1 1.9 0.2
v -0.1 2 0.2
v -0.1 2 0.1
v 0 0.7 0.3
v 0 0.7 0.1
v 0 0.8 0.3
v 0 0.8 0.1
v 0 1.3 0.3
v 0 1.3 0.1
v 0 1.4 0.3
v 0 1.4 0.1
v 0.1 0.8 0.3
v 0.1 0.8 0.1
v 0.1 0.9 0.3
v 0.1 0.9 0.1
v 0.1 1.2 0.3
v 0.1 1.2 0.1
v 0.1 1.3 0.3
v 0.1 1.3 0.1
v 0.2 0.9 0.3
v 0.2 0.9 0.1
v 0.2 1.2 0.3
v 0.2 1.2 0.1
v 0.3 1.5 0.2
v 0.3 1.5 0.1
v 0.3 1.8 0.3
v 0.3 1.8 0.2
v 0.3 1.9 0.3
v 0.3 1.9 0.2
v 0.3 1.9 0.1
v 0.4 1.3 0.3
v 0.4 1.3 0
v 0.4 1.5 0.3
v 0.4 1.5 0
v 0.8 1.1 0.2
v 0.8 1.1 0.1
v 0.8 1.8 0.3
v 0.8 1.8 0.2
v 0.8 1.9 0.3
v 0.8 1.9 0.2
v 0.8 1.9 0.1
v 0.9 0.8 0.2
v 0.9 0.8 0.1
v 0.9 1.1 0.2
v 0.9 1.1 0.1
v 1 1.8 0.5
v 1 1.8 0.3
v 1 2 0.5
v 1 2 0.3
v -1 1.8 0.5
v -1 2 0.5
v 1 1.8 0.5
v 1 2 0.5
v -0.5 0.9 0.3
v -0.5 1.2 0.3
v -0.4 0.8 0.3
v -0.4 0.9 0.3
v -0.4 1.2 0.3
v -0.4 1.3 0.3
v -0.3 0.7 0.3
v -0.3 0.8 0.3
v -0.3 0.9 0.3
v -0.3 1.2 0.3
v -0.3 1.3 0.3
v -0.3 1.4 0.3
v 0 0.7 0.3
v 0 0.8 0.3
v 0 0.9 0.3
v 0 1.2 0.3
v 0 1.3 0.3
v 0 1.4 0.3
v 0.1 0.8 0.3
v 0.1 0.9 0.3
v 0.1 1.2 0.3
v 0.1 1.3 0.3
v 0.1 1.5 0.3
v 0.2 0.9 0.3
v 0.2 1.2 0.3
v 0.4 1.3 0.3
v 0.4 1.5 0.3
v -0.8 1.3 0.2
v -0.8 1.4 0.2
v -0.7 1.2 0.2
v -0.7 1.3 0.2
v -0.7 1.4 0.2
v -0.7 1.8 0.2
v -0.6 1.2 0.2
v -0.6 1.3 0.2
v -0.6 1.4 0.2
v -0.6 1.8 0.2
v -0.5 1.3 0.2
v -0.5 1.4 0.2
v -0.4 0.9 0.2
v -0.4 1.2 0.2
v -0.3 0.8 0.2
v -0.3 0.9 0.2
v -0.3 1.2 0.2
v -0.3 1.3 0.2
v -0.2 1.4 0.2
v -0.2 1.8 0.2
v -0.2 1.9 0.2
v -0.2 2 0.2
v -0.1 1.4 0.2
v -0.1 1.8 0.2
v -0.1 1.9 0.2
v -0.1 2 0.2
v 0 0.8 0.2
v 0 0.9 0.2
v 0 1.2 0.2
v 0 1.3 0.2
v 0.1 0.9 0.2
v 0.1 1.2 0.2
v 0.2 1.5 0.2
v 0.2 1.8 0.2
v 0.3 1.5 0.2
v 0.3 1.8 0.2
v 0.6 0.8 0.2
v 0.6 1.1 0.2
v 0.7 1.1 0.2
v 0.7 1.8 0.2
v 0.8 1.1 0.2
v 0.8 1.8 0.2
v 0.9 0.8 0.2
v 0.9 1.1 0.2
v -1 1.8 0.3
v -1 2 0.3
v -0.7 1.8 0.3
v -0.7 1.9 0.3
v -0.6 1.8 0.3
v -0.6 1.9 0.3
v -0.2 1.8 0.3
v -0.2 1.9 0.3
v -0.1 1.8 0.3
v -0.1 1.9 0.3
v 0.2 1.8 0.3
v 0.2 1.9 0.3
v 0.3 1.8 0.3
v 0.3 1.9 0.3
v 0.7 1.8 0.3
v 0.7 1.9 0.3
v 0.8 1.8 0.3
v 0.8 1.9 0.3
v 1 1.8 0.3
v 1 2 0.3
v -0.8 1.3 0.1
v -0.8 1.4 0.1
v -0.7 1.2 0.1
v -0.7 1.3 0.1
v -0.7 1.4 0.1
v -0.7 1.9 0.1
v -0.6 1.2 0.1
v -0.6 1.3 0.1
v -0.6 1.4 0.1
v -0.6 1.9 0.1
v -0.5 0.9 0.1
v -0.5 1.2 0.1
v -0.5 1.3 0.1
v -0.5 1.4 0.1
v -0.4 0.8 0.1
v -0.4 0.9 0.1
v -0.4 1.2 0.1
v -0.4 1.3 0.1
v -0.3 0.7 0.1
v -0.3 0.8 0.1
v -0.3 1.3 0.1
v -0.3 1.4 0.1
v -0.2 1.4 0.1
v -0.2 2 0.1
v -0.1 1.4 0.1
v -0.1 2 0.1
v 0 0.7 0.1
v 0 0.8 0.1
v 0 1.3 0.1
v 0 1.4 0.1
v 0.1 0.8 0.1
v 0.1 0.9 0.1
v 0.1 1.2 0.1
v 0.1 1.3 0.1
v 0.2 0.9 0.1
v 0.2 1.2 0.1
v 0.2 1.5 0.1
v 0.2 1.9 0.1
v 0.3 1.5 0.1
v 0.3 1.9 0.1
v 0.6 0.8 0.1
v 0.6 1.1 0.1
v 0.7 1.1 0.1
v 0.7 1.9 0.1
v 0.8 1.1 0.1
v 0.8 1.9 0.1
v 0.9 0.8 0.1
v 0.9 1.1 0.1
v 0.1 1.3 0
v 0.1 1.5 0
v 0.4 1.3 0
v 0.4 1.5 0
v -0.3 0.7 0.3
v 0 0.7 0.3
v -0.3 0.7 0.1
v 0 0.7 0.1
v -0.4 0.8 0.3
v -0.3 0.8 0.3
v 0 0.8 0.3
v 0.1 0.8 0.3
v 0.6 0.8 0.2
v 0.9 0.8 0.2
v -0.4 0.8 0.1
v -0.3 0.8 0.1
v 0 0.8 0.1
v 0.1 0.8 0.1
v 0.6 0.8 0.1
v 0.9 0.8 0.1
v -0.5 0.9 0.3
v -0.4 0.9 0.3
v 0.1 0.9 0.3
v 0.2 0.9 0.3
v -0.5 0.9 0.1
v -0.4 0.9 0.1
v 0.1 0.9 0.1
v 0.2 0.9 0.1
v -0.4 1.2 0.3
v -0.3 1.2 0.3
v 0 1.2 0.3
v 0.1 1.2 0.3
v -0.7 1.2 0.2
v -0.6 1.2 0.2
v -0.4 1.2 0.2
v -0.3 1.2 0.2
v 0 1.2 0.2
v 0.1 1.2 0.2
v -0.7 1.2 0.1
v -0.6 1.2 0.1
v -0.3 1.3 0.3
v 0 1.3 0.3
v 0.1 1.3 0.3
v 0.4 1.3 0.3
v -0.8 1.3 0.2
v -0.7 1.3 0.2
v -0.6 1.3 0.2
v -0.5 1.3 0.2
v -0.3 1.3 0.2
v 0 1.3 0.2
v -0.8 1.3 0.1
v -0.7 1.3 0.1
v -0.6 1.3 0.1
v -0.5 1.3 0.1
v 0.1 1.3 0.1
v 0.1 1.3 0
v 0.4 1.3 0
v -1 1.8 0.5
v 1 1.8 0.5
v -1 1.8 0.3
v -0.7 1.8 0.3
v -0.6 1.8 0.3
v -0.2 1.8 0.3
v -0.1 1.8 0.3
v 0.2 1.8 0.3
v 0.3 1.8 0.3
v 0.7 1.8 0.3
v 0.8 1.8 0.3
v 1 1.8 0.3
v -0.7 1.8 0.2
v -0.6 1.8 0.2
v -0.2 1.8 0.2
v -0.1 1.8 0.2
v 0.2 1.8 0.2
v 0.3 1.8 0.2
v 0.7 1.8 0.2
v 0.8 1.8 0.2
v -0.3 0.8 0.3
v 0 0.8 0.3
v -0.3 0.8 0.2
v 0 0.8 0.2
v -0.4 0.9 0.3
v -0.3 0.9 0.3
v 0 0.9 0.3
v 0.1 0.9 0.3
v -0.4 0.9 0.2
v -0.3 0.9 0.2
v 0 0.9 0.2
v 0.1 0.9 0.2
v 0.6 1.1 0.2
v 0.7 1.1 0.2
v 0.8 1.1 0.2
v 0.9 1.1 0.2
v 0.6 1.1 0.1
v 0.7 1.1 0.1
v 0.8 1.1 0.1
v 0.9 1.1 0.1
v -0.5 1.2 0.3
v -0.4 1.2 0.3
v 0.1 1.2 0.3
v 0.2 1.2 0.3
v -0.5 1.2 0.1
v -0.4 1.2 0.1
v 0.1 1.2 0.1
v 0.2 1.2 0.1
v -0.4 1.3 0.3
v -0.3 1.3 0.3
v 0 1.3 0.3
v 0.1 1.3 0.3
v -0.4 1.3 0.1
v -0.3 1.3 0.1
v 0 1.3 0.1
v 0.1 1.3 0.1
v -0.3 1.4 0.3
v 0 1.4 0.3
v -0.8 1.4 0.2
v -0.7 1.4 0.2
v -0.6 1.4 0.2
v -0.5 1.4 0.2
v -0.2 1.4 0.2
v -0.1 1.4 0.2
v -0.8 1.4 0.1
v -0.7 1.4 0.1
v -0.6 1.4 0.1
v -0.5 1.4 0.1
v -0.3 1.4 0.1
v -0.2 1.4 0.1
v -0.1 1.4 0.1
v 0 1.4 0.1
v 0.1 1.5 0.3
v 0.4 1.5 0.3
v 0.2 1.5 0.2
v 0.3 1.5 0.2
v 0.2 1.5 0.1
v 0.3 1.5 0.1
v 0.1 1.5 0
v 0.4 1.5 0
v -0.7 1.9 0.3
v -0.6 1.9 0.3
v -0.2 1.9 0.3
v -0.1 1.9 0.3
v 0.2 1.9 0.3
v 0.3 1.9 0.3
v 0.7 1.9 0.3
v 0.8 1.9 0.3
v -0.7 1.9 0.2
v -0.6 1.9 0.2
v -0.2 1.9 0.2
v -0.1 1.9 0.2
v 0.2 1.9 0.2
v 0.3 1.9 0.2
v 0.7 1.9 0.2
v 0.8 1.9 0.2
v -0.7 1.9 0.1
v -0.6 1.9 0.1
v 0.2 1.9 0.1
v 0.3 1.9 0.1
v 0.7 1.9 0.1
v 0.8 1.9 0.1
v -1 2 0.5
v 1 2 0.5
v -1 2 0.3
v 1 2 0.3
v -0.2 2 0.2
v -0.1 2 0.2
v -0.2 2 0.1
v -0.1 2 0.1

# faces
f 3/1/1 2/1/1 1/1/1
f 4/1/1 2/1/1 3/1/1
f 7/2/1 6/2/1 5/2/1
f 8/2/1 6/2/1 7/2/1
f 11/2/1 10/2/1 9/2/1
f 12/2/1 10/2/1 11/2/1
f 16/2/1 14/2/1 13/2/1
f 17/4/1 16/4/1 15/4/1
f 18/2/1 14/2/1 16/2/1
f 18/4/1 16/4/1 17/4/1
f 19/2/1 14/2/1 18/2/1
f 22/5/1 21/5/1 20/5/1
f 23/5/1 21/5/1 22/5/1
f 26/5/1 25/5/1 24/5/1
f 27/5/1 25/5/1 26/5/1
f 30/5/1 29/5/1 28/5/1
f 31/5/1 29/5/1 30/5/1
f 34/5/1 33/5/1 32/5/1
f 35/5/1 33/5/1 34/5/1
f 38/5/1 37/5/1 36/5/1
f 39/5/1 37/5/1 38/5/1
f 43/5/1 41/5/1 40/5/1
f 44/4/1 43/4/1 42/4/1
f 45/5/1 41/5/1 43/5/1
f 45/4/1 43/4/1 44/4/1
f 46/5/1 41/5/1 45/5/1
f 47/5/1 41/5/1 46/5/1
f 50/5/1 49/5/1 48/5/1
f 51/5/1 49/5/1 50/5/1
f 54/5/1 53/5/1 52/5/1
f 55/5/1 53/5/1 54/5/1
f 58/5/1 57/5/1 56/5/1
f 59/5/1 57/5/1 58/5/1
f 63/4/1 61/4/1 60/4/1
f 63/4/1 62/4/1 61/4/1
f 64/4/1 62/4/1 63/4/1
f 68/3/1 66/3/1 65/3/1
f 69/4/1 68/4/1 67/4/1
f 70/3/1 66/3/1 68/3/1
f 70/4/1 68/4/1 69/4/1
f 71/3/1 66/3/1 70/3/1
f 74/2/1 73/2/1 72/2/1
f 75/2/1 73/2/1 74/2/1
f 79/2/1 77/2/1 76/2/1
f 80/4/1 79/4/1 78/4/1
f 81/2/1 77/2/1 79/2/1
f 81/4/1 79/4/1 80/4/1
f 82/2/1 77/2/1 81/2/1
f 83/2/2 84/2/2 85/2/2
f 85/2/2 84/2/2 86/2/2
f 87/2/2 88/2/2 90/2/2
f 89/4/2 90/4/2 91/4/2
f 90/2/2 88/2/2 92/2/2
f 91/4/2 90/4/2 92/4/2
f 92/2/2 88/2/2 93/2/2
f 94/2/2 95/2/2 96/2/2
f 96/2/2 95/2/2 97/2/2
f 98/5/2 99/5/2 100/5/2
f 100/5/2 99/5/2 101/5/2
f 102/5/2 103/5/2 104/5/2
f 104/5/2 103/5/2 105/5/2
f 106/5/2 107/5/2 108/5/2
f 108/5/2 107/5/2 109/5/2
f 110/5/2 111/5/2 113/5/2
f 112/4/2 113/4/2 114/4/2
f 113/5/2 111/5/2 115/5/2
f 114/4/2 113/4/2 115/4/2
f 115/5/2 111/5/2 116/5/2
f 116/5/2 111/5/2 117/5/2
f 118/5/2 119/5/2 120/5/2
f 120/5/2 119/5/2 121/5/2
f 122/5/2 123/5/2 124/5/2
f 124/5/2 123/5/2 125/5/2
f 126/5/2 127/5/2 128/5/2
f 128/5/2 127/5/2 129/5/2
f 130/5/2 131/5/2 132/5/2
f 132/5/2 131/5/2 133/5/2
f 134/5/2 135/5/2 136/5/2
f 136/5/2 135/5/2 137/5/2
f 138/3/2 139/3/2 141/3/2
f 140/4/2 141/4/2 142/4/2
f 141/3/2 139/3/2 143/3/2
f 142/4/2 141/4/2 143/4/2
f 143/3/2 139/3/2 144/3/2
f 145/4/2 146/4/2 147/4/2
f 147/4/2 146/4/2 148/4/2
f 149/2/2 150/2/2 152/2/2
f 151/4/2 152/4/2 153/4/2
f 152/2/2 150/2/2 154/2/2
f 153/4/2 152/4/2 154/4/2
f 154/2/2 150/2/2 155/2/2
f 156/2/2 157/2/2 158/2/2
f 158/2/2 157/2/2 159/2/2
f 160/1/2 161/1/2 162/1/2
f 162/1/2 161/1/2 163/1/2
f 166/1/3 165/1/3 164/1/3
f 167/1/3 165/1/3 166/1/3
f 171/5/3 169/5/3 168/5/3
f 172/5/3 169/5/3 171/5/3
f 175/5/3 171/5/3 170/5/3
f 176/5/3 171/5/3 175/5/3
f 177/5/3 173/5/3 172/5/3
f 178/5/3 173/5/3 177/5/3
f 180/5/3 175/5/3 174/5/3
f 181/5/3 175/5/3 180/5/3
f 184/5/3 179/5/3 178/5/3
f 185/5/3 179/5/3 184/5/3
f 186/5/3 182/5/3 181/5/3
f 187/5/3 182/5/3 186/5/3
f 188/5/3 184/5/3 183/5/3
f 189/5/3 184/5/3 188/5/3
f 191/5/3 188/5/3 187/5/3
f 192/5/3 188/5/3 191/5/3
f 193/4/3 190/4/3 189/4/3
f 194/4/3 190/4/3 193/4/3
f 198/2/3 196/2/3 195/2/3
f 199/2/3 196/2/3 198/2/3
f 201/2/3 198/2/3 197/2/3
f 201/2/3 200/2/3 199/2/3
f 201/2/3 199/2/3 198/2/3
f 202/2/3 200/2/3 201/2/3
f 203/2/3 200/2/3 202/2/3
f 204/2/3 200/2/3 203/2/3
f 205/2/3 203/2/3 202/2/3
f 206/2/3 203/2/3 205/2/3
f 210/5/3 208/5/3 207/5/3
f 211/5/3 208/5/3 210/5/3
f 217/5/3 214/5/3 213/5/3
f 218/5/3 214/5/3 217/5/3
f 219/5/3 216/5/3 215/5/3
f 220/5/3 216/5/3 219/5/3
f 221/5/3 212/5/3 211/5/3
f 221/5/3 210/5/3 209/5/3
f 221/5/3 211/5/3 210/5/3
f 222/5/3 212/5/3 221/5/3
f 223/5/3 212/5/3 222/5/3
f 224/5/3 212/5/3 223/5/3
f 225/5/3 223/5/3 222/5/3
f 226/5/3 223/5/3 225/5/3
f 229/3/3 228/3/3 227/3/3
f 230/3/3 228/3/3 229/3/3
f 233/2/3 232/2/3 231/2/3
f 235/2/3 233/2/3 231/2/3
f 235/2/3 234/2/3 233/2/3
f 236/2/3 234/2/3 235/2/3
f 237/2/3 235/2/3 231/2/3
f 238/2/3 235/2/3 237/2/3
f 239/1/4 240/1/4 241/1/4
f 241/1/4 240/1/4 242/1/4
f 242/1/4 240/1/4 244/1/4
f 243/1/4 244/1/4 245/1/4
f 244/1/4 240/1/4 246/1/4
f 245/1/4 244/1/4 246/1/4
f 246/1/4 240/1/4 248/1/4
f 247/1/4 248/1/4 249/1/4
f 248/1/4 240/1/4 250/1/4
f 249/1/4 248/1/4 250/1/4
f 250/1/4 240/1/4 252/1/4
f 251/1/4 252/1/4 253/1/4
f 252/1/4 240/1/4 254/1/4
f 253/1/4 252/1/4 254/1/4
f 254/1/4 240/1/4 256/1/4
f 255/1/4 256/1/4 257/1/4
f 256/1/4 240/1/4 258/1/4
f 257/1/4 256/1/4 258/1/4
f 259/2/4 260/2/4 262/2/4
f 262/2/4 260/2/4 263/2/4
f 261/2/4 262/2/4 265/2/4
f 263/2/4 264/2/4 265/2/4
f 262/2/4 263/2/4 265/2/4
f 265/2/4 264/2/4 266/2/4
f 266/2/4 264/2/4 267/2/4
f 267/2/4 264/2/4 268/2/4
f 266/2/4 267/2/4 271/2/4
f 271/2/4 267/2/4 272/2/4
f 269/5/4 270/5/4 274/5/4
f 274/5/4 270/5/4 275/5/4
f 273/5/4 274/5/4 278/5/4
f 275/5/4 276/5/4 278/5/4
f 274/5/4 275/5/4 278/5/4
f 278/5/4 276/5/4 279/5/4
f 277/5/4 278/5/4 281/5/4
f 279/5/4 280/5/4 281/5/4
f 278/5/4 279/5/4 281/5/4
f 277/5/4 281/5/4 283/5/4
f 281/5/4 282/5/4 283/5/4
f 283/5/4 282/5/4 284/5/4
f 277/5/4 283/5/4 285/5/4
f 285/5/4 283/5/4 286/5/4
f 286/5/4 283/5/4 287/5/4
f 287/5/4 283/5/4 288/5/4
f 286/5/4 287/5/4 289/5/4
f 289/5/4 287/5/4 290/5/4
f 290/5/4 287/5/4 291/5/4
f 291/5/4 287/5/4 292/5/4
f 290/5/4 291/5/4 293/5/4
f 293/5/4 291/5/4 294/5/4
f 295/3/4 296/3/4 297/3/4
f 297/3/4 296/3/4 298/3/4
f 299/2/4 300/2/4 301/2/4
f 299/2/4 301/2/4 303/2/4
f 301/2/4 302/2/4 303/2/4
f 303/2/4 302/2/4 304/2/4
f 299/2/4 303/2/4 305/2/4
f 305/2/4 303/2/4 306/2/4
f 307/4/4 308/4/4 309/4/4
f 309/4/4 308/4/4 310/4/4
f 313/5/5 312/5/5 311/5/5
f 314/5/5 312/5/5 313/5/5
f 321/5/5 316/5/5 315/5/5
f 322/5/5 316/5/5 321/5/5
f 323/5/5 318/5/5 317/5/5
f 324/5/5 318/5/5 323/5/5
f 325/2/5 320/2/5 319/2/5
f 326/2/5 320/2/5 325/2/5
f 331/5/5 328/5/5 327/5/5
f 332/5/5 328/5/5 331/5/5
f 333/5/5 330/5/5 329/5/5
f 334/5/5 330/5/5 333/5/5
f 341/5/5 336/5/5 335/5/5
f 342/5/5 336/5/5 341/5/5
f 343/5/5 338/5/5 337/5/5
f 344/5/5 338/5/5 343/5/5
f 345/2/5 340/2/5 339/2/5
f 346/2/5 340/2/5 345/2/5
f 355/5/5 348/5/5 347/5/5
f 356/5/5 348/5/5 355/5/5
f 357/2/5 352/2/5 351/2/5
f 358/2/5 352/2/5 357/2/5
f 359/2/5 354/2/5 353/2/5
f 360/2/5 354/2/5 359/2/5
f 361/4/5 350/4/5 349/4/5
f 362/4/5 350/4/5 361/4/5
f 363/4/5 350/4/5 362/4/5
f 366/1/5 365/1/5 364/1/5
f 367/1/5 365/1/5 366/1/5
f 368/1/5 365/1/5 367/1/5
f 369/1/5 365/1/5 368/1/5
f 370/1/5 365/1/5 369/1/5
f 371/1/5 365/1/5 370/1/5
f 372/1/5 365/1/5 371/1/5
f 373/1/5 365/1/5 372/1/5
f 374/1/5 365/1/5 373/1/5
f 375/1/5 365/1/5 374/1/5
f 376/4/5 368/4/5 367/4/5
f 377/4/5 368/4/5 376/4/5
f 378/4/5 370/4/5 369/4/5
f 379/4/5 370/4/5 378/4/5
f 380/4/5 372/4/5 371/4/5
f 381/4/5 372/4/5 380/4/5
f 382/4/5 374/4/5 373/4/5
f 383/4/5 374/4/5 382/4/5
f 384/5/6 385/5/6 386/5/6
f 386/5/6 385/5/6 387/5/6
f 388/5/6 389/5/6 392/5/6
f 392/5/6 389/5/6 393/5/6
f 390/5/6 391/5/6 394/5/6
f 394/5/6 391/5/6 395/5/6
f 396/2/6 397/2/6 400/2/6
f 400/2/6 397/2/6 401/2/6
f 398/2/6 399/2/6 402/2/6
f 402/2/6 399/2/6 403/2/6
f 404/5/6 405/5/6 408/5/6
f 408/5/6 405/5/6 409/5/6
f 406/5/6 407/5/6 410/5/6
f 410/5/6 407/5/6 411/5/6
f 412/5/6 413/5/6 416/5/6
f 416/5/6 413/5/6 417/5/6
f 414/5/6 415/5/6 418/5/6
f 418/5/6 415/5/6 419/5/6
f 420/5/6 421/5/6 426/5/6
f 426/5/6 421/5/6 427/5/6
f 422/2/6 423/2/6 428/2/6
f 428/2/6 423/2/6 429/2/6
f 424/2/6 425/2/6 430/2/6
f 430/2/6 425/2/6 431/2/6
f 420/5/6 426/5/6 432/5/6
f 432/5/6 426/5/6 433/5/6
f 427/5/6 421/5/6 434/5/6
f 434/5/6 421/5/6 435/5/6
f 436/4/6 437/4/6 438/4/6
f 438/4/6 437/4/6 439/4/6
f 436/4/6 438/4/6 440/4/6
f 439/4/6 437/4/6 441/4/6
f 436/4/6 440/4/6 442/4/6
f 440/4/6 441/4/6 442/4/6
f 441/4/6 437/4/6 443/4/6
f 442/4/6 441/4/6 443/4/6
f 444/4/6 445/4/6 452/4/6
f 452/4/6 445/4/6 453/4/6
f 446/4/6 447/4/6 454/4/6
f 454/4/6 447/4/6 455/4/6
f 448/4/6 449/4/6 456/4/6
f 456/4/6 449/4/6 457/4/6
f 450/4/6 451/4/6 458/4/6
f 458/4/6 451/4/6 459/4/6
f 452/2/6 453/2/6 460/2/6
f 460/2/6 453/2/6 461/2/6
f 456/3/6 457/3/6 462/3/6
f 462/3/6 457/3/6 463/3/6
f 458/2/6 459/2/6 464/2/6
f 464/2/6 459/2/6 465/2/6
f 466/1/6 467/1/6 468/1/6
f 468/1/6 467/1/6 469/1/6
f 470/5/6 471/5/6 472/5/6
f 472/5/6 471/5/6 473/5/6
