# MagicaVoxel @ Ephtracy

# group
o 

# material
mtllib Window.mtl
usemtl palette

# normals
vn -1 0 0
vn 1 0 0
vn 0 0 1
vn 0 0 -1
vn 0 -1 0
vn 0 1 0

# texcoords
vt 0.0332031 0.5
vt 0.0371094 0.5
vt 0.0644531 0.5
vt 0.373047 0.5

# verts
v -1.8 2.3 0
v -1.8 2.3 -0.1
v -1.8 3.5 0
v -1.8 3.5 -0.1
v -1.7 1.5 0
v -1.7 1.5 -0.1
v -1.7 2.3 0
v -1.7 2.3 -0.1
v -1.7 3.5 0
v -1.7 3.5 -0.1
v -1.7 3.7 0
v -1.7 3.7 -0.1
v -1.7 3.8 0.1
v -1.7 3.8 -0.1
v -1.7 4 0.1
v -1.7 4 -0.1
v -1.6 1.2 0
v -1.6 1.2 -0.1
v -1.6 1.5 0
v -1.6 1.5 -0.1
v -1.6 3.7 0
v -1.6 3.7 -0.1
v -1.6 3.8 0
v -1.6 3.8 -0.1
v -1.5 1.1 0
v -1.5 1.1 -0.1
v -1.5 1.2 0
v -1.5 1.2 -0.1
v -1.5 3.7 0.1
v -1.5 3.7 0
v -1.5 3.8 0.1
v -1.5 3.8 0
v -1.4 1 0
v -1.4 1 -0.1
v -1.4 1.1 0
v -1.4 1.1 -0.1
v 0.8 3.7 0
v 0.8 3.7 -0.1
v 0.8 3.8 0.1
v 0.8 3.8 0
v 0.8 3.8 -0.1
v 0.8 3.9 0.1
v 0.8 3.9 0
v 0.8 3.9 -0.1
v 0.8 4 0
v 0.8 4 -0.1
v 0.9 3.6 0
v 0.9 3.6 -0.1
v 0.9 3.7 0
v 0.9 3.7 -0.1
v 1.4 1.8 0
v 1.4 1.8 -0.1
v 1.4 3.6 0
v 1.4 3.6 -0.1
v 1.5 1.1 0
v 1.5 1.1 -0.1
v 1.5 1.8 0
v 1.5 1.8 -0.1
v 1.6 3.9 0.1
v 1.6 3.9 0
v 1.6 4 0.1
v 1.6 4 0
v -1.5 3.9 0.1
v -1.5 3.9 0
v -1.5 4 0.1
v -1.5 4 0
v -1.3 1 0
v -1.3 1 -0.1
v -1.3 1.7 0
v -1.3 1.7 -0.1
v -1.2 1.7 0
v -1.2 1.7 -0.1
v -1.2 3.7 0
v -1.2 3.7 -0.1
v -0.1 3.7 0.1
v -0.1 3.7 -0.1
v -0.1 3.8 0
v -0.1 3.8 -0.1
v -0.1 3.9 0.1
v -0.1 3.9 0
v -0.1 3.9 -0.1
v -0.1 4 0
v -0.1 4 -0.1
v 1.6 1.1 0
v 1.6 1.1 -0.1
v 1.6 1.2 0
v 1.6 1.2 -0.1
v 1.6 3.7 0
v 1.6 3.7 -0.1
v 1.6 3.8 0
v 1.6 3.8 -0.1
v 1.7 1.2 0
v 1.7 1.2 -0.1
v 1.7 1.3 0
v 1.7 1.3 -0.1
v 1.7 1.5 0
v 1.7 1.5 -0.1
v 1.7 2 0
v 1.7 2 -0.1
v 1.7 3.5 0
v 1.7 3.5 -0.1
v 1.7 3.7 0
v 1.7 3.7 -0.1
v 1.8 1.3 0
v 1.8 1.3 -0.1
v 1.8 1.5 0
v 1.8 1.5 -0.1
v 1.8 2 0
v 1.8 2 -0.1
v 1.8 3.5 0
v 1.8 3.5 -0.1
v 1.8 3.8 0.1
v 1.8 3.8 -0.1
v 1.8 4 0.1
v 1.8 4 -0.1
v -1.7 3.8 0.1
v -1.7 4 0.1
v -1.5 3.7 0.1
v -1.5 3.8 0.1
v -1.5 3.9 0.1
v -1.5 4 0.1
v -0.1 3.7 0.1
v -0.1 3.9 0.1
v 0.8 3.8 0.1
v 0.8 3.9 0.1
v 1.6 3.8 0.1
v 1.6 3.9 0.1
v 1.6 4 0.1
v 1.8 3.8 0.1
v 1.8 4 0.1
v -1.8 2.3 0
v -1.8 3.5 0
v -1.7 1.5 0
v -1.7 2.3 0
v -1.7 3.5 0
v -1.7 3.7 0
v -1.6 1.2 0
v -1.6 1.5 0
v -1.6 3.7 0
v -1.6 3.8 0
v -1.5 1.1 0
v -1.5 1.2 0
v -1.5 3.7 0
v -1.5 3.8 0
v -1.5 3.9 0
v -1.5 4 0
v -1.4 1 0
v -1.4 1.1 0
v -1.3 1 0
v -1.3 1.7 0
v -1.2 1.7 0
v -1.2 3.7 0
v -0.1 3.8 0
v -0.1 3.9 0
v -0.1 4 0
v 0.8 3.7 0
v 0.8 3.8 0
v 0.8 3.9 0
v 0.8 4 0
v 0.9 3.6 0
v 0.9 3.7 0
v 1.4 1.8 0
v 1.4 3.6 0
v 1.5 1.1 0
v 1.5 1.8 0
v 1.6 1.1 0
v 1.6 1.2 0
v 1.6 3.7 0
v 1.6 3.8 0
v 1.6 3.9 0
v 1.6 4 0
v 1.7 1.2 0
v 1.7 1.3 0
v 1.7 1.5 0
v 1.7 2 0
v 1.7 3.5 0
v 1.7 3.7 0
v 1.8 1.3 0
v 1.8 1.5 0
v 1.8 2 0
v 1.8 3.5 0
v -1.8 2.3 -0.1
v -1.8 3.5 -0.1
v -1.7 1.5 -0.1
v -1.7 2.3 -0.1
v -1.7 3.5 -0.1
v -1.7 3.7 -0.1
v -1.7 3.8 -0.1
v -1.7 4 -0.1
v -1.6 1.2 -0.1
v -1.6 1.5 -0.1
v -1.6 3.7 -0.1
v -1.6 3.8 -0.1
v -1.5 1.1 -0.1
v -1.5 1.2 -0.1
v -1.5 3.7 -0.1
v -1.5 3.8 -0.1
v -1.5 3.9 -0.1
v -1.5 4 -0.1
v -1.4 1 -0.1
v -1.4 1.1 -0.1
v -1.3 1 -0.1
v -1.3 1.7 -0.1
v -1.2 1.7 -0.1
v -1.2 3.7 -0.1
v -0.1 3.7 -0.1
v -0.1 3.8 -0.1
v -0.1 3.9 -0.1
v -0.1 4 -0.1
v 0.8 3.7 -0.1
v 0.8 3.8 -0.1
v 0.8 3.9 -0.1
v 0.8 4 -0.1
v 0.9 3.6 -0.1
v 0.9 3.7 -0.1
v 1.4 1.8 -0.1
v 1.4 3.6 -0.1
v 1.5 1.1 -0.1
v 1.5 1.8 -0.1
v 1.6 1.1 -0.1
v 1.6 1.2 -0.1
v 1.6 3.7 -0.1
v 1.6 3.8 -0.1
v 1.6 3.9 -0.1
v 1.6 4 -0.1
v 1.7 1.2 -0.1
v 1.7 1.3 -0.1
v 1.7 1.5 -0.1
v 1.7 2 -0.1
v 1.7 3.5 -0.1
v 1.7 3.7 -0.1
v 1.8 1.3 -0.1
v 1.8 1.5 -0.1
v 1.8 2 -0.1
v 1.8 3.5 -0.1
v 1.8 3.8 -0.1
v 1.8 4 -0.1
v -1.4 1 0
v -1.3 1 0
v -1.4 1 -0.1
v -1.3 1 -0.1
v -1.5 1.1 0
v -1.4 1.1 0
v 1.5 1.1 0
v 1.6 1.1 0
v -1.5 1.1 -0.1
v -1.4 1.1 -0.1
v 1.5 1.1 -0.1
v 1.6 1.1 -0.1
v -1.6 1.2 0
v -1.5 1.2 0
v 1.6 1.2 0
v 1.7 1.2 0
v -1.6 1.2 -0.1
v -1.5 1.2 -0.1
v 1.6 1.2 -0.1
v 1.7 1.2 -0.1
v 1.7 1.3 0
v 1.8 1.3 0
v 1.7 1.3 -0.1
v 1.8 1.3 -0.1
v -1.7 1.5 0
v -1.6 1.5 0
v -1.7 1.5 -0.1
v -1.6 1.5 -0.1
v -1.3 1.7 0
v -1.2 1.7 0
v -1.3 1.7 -0.1
v -1.2 1.7 -0.1
v 1.4 1.8 0
v 1.5 1.8 0
v 1.4 1.8 -0.1
v 1.5 1.8 -0.1
v 1.7 2 0
v 1.8 2 0
v 1.7 2 -0.1
v 1.8 2 -0.1
v -1.8 2.3 0
v -1.7 2.3 0
v -1.8 2.3 -0.1
v -1.7 2.3 -0.1
v 0.9 3.6 0
v 1.4 3.6 0
v 0.9 3.6 -0.1
v 1.4 3.6 -0.1
v -1.5 3.7 0.1
v -0.1 3.7 0.1
v -1.5 3.7 0
v -1.2 3.7 0
v 0.8 3.7 0
v 0.9 3.7 0
v -1.2 3.7 -0.1
v -0.1 3.7 -0.1
v 0.8 3.7 -0.1
v 0.9 3.7 -0.1
v -1.7 3.8 0.1
v -1.5 3.8 0.1
v 0.8 3.8 0.1
v 1.6 3.8 0.1
v 1.8 3.8 0.1
v -1.6 3.8 0
v -1.5 3.8 0
v -0.1 3.8 0
v 0.8 3.8 0
v 1.6 3.8 0
v -1.7 3.8 -0.1
v -1.6 3.8 -0.1
v -0.1 3.8 -0.1
v 0.8 3.8 -0.1
v 1.6 3.8 -0.1
v 1.8 3.8 -0.1
v 1.7 1.5 0
v 1.8 1.5 0
v 1.7 1.5 -0.1
v 1.8 1.5 -0.1
v -1.8 3.5 0
v -1.7 3.5 0
v 1.7 3.5 0
v 1.8 3.5 0
v -1.8 3.5 -0.1
v -1.7 3.5 -0.1
v 1.7 3.5 -0.1
v 1.8 3.5 -0.1
v -1.7 3.7 0
v -1.6 3.7 0
v 1.6 3.7 0
v 1.7 3.7 0
v -1.7 3.7 -0.1
v -1.6 3.7 -0.1
v 1.6 3.7 -0.1
v 1.7 3.7 -0.1
v -1.5 3.9 0.1
v -0.1 3.9 0.1
v 0.8 3.9 0.1
v 1.6 3.9 0.1
v -1.5 3.9 0
v -0.1 3.9 0
v 0.8 3.9 0
v 1.6 3.9 0
v -0.1 3.9 -0.1
v 0.8 3.9 -0.1
v -1.7 4 0.1
v -1.5 4 0.1
v 1.6 4 0.1
v 1.8 4 0.1
v -1.5 4 0
v -0.1 4 0
v 0.8 4 0
v 1.6 4 0
v -1.7 4 -0.1
v -1.5 4 -0.1
v -0.1 4 -0.1
v 0.8 4 -0.1
v 1.6 4 -0.1
v 1.8 4 -0.1

# faces
f 3/3/1 2/3/1 1/3/1
f 4/3/1 2/3/1 3/3/1
f 7/3/1 6/3/1 5/3/1
f 8/3/1 6/3/1 7/3/1
f 11/3/1 10/3/1 9/3/1
f 12/3/1 10/3/1 11/3/1
f 15/4/1 14/4/1 13/4/1
f 16/4/1 14/4/1 15/4/1
f 19/3/1 18/3/1 17/3/1
f 20/3/1 18/3/1 19/3/1
f 23/3/1 22/3/1 21/3/1
f 24/3/1 22/3/1 23/3/1
f 27/3/1 26/3/1 25/3/1
f 28/3/1 26/3/1 27/3/1
f 31/1/1 30/1/1 29/1/1
f 32/1/1 30/1/1 31/1/1
f 35/3/1 34/3/1 33/3/1
f 36/3/1 34/3/1 35/3/1
f 40/3/1 38/3/1 37/3/1
f 41/3/1 38/3/1 40/3/1
f 42/1/1 40/1/1 39/1/1
f 43/1/1 40/1/1 42/1/1
f 45/2/1 44/2/1 43/2/1
f 46/2/1 44/2/1 45/2/1
f 49/3/1 48/3/1 47/3/1
f 50/3/1 48/3/1 49/3/1
f 53/3/1 52/3/1 51/3/1
f 54/3/1 52/3/1 53/3/1
f 57/3/1 56/3/1 55/3/1
f 58/3/1 56/3/1 57/3/1
f 61/4/1 60/4/1 59/4/1
f 62/4/1 60/4/1 61/4/1
f 63/4/2 64/4/2 65/4/2
f 65/4/2 64/4/2 66/4/2
f 67/3/2 68/3/2 69/3/2
f 69/3/2 68/3/2 70/3/2
f 71/3/2 72/3/2 73/3/2
f 73/3/2 72/3/2 74/3/2
f 75/1/2 76/1/2 77/1/2
f 77/1/2 76/1/2 78/1/2
f 75/1/2 77/1/2 79/1/2
f 79/1/2 77/1/2 80/1/2
f 80/2/2 81/2/2 82/2/2
f 82/2/2 81/2/2 83/2/2
f 84/3/2 85/3/2 86/3/2
f 86/3/2 85/3/2 87/3/2
f 88/3/2 89/3/2 90/3/2
f 90/3/2 89/3/2 91/3/2
f 92/3/2 93/3/2 94/3/2
f 94/3/2 93/3/2 95/3/2
f 96/3/2 97/3/2 98/3/2
f 98/3/2 97/3/2 99/3/2
f 100/3/2 101/3/2 102/3/2
f 102/3/2 101/3/2 103/3/2
f 104/3/2 105/3/2 106/3/2
f 106/3/2 105/3/2 107/3/2
f 108/3/2 109/3/2 110/3/2
f 110/3/2 109/3/2 111/3/2
f 112/4/2 113/4/2 114/4/2
f 114/4/2 113/4/2 115/4/2
f 119/4/3 117/4/3 116/4/3
f 120/4/3 117/4/3 119/4/3
f 121/4/3 117/4/3 120/4/3
f 122/1/3 119/1/3 118/1/3
f 122/1/3 120/1/3 119/1/3
f 123/1/3 120/1/3 122/1/3
f 126/1/3 125/1/3 124/1/3
f 127/1/3 125/1/3 126/1/3
f 129/4/3 127/4/3 126/4/3
f 129/4/3 128/4/3 127/4/3
f 130/4/3 128/4/3 129/4/3
f 134/3/3 132/3/3 131/3/3
f 135/3/3 132/3/3 134/3/3
f 138/3/3 134/3/3 133/3/3
f 138/3/3 136/3/3 135/3/3
f 138/3/3 135/3/3 134/3/3
f 139/3/3 136/3/3 138/3/3
f 142/3/3 138/3/3 137/3/3
f 142/3/3 140/3/3 139/3/3
f 142/3/3 139/3/3 138/3/3
f 143/3/3 140/3/3 142/3/3
f 144/3/3 140/3/3 143/3/3
f 148/3/3 142/3/3 141/3/3
f 148/3/3 143/3/3 142/3/3
f 149/3/3 148/3/3 147/3/3
f 150/3/3 143/3/3 148/3/3
f 150/3/3 148/3/3 149/3/3
f 151/3/3 143/3/3 150/3/3
f 152/3/3 143/3/3 151/3/3
f 154/2/3 146/2/3 145/2/3
f 155/2/3 146/2/3 154/2/3
f 157/4/3 154/4/3 153/4/3
f 158/4/3 154/4/3 157/4/3
f 161/3/3 157/3/3 156/3/3
f 163/3/3 161/3/3 160/3/3
f 165/3/3 163/3/3 162/3/3
f 166/3/3 165/3/3 164/3/3
f 167/3/3 165/3/3 166/3/3
f 168/3/3 157/3/3 161/3/3
f 168/3/3 165/3/3 167/3/3
f 168/3/3 161/3/3 163/3/3
f 168/3/3 163/3/3 165/3/3
f 169/3/3 157/3/3 168/3/3
f 170/2/3 159/2/3 158/2/3
f 171/2/3 159/2/3 170/2/3
f 172/3/3 168/3/3 167/3/3
f 173/3/3 168/3/3 172/3/3
f 174/3/3 168/3/3 173/3/3
f 175/3/3 168/3/3 174/3/3
f 176/3/3 168/3/3 175/3/3
f 177/3/3 168/3/3 176/3/3
f 178/3/3 174/3/3 173/3/3
f 179/3/3 174/3/3 178/3/3
f 180/3/3 176/3/3 175/3/3
f 181/3/3 176/3/3 180/3/3
f 182/3/4 183/3/4 185/3/4
f 185/3/4 183/3/4 186/3/4
f 184/3/4 185/3/4 191/3/4
f 185/3/4 186/3/4 191/3/4
f 186/3/4 187/3/4 191/3/4
f 191/3/4 187/3/4 192/3/4
f 188/4/4 189/4/4 193/4/4
f 191/3/4 192/3/4 195/3/4
f 192/3/4 193/3/4 195/3/4
f 190/3/4 191/3/4 195/3/4
f 195/3/4 193/3/4 196/3/4
f 193/4/4 189/4/4 197/4/4
f 196/3/4 193/3/4 197/3/4
f 197/4/4 189/4/4 198/4/4
f 198/4/4 189/4/4 199/4/4
f 195/3/4 196/3/4 201/3/4
f 194/3/4 195/3/4 201/3/4
f 200/3/4 201/3/4 202/3/4
f 201/3/4 196/3/4 203/3/4
f 202/3/4 201/3/4 203/3/4
f 203/3/4 196/3/4 204/3/4
f 196/1/4 197/1/4 205/1/4
f 204/3/4 196/3/4 205/3/4
f 205/1/4 197/1/4 206/1/4
f 197/4/4 198/4/4 207/4/4
f 206/1/4 197/1/4 207/1/4
f 198/2/4 199/2/4 208/2/4
f 207/4/4 198/4/4 208/4/4
f 208/2/4 199/2/4 209/2/4
f 207/4/4 208/4/4 211/4/4
f 211/4/4 208/4/4 212/4/4
f 210/3/4 211/3/4 215/3/4
f 214/3/4 215/3/4 217/3/4
f 216/3/4 217/3/4 219/3/4
f 218/3/4 219/3/4 220/3/4
f 220/3/4 219/3/4 221/3/4
f 215/3/4 211/3/4 222/3/4
f 221/3/4 219/3/4 222/3/4
f 217/3/4 215/3/4 222/3/4
f 219/3/4 217/3/4 222/3/4
f 211/4/4 212/4/4 223/4/4
f 222/3/4 211/3/4 223/3/4
f 212/2/4 213/2/4 224/2/4
f 223/4/4 212/4/4 224/4/4
f 224/2/4 213/2/4 225/2/4
f 221/3/4 222/3/4 226/3/4
f 226/3/4 222/3/4 227/3/4
f 227/3/4 222/3/4 228/3/4
f 228/3/4 222/3/4 229/3/4
f 229/3/4 222/3/4 230/3/4
f 230/3/4 222/3/4 231/3/4
f 227/3/4 228/3/4 232/3/4
f 232/3/4 228/3/4 233/3/4
f 229/3/4 230/3/4 234/3/4
f 234/3/4 230/3/4 235/3/4
f 224/4/4 225/4/4 236/4/4
f 223/4/4 224/4/4 236/4/4
f 236/4/4 225/4/4 237/4/4
f 240/3/5 239/3/5 238/3/5
f 241/3/5 239/3/5 240/3/5
f 246/3/5 243/3/5 242/3/5
f 247/3/5 243/3/5 246/3/5
f 248/3/5 245/3/5 244/3/5
f 249/3/5 245/3/5 248/3/5
f 254/3/5 251/3/5 250/3/5
f 255/3/5 251/3/5 254/3/5
f 256/3/5 253/3/5 252/3/5
f 257/3/5 253/3/5 256/3/5
f 260/3/5 259/3/5 258/3/5
f 261/3/5 259/3/5 260/3/5
f 264/3/5 263/3/5 262/3/5
f 265/3/5 263/3/5 264/3/5
f 268/3/5 267/3/5 266/3/5
f 269/3/5 267/3/5 268/3/5
f 272/3/5 271/3/5 270/3/5
f 273/3/5 271/3/5 272/3/5
f 276/3/5 275/3/5 274/3/5
f 277/3/5 275/3/5 276/3/5
f 280/3/5 279/3/5 278/3/5
f 281/3/5 279/3/5 280/3/5
f 284/3/5 283/3/5 282/3/5
f 285/3/5 283/3/5 284/3/5
f 288/1/5 287/1/5 286/1/5
f 289/1/5 287/1/5 288/1/5
f 292/1/5 287/1/5 289/1/5
f 293/1/5 287/1/5 292/1/5
f 294/3/5 291/3/5 290/3/5
f 295/3/5 291/3/5 294/3/5
f 301/4/5 297/4/5 296/4/5
f 302/4/5 297/4/5 301/4/5
f 304/1/5 299/1/5 298/1/5
f 305/4/5 300/4/5 299/4/5
f 305/1/5 299/1/5 304/1/5
f 306/4/5 301/4/5 296/4/5
f 307/4/5 301/4/5 306/4/5
f 308/4/5 304/4/5 303/4/5
f 309/4/5 304/4/5 308/4/5
f 310/4/5 300/4/5 305/4/5
f 311/4/5 300/4/5 310/4/5
f 312/3/6 313/3/6 314/3/6
f 314/3/6 313/3/6 315/3/6
f 316/3/6 317/3/6 320/3/6
f 320/3/6 317/3/6 321/3/6
f 318/3/6 319/3/6 322/3/6
f 322/3/6 319/3/6 323/3/6
f 324/3/6 325/3/6 328/3/6
f 328/3/6 325/3/6 329/3/6
f 326/3/6 327/3/6 330/3/6
f 330/3/6 327/3/6 331/3/6
f 332/1/6 333/1/6 336/1/6
f 336/1/6 333/1/6 337/1/6
f 334/1/6 335/1/6 338/1/6
f 338/1/6 335/1/6 339/1/6
f 337/4/6 338/4/6 340/4/6
f 340/4/6 338/4/6 341/4/6
f 342/4/6 343/4/6 346/4/6
f 344/4/6 345/4/6 349/4/6
f 342/4/6 346/4/6 350/4/6
f 346/2/6 347/2/6 351/2/6
f 350/4/6 346/4/6 351/4/6
f 351/2/6 347/2/6 352/2/6
f 348/2/6 349/2/6 353/2/6
f 349/4/6 345/4/6 354/4/6
f 353/2/6 349/2/6 354/2/6
f 354/4/6 345/4/6 355/4/6
